<!DOCTYPE svg PUBLIC "-//W3C//DTD SVG 1.1//EN" "http://www.w3.org/Graphics/SVG/1.1/DTD/svg11.dtd" [
	<!ENTITY ns_flows "http://ns.adobe.com/Flows/1.0/">
]>
<svg xmlns="http://www.w3.org/2000/svg" width="352" height="156" viewBox="0.011 -1.218 352 156">
  <path fill="#FFF" d="M166.133 48.718h6.138l-4.24 2.576s-1.007-.465-1.413-1.2c-.407-.737-.484-1.376-.484-1.376M166.423 48.176s.93-1.472 3.427-3.524c2.498-2.053 3.485-2.362 3.485-2.362l-1.065-1.084 5.402-3.708-1.075 1.685-3.224 2.033 1.104 1.278-8.054 5.682zM177.862 36.7c-.044-.03-.755-2.325-.624-2.848.13-.522.16-.856.436-1.104.275-.247.48-.523 1.264-.61.783-.087 1.307-.16 1.307-.16s-1.496.247-1.902.828c-.406.58-.566.8-.58 1.32-.017.525.1 2.573.1 2.573M167.174 51.293l.48.232 1.054 3.118 2.982.155v1.16l-3.408-.773"/>
  <path fill="#FFF" d="M168.602 51.293l.416-.28.678 3.214h-.387M169.037 55.863s-.348.368-.436 1.123c-.086.755-.134 1.045.22 1.8.353.756 1.417 2.654 1.417 2.654s-.27-.91.078-1.22c.35-.31.58-.813 1.49-.87s1.265.164 1.96.09c.698-.07.843-.13 1.148-.376.305-.247.886-.8.87-.9s-.972.625-.972.625-.725.348-1.335.246c-.61-.102-1.19-.61-1.786-.48-.596.132-.9.088-1.177.422-.276.334-.61.538-.61.538s-.93-1.525-.915-2.266c.015-.744.05-1.387.05-1.387M172.125 47.067c.073-.058 3.69-2.745 3.69-2.745l.26.35-3.95 2.395zM172.174 54.764v1.292s.16.13.464.175c.305.044.566.13 1.264-.115.697-.247 1.133-.385 1.365-.592.232-.207.48-.353.712-.86s.362-.683.376-1.19.03-.786-.116-1.076c-.145-.29-.247-.566-.523-.944-.276-.377-.29-.58-.77-.697-.48-.116-1.292 0-1.292 0l1.06.256s.334-.04.64.6c.304.64.275.93.217 1.28s0 1-.377 1.22c-.378.217-.48.435-.654.478-.173.043-.623.392-.957.392-.334 0-.77.058-.886-.015s-.523-.203-.523-.203M173.8 50.402l2.692-1.51h2.052l3.137-1.825-3.252 2.212-1.975-.194M180.71 36.95l.025-.015c.082-.048.137-.134.143-.23l.25-3.68s.03-.872.38-1.045c.347-.174.55-.523 1.015-.64s1.715-.318 2.208-.202c.494.116 4.59.232 6.39.61 1.802.377 2.15.406 2.15.406l-3.387-.926-.022-.005c-.213-.04-3.474-.636-4.315-.608-.87.03-1.075-.26-2.033-.174-.96.088-1.917.175-2.236.582-.32.407-.697.87-.668 1.25.025.334-.086 3.323-.11 3.99-.005.085-.044.163-.11.216-.282.22.013.652.32.472M175.524 43.255s.77-.668 2.382-1.707c1.61-1.04 1.706-1.133 1.706-1.133l-.813-.058s-1.358.5-2.12 1.45c-.764.947-1.156 1.448-1.156 1.448M177.295 42.58l-.658 1.094h.716l.215.484s.773.223 1.277-.087c.503-.31.658-.657.86-.715s.35-.232.708-.242c.357-.01.764-.058.764-.058l-.764-.218s-.286-.256-.802-.305c-.514-.05-2.315.048-2.315.048M176.86 53.17l3.427-.134v.232M176.67 54.328l2.876 1.06-.116.19M175.887 55.65l2.323 1.452-.217.276"/>
  <path fill="#FFF" d="M180.486 49.87s1.54-.716 2.092-1.694c.55-.978 1.104-3.04 1.104-3.04s.406 1.22.406 1.932-.145 1.554-.262 2.02c-.115.463-.755 2.207-.755 2.207s.466-.097 1.105-.89c.64-.794.803-1.492.803-1.492s.504.33.707 1.094c.203.765.494 1.404.436 2.16s-.086 1.306-.9 2.322c-.812 1.016-2.574 2.304-2.574 2.304s-1.724.93-2.16 1.626c-.435.697-1.015 1.55-1.054 2.324s-.27.968 0 2.246.387 2.324 1.084 3.563 2.817 4.463 2.817 4.463-4.01-1.83-5.59-3.253c-1.584-1.423-3.942-3.95-3.942-3.95v-3.998l.326-.155v3.873s2.924 3.214 3.98 3.99c1.054.773 3.997 2.36 3.997 2.36s-2.837-2.787-3.025-4.375c-.19-1.588-.848-1.355-.654-2.71.194-1.356.262-3.293.654-3.834.393-.542.856-1.55 1.71-2.13.85-.58 2.553-1.278 3.173-2.053.622-.773.855-.444 1.183-1.51.33-1.064-.164-3.368-.164-3.368s-.126.407-.785 1.065c-.658.66-2.207 1.297-2.207 1.297s.62-.736.968-1.762c.35-1.026.64-1.956.658-2.324s.098-1.297.04-1.355-.194 1.332-.853 1.915c-.658.58-2.314 1.132-2.314 1.132M183.28 35.8s.874-.502 1.005-1.026-.022-.85.087-1.103.175-.47.437-.623c.262-.153.517-.292.88-.32.365-.03 1.59-.32 3.672-.117s1.413.233 2.65.364 1.676.277 2.463.248.96-.043 1.28-.248-.632.532-.632.532-.518.21-1.26.08c-.744-.13-4.007-.626-4.007-.626s-.874-.204-2.49 0-1.647.16-1.894.248c-.248.087-.424.044-.525.16-.102.117-.38.395-.32.802.06.408.277.844.072.99-.204.146-.526.422-.73.495s-.69.146-.69.146"/>
  <path fill="#FFF" d="M180.955 38.093c.16.03.248.218 1.656.145 1.41-.072 1.7-.145 1.7-.145l-.87 1.176s.013.217 1.19.115 1.29-.13 1.29-.13l-1.988 1.945s-.116.204 1.075 0c1.19-.203 1.263-.29 1.263-.29s-.464 1.04-.126 2.095c.34 1.055.727 1.723 1.443 3.447.716 1.723 1.084 2.362 1.336 3.95s.62 3 .154 4.202c-.465 1.2-.484 1.666-1.336 2.324s-1.722 1.336-2.245 2.11c-.523.775-1.414 2.46-1.414 2.46s.33-1.568.718-2.188c.388-.62 1.143-1.297 2.42-2.614 1.28-1.317 1.588-2.904 1.588-2.904s-.038-1.568-1.006-4.28c-.97-2.71-2.15-5.44-2.15-5.44s-.76-1.738-.353-2.188l.406-.45-2.513.232 1.938-1.96-2.605.015 1.22-1.263s-1.142.368-1.693.184-1.095-.547-1.095-.547M190.142 34.37s2.188-.193 4.26.136c2.072.33 4.145.697 5.23 0 1.083-.697.657-.02-.214.31s-2.808.503-2.808.503-1.16-.137-2.304-.35-3.195-.4-3.195-.4l-.968-.2zM182.882 65.515s.52 2.31 2.342 5.4c1.822 3.09 4.1 5.398 4.1 5.398s-1.107-1.756-2.44-5.952-2.06-7.902-2.06-7.902.563 4.75.986 6.05c.423 1.3 2.017 5.366 2.017 5.366s-1.887-2.407-2.73-4c-.847-1.594-2.215-4.36-2.215-4.36M188.52 59.6s-1.897.89-.968 3.37c.93 2.478 2.092 4.22 2.092 4.22s1.084 1.394 1.51 2.672c.426 1.278.504 4.608.504 4.608s.426-4.104 0-5.15c-.426-1.045-1.86-3.098-1.86-3.098s-1.16-1.87-1.393-2.556c-.232-.688-.784-1.384-.697-2.285s.813-1.78.813-1.78"/>
  <path fill="#FFF" d="M184.798 37.507s.504.03.97-.808c.464-.84.134-1.342.52-1.67.39-.33.93-.716 1.434-.66s1.297.717 1.434.872c.135.155.62.32 1.432 1.457.814 1.136 1.162 1.582 1.375 2.182.213.6.31.833-.29 1.568s-.755 1.162-1.53 1.607c-.773.445-2.246 1.198-2.246 1.198l1.55-1.45s1.26-.687 1.53-1.448c.27-.76.89-.18.56-.915-.328-.735-.89-1.665-1.276-2.07-.387-.408-1.094-1.763-1.796-2.13-.7-.37-.953-.408-1.088-.272-.137.136-.62-.04-.872.484-.25.522-.136 1.055-.27 1.244-.138.188-.698.71-.892.79-.195.077-.544.02-.544.02"/>
  <path fill="#FFF" d="M185.66 38.28s.627.147 1.112-.61c.485-.754.428-.972.428-.972s.958.16 1.263 1.496c.306 1.336.596 2.208.248 2.76-.35.55-.29 1.24-.87 1.563s-.756.318-.756.318l.755-.837s.842-1.307.725-1.64c-.115-.335-.174-1.73-.493-2.02-.32-.29-.378-.958-.552-.842s-.61.596-.61.596-.32.42-.58.392c-.263-.028-.67-.203-.67-.203M197.675 35.803s1.123-.66 2.284-.232c1.16.427 2.4.437 3.06 1.13.657.69 1.276 1.65 1.432 3.068s-.155 2.15.35 3.488c.503 1.338.54 2.15.968 3.313.426 1.16 1.975 4.143 2.75 4.762s.62.707.62.707l-1.9-1.335s-1.122-1.31-1.625-2.78c-.503-1.472-1.355-3.735-1.433-4.19-.078-.457-.582-2.355-.465-2.664.115-.31.438-1.896-.304-2.633-.742-.735-1.4-1.415-2.368-1.443-.97-.028-.97-.647-3.176-.454-2.208.194-2.66.454-2.66.454l2.465-1.19zM191.324 67.035s-1.51-3.504-.813-5.092c.697-1.588.543-3.137 1.337-4.183.793-1.045 2.304-1.79 2.885-3.432.58-1.642 1.162-3.625 1.162-3.625s-.582 1.402-1.938 2.564c-1.354 1.162-1.877 2.154-3.63 3.246-1.753 1.09-1.753.404-2.76 1.56-1.007 1.158-1.626 1.972-1.626 1.972s1.704-1.85 2.285-1.97c.58-.122 1.51-.344 2.014-.698s2.245-1.7 2.36-1.8 1.434-1.458 1.434-1.458-.697 1.16-1.007 1.53c-.31.367-1.317 1.064-1.472 1.335s-1.007.62-1.2 1.665c-.194 1.046-1.337 2.17-1.056 3.06s-.107 1.2.706 2.904c.814 1.705 1.318 2.42 1.318 2.42M188.265 43.896s-.775.615-.194 1.798 1.24 1.03 2.054 2.152 1.007 1.51 1.007 2.556-.618 3.485-.696 3.64c-.078.155 1.007-1.355 1.24-2.594.23-1.24.62-2.324.174-2.943s-.64-1.162-1.492-1.78c-.852-.62-1.432-.66-1.664-1.202s-.426-1.49-.155-1.79-.272.163-.272.163M189.953 43.255s-.906.835 0 1.648 1.217.15 1.895.792.522-.104.832 1.373c.31 1.476 0 2.56 0 2.56s.64-.773.59-2.36c-.048-1.588-.086-1.627-.436-1.898-.348-.27-1.432-.774-1.742-.774-.31 0-.387.348-.736-.04-.348-.387-.402-.344-.402-.82"/>
  <path fill="#FFF" d="M193.273 39.153s1.266-.203 2.62.203c1.356.407 1.966.58 2.663 1.017s1.54 1.19 2.004 1.655c.465.465.9.712 1.248 1.228.35.516.93 1.212 1.28 1.88.347.668.812 2.36 1.538 3.707s1.78 3.05 2.053 3.73c.27.676.52 2.4.25 3.35s-.658 2.284-1.2 3.117c-.543.833-.95 1.51-1.78 2.323-.834.813-1.512.987-1.88 1.452-.367.465-1.413 1.065-1.78 1.704-.368.638-1.51 1.49-1.724 2.516s-.232 1.25-.232 1.25l-.504-1.966s-1.045.87-1.277 1.2-.95.658-1.162 1.104c-.212.446-.91 1.104-1.025 2.17s-.155 1.606-.155 1.606.232-3.815.078-4.115c-.155-.3-.48-1.554-.48-1.554l.61 1.076s.132.19.19.654c.057.464.565-.494.565-.494s1.495-1.583 1.99-2.047c.493-.466 1.248-1.148 1.248-1.148s-.096 1.045-.076 1.26l.02.212s.735-1.24 1.025-1.472c.29-.232 1.035-1.292 1.456-1.626.422-.334 1.264-1.292 1.627-1.467.363-.175 1.002-.645 1.467-1.226.465-.58 1.297-1.626 1.607-2.323.31-.696.658-1.394.56-3.213-.095-1.82-.29-1.897-.6-2.44-.31-.542-1.8-2.788-2.177-3.882-.38-1.094-.713-2.222-1.082-2.79-.37-.565-.648-1.96-2.078-3.092s-1.332-1.757-2.592-2.192c-1.258-.435-2.033-.92-2.77-1.064-.734-.148-1.525-.303-1.525-.303M138.936 78.622h97.786v.945h-97.786zM145.82 27.785h12.925v.945H145.82zM145.82 36.98h12.925v.944H145.82zM145.82 45.918h12.925v.945H145.82zM145.82 54.877h12.925v.945H145.82zM145.82 63.854h12.925v.945H145.82zM145.82 73.048h12.925v.945H145.82zM217.257 27.785h12.924v.945h-12.923z"/>
  <path fill="#FFF" d="M213.093 24.035l4.785 3.977-.604.727-4.785-3.978zM213.082 33.222l4.784 3.976-.605.727-4.783-3.976zM213.093 42.17l4.785 3.976-.605.727-4.784-3.976zM213.093 51.107l4.785 3.977-.605.727-4.784-3.975zM213.083 60.092l4.784 3.976-.605.728-4.784-3.977zM213.083 69.286l4.784 3.976-.605.727-4.784-3.977zM163.527 24.758l-4.784 3.977-.605-.727 4.785-3.977zM163.538 33.95l-4.784 3.977-.604-.726 4.784-3.976zM163.527 42.892l-4.785 3.976-.604-.727 4.785-3.975zM163.526 51.83l-4.784 3.976-.604-.727 4.784-3.977zM163.54 60.824l-4.785 3.976-.604-.726 4.785-3.977zM163.54 70.018l-4.785 3.976-.604-.726 4.785-3.977z"/>
  <path fill="#FFF" d="M162.927 69.29h6.22v.945h-6.22z"/>
  <path fill="#FFF" d="M168.203 69.333h.945v10.234h-.945zM168.203 24.014h.945V34.17h-.945zM206.876 24.027h.945v10.045h-.944zM206.876 69.29h.945v10.277h-.944z"/>
  <path fill="#FFF" d="M162.927 33.225h6.22v.945h-6.22zM162.927 24.027h6.22v.945h-6.22zM206.87 24.027h6.22v.945h-6.22zM206.87 33.225h6.222v.945h-6.22zM206.876 69.29h6.22v.945h-6.22zM217.257 36.98h12.924v.944h-12.923zM217.257 45.918h12.924v.945h-12.923zM217.257 54.877h12.924v.945h-12.923zM217.257 63.854h12.924v.945h-12.923zM217.257 73.048h12.924v.945h-12.923zM144.936 27.785h.824v51.782h-.824z"/>
  <path fill="#FFF" d="M162.71 24.11h.823v55.457h-.824zM216.785 27.785h.945v51.782h-.945zM212.123 24.027h.992v55.54h-.992zM158.272 27.785h.945v51.782h-.945zM230.18 27.785h.946v51.782h-.945zM168.62 24.127c0-5.272 8.667-9.54 19.38-9.54M207.398 24.027c0-5.217-8.713-9.438-19.48-9.438M168.604 28.796c0-5.272 8.67-9.54 19.382-9.54M207.398 28.695c0-5.217-8.713-9.438-19.48-9.438M168.536 34.04c0-5.274 8.67-9.54 19.382-9.54M207.33 33.938c0-5.217-8.713-9.438-19.48-9.438M168.675 69.386c0 5.272 8.67 9.54 19.382 9.54M207.537 69.333c0 5.217-8.713 9.438-19.48 9.438M182.3 10.155c-.008.56-.023 1.842.004 2.154 6.548.497 12.22 0 12.22 0v-2.155H182.3z"/>
  <path fill="#FFF" d="M194.523 12.382c-.258.025-5.008.552-12.22 0-.32-.27-.015-.563-.015-.563 6.785.527 12.234 0 12.234 0s.304.238 0 .562M196.072 4.166h-.326l-2.604 5.52.682-6.517h-.352L191.26 9.79l.003-7.283h-.37l-1.685 7.223-.462-7.57h-.455l-.85 7.236-1.62-6.945h-.37l.004 7.284-2.222-6.623-.423-.025.76 6.54-2.604-5.52h-.326l1.75 6.066 1.205.085.002.05h2.016l-.06-.212h1.803l-.015.13 1.9.032-.006-.107h1.924l-.06.213h2.017l.002-.05 1.206-.087"/>
  <path fill="#FFF" d="M194.523 10.312c-.258.025-5.008.552-12.22 0-.32-.27-.015-.563-.015-.563 6.785.527 12.234 0 12.234 0s.304.237 0 .562M189.373 1.584c0 .875-.383 1.585-.854 1.585s-.855-.71-.855-1.586c0-.875.383-1.584.854-1.584s.853.71.853 1.584M192.034 2.282c-.132.817-.597 1.422-1.037 1.35s-.69-.79-.56-1.608.598-1.422 1.04-1.35c.44.07.69.79.557 1.608M196.777 4.082c-.256.723-.78 1.196-1.17 1.058-.39-.138-.496-.836-.24-1.56.257-.72.78-1.195 1.17-1.057.39.14.497.836.24 1.56M194.472 2.918c-.156.767-.62 1.32-1.033 1.237-.414-.084-.622-.775-.466-1.542.156-.767.617-1.32 1.03-1.236.415.083.624.774.468 1.54M184.725 2.282c.132.817.597 1.422 1.038 1.35.44-.07.69-.79.558-1.608s-.596-1.422-1.036-1.35-.69.79-.56 1.608M179.982 4.082c.256.723.78 1.196 1.17 1.058.39-.138.496-.836.24-1.56-.256-.72-.78-1.195-1.17-1.057-.39.14-.497.836-.24 1.56M182.162 2.918c.156.767.618 1.32 1.03 1.237.415-.084.624-.775.468-1.542-.156-.767-.62-1.32-1.032-1.236-.414.083-.623.774-.466 1.54M12.304 147.996c-2.996-1.44-5.44-3.3-7.327-5.575-1.887-2.276-3.24-4.69-4.058-7.238-.818-2.55-1.09-5.1-.82-7.648.274-2.55 1.072-4.837 2.396-6.86 1.207-1.867 2.56-3.31 4.058-4.32 1.5-1.012 3.017-1.722 4.554-2.13 1.538-.41 3.027-.575 4.466-.497 1.44.078 2.745.272 3.91.584 2.22.624 4.107 1.597 5.665 2.92s2.675 2.85 3.355 4.583c.683 1.732.896 3.61.643 5.634-.252 2.023-1.06 4.048-2.422 6.072 1.323-2.104 1.966-4.128 1.926-6.073-.04-1.946-.564-3.688-1.576-5.225-1.012-1.538-2.394-2.813-4.146-3.824-1.75-1.013-3.64-1.654-5.664-1.927-2.49-.31-4.786.03-6.89 1.022-2.1.992-3.862 2.365-5.283 4.116-1.42 1.75-2.413 3.745-2.978 5.984-.564 2.237-.544 4.476.058 6.714.604 2.237 1.88 4.338 3.825 6.305 1.947 1.967 4.73 3.533 8.35 4.7 2.8.74 5.497 1.11 8.085 1.11 2.59 0 5.08-.272 7.473-.817 2.394-.546 4.71-1.305 6.948-2.276 2.238-.974 4.408-2.063 6.51-3.27 1.636-.935 3.105-1.976 4.408-3.124 1.304-1.148 2.423-2.326 3.356-3.53.934-1.208 1.664-2.386 2.19-3.534.525-1.15.826-2.23.905-3.24V86.167L51.07 85.7c.7-.894 1.38-1.993 2.043-3.298.662-1.304 1.03-2.578 1.11-3.824V68.96c-2.18.39-4.37.39-6.57 0-2.197-.39-4.29-1.09-6.275-2.102-1.984-1.012-3.766-2.268-5.342-3.767-1.576-1.497-2.82-3.142-3.736-4.933-.914-1.79-1.42-3.667-1.518-5.633-.096-1.966.36-3.92 1.373-5.868.778-1.518 1.703-2.724 2.773-3.62 1.07-.895 2.17-1.565 3.3-2.014 1.128-.447 2.257-.69 3.385-.73 1.13-.04 2.142.02 3.037.176 1.75.312 3.28.915 4.583 1.81 1.305.895 2.288 1.984 2.95 3.27.66 1.283.972 2.714.933 4.29-.04 1.577-.506 3.202-1.4 4.875.855-1.75 1.186-3.366.99-4.845-.193-1.48-.748-2.773-1.662-3.882-.915-1.11-2.082-1.985-3.503-2.627-1.42-.644-2.908-.984-4.465-1.023-1.907-.04-3.64.398-5.196 1.313-1.557.915-2.803 2.093-3.737 3.532-.934 1.44-1.527 3.055-1.78 4.846-.253 1.79-.06 3.523.583 5.196.642 1.674 1.79 3.192 3.444 4.554 1.654 1.363 3.92 2.355 6.8 2.978 2.336.624 4.69.624 7.065 0 2.374-.623 4.768-1.625 7.184-3.006 2.414-1.382 4.867-3.016 7.36-4.904 2.49-1.887 5.04-3.814 7.648-5.78s5.284-3.844 8.028-5.634c2.744-1.79 5.566-3.26 8.465-4.408 2.9-1.148 5.898-1.858 8.992-2.13 3.094-.273 6.315.116 9.663 1.167 3.075 1.13 5.526 2.736 7.355 4.817 1.83 2.083 3.084 4.36 3.766 6.83s.827 4.983.438 7.532c-.39 2.548-1.256 4.825-2.598 6.83-1.342 2.004-3.123 3.597-5.34 4.78-2.22 1.18-4.828 1.636-7.824 1.363-2.024-.154-3.912-.842-5.663-2.063-1.752-1.222-3.144-2.7-4.176-4.43-1.03-1.732-1.566-3.6-1.605-5.605-.04-2.004.64-3.882 2.042-5.634-1.245 2.025-1.79 3.98-1.635 5.87.155 1.887.77 3.56 1.84 5.02 1.07 1.46 2.49 2.646 4.26 3.562 1.772.915 3.65 1.392 5.635 1.43 2.413.078 4.632-.448 6.656-1.576 2.023-1.128 3.688-2.597 4.992-4.407 1.303-1.81 2.18-3.815 2.627-6.014.448-2.2.332-4.34-.35-6.422-.68-2.083-2.014-3.96-4-5.634-1.984-1.673-4.767-2.9-8.348-3.678-4.516-.778-8.71-.72-12.583.176-3.873.895-7.52 2.268-10.946 4.116-3.425 1.85-6.674 3.95-9.75 6.305-3.074 2.353-6.032 4.602-8.873 6.742 1.753-.856 3.544-1.644 5.375-2.364 1.83-.72 3.68-1.323 5.55-1.81s3.768-.807 5.695-.962 3.863-.098 5.81.174c-1.636.43-3.174.993-4.613 1.693-1.44.7-2.88 1.46-4.32 2.277v22.637c-1.363-1.245-2.912-2.394-4.645-3.444-1.734-1.05-3.458-1.79-5.17-2.22.662-.543 1.343-1.302 2.045-2.275.702-.973 1.11-2.02 1.23-3.14V62.95c-1.91 1.012-3.616 1.917-5.116 2.715-1.502.798-3.03 1.41-4.59 1.838v54.106c0 1.36.214 2.383.643 3.064.43.68.964 1.176 1.607 1.488.642.312 1.344.535 2.104.672.76.135 1.47.34 2.134.612-2.065.7-4.16 1.663-6.282 2.89s-4.265 2.578-6.426 4.06c-2.16 1.478-4.35 3.015-6.57 4.61-2.217 1.596-4.465 3.104-6.742 4.525-2.277 1.42-4.583 2.687-6.92 3.796-2.333 1.108-4.707 1.926-7.12 2.452-2.414.524-4.856.67-7.33.438-2.475-.235-4.995-.975-7.564-2.22"/>
  <path fill="#FFF" d="M79.984 123.893c.39-.39.77-.818 1.138-1.285s.554-.953.554-1.46v-16.936c-.04-.467-.233-.925-.583-1.372-.35-.448-.72-.866-1.11-1.256 1.75-.39 3.41-.934 4.98-1.635 1.57-.702 2.948-1.52 4.13-2.454 1.184-.935 2.115-1.977 2.794-3.125.68-1.146 1.02-2.403 1.02-3.766 0-1.013-.204-1.85-.608-2.51-.406-.663-.897-1.18-1.476-1.55-.58-.37-1.196-.623-1.852-.76-.656-.136-1.234-.203-1.735-.203v5.023c0 .584.183.993.55 1.227s.875.545 1.53.935c-1.438.428-2.82 1.168-4.14 2.22-1.323 1.05-2.49 2.12-3.5 3.21V84.88c0-.505-.186-.99-.555-1.458s-.75-.896-1.138-1.285h20.012c-.39.39-.77.818-1.14 1.285s-.553.953-.553 1.46V98.43c0 .585.165 1.08.497 1.49.33.408.69.847 1.08 1.313-.43.43-.798.817-1.11 1.167-.312.352-.467.877-.467 1.577v17.17c0 .507.185.993.554 1.46s.75.896 1.14 1.285H79.983zm12.65-25.89c-.35.624-.785 1.198-1.307 1.723-.523.525-1.045 1.042-1.567 1.548s-1.015 1.03-1.48 1.576-.812 1.148-1.043 1.81v13.837h5.396V98.004zM103.79 92.357c.04-1.48.37-2.843.992-4.09.623-1.244 1.44-2.325 2.452-3.24 1.012-.914 2.15-1.624 3.416-2.13 1.265-.506 2.54-.76 3.824-.76h7.585c-.43.39-.83.818-1.198 1.285s-.555.953-.555 1.46v13.665c.04.545.205 1.02.497 1.43.29.41.632.81 1.02 1.198-.388.43-.73.817-1.02 1.17-.292.35-.458.855-.497 1.517v17.345c.04.506.244.983.613 1.43.37.45.75.867 1.14 1.257h-9.4c.387-.39.82-.808 1.304-1.256.483-.447.743-.925.783-1.43v-17.23c0-.7-.156-1.226-.468-1.576-.313-.35-.683-.76-1.11-1.226.388-.43.75-.857 1.08-1.285.33-.427.497-.914.497-1.46V87.042c-.813 0-1.548.146-2.206.438-.656.292-1.227.672-1.71 1.14s-.852 1.012-1.103 1.634c-.252.624-.377 1.266-.377 1.928v6.365c.078.545.262 1.02.555 1.43.29.41.632.81 1.022 1.2-.39.427-.74.816-1.05 1.167-.313.35-.487.856-.526 1.518v17.345c0 .506.184.983.55 1.43.366.45.742.867 1.128 1.257h-9.28c.388-.39.826-.808 1.312-1.256.486-.447.73-.925.73-1.43v-17.23c0-.7-.166-1.226-.497-1.576s-.69-.76-1.08-1.227c.39-.428.75-.856 1.08-1.284s.497-.914.497-1.46v-6.073zM132.286 101.7l5.346-11.796-.06-5.14c-.077-.506-.29-.973-.637-1.4-.35-.428-.716-.837-1.103-1.227h9.215c-.39.39-.78.827-1.168 1.313-.39.487-.584.964-.584 1.43v13.667c.04.545.213 1.02.525 1.43.313.41.663.83 1.052 1.257-.43.43-.798.827-1.11 1.197-.31.37-.466.906-.466 1.606v17.11c0 .546.185 1.043.555 1.49.37.448.75.867 1.14 1.256h-9.158c.387-.39.773-.808 1.16-1.256.387-.447.58-.944.58-1.49l.01-18.746-5.24 12.266-.058 6.48c0 .546.193 1.043.58 1.49.387.448.773.867 1.16 1.256h-9.156c.388-.39.768-.808 1.138-1.256.37-.447.555-.944.555-1.49v-17.11c0-.7-.155-1.235-.466-1.605-.312-.37-.682-.768-1.11-1.196.39-.428.74-.847 1.05-1.256.313-.41.487-.886.527-1.43V84.88c-.04-.466-.232-.933-.582-1.4-.39-.506-.78-.953-1.168-1.343h9.215c-.387.39-.755.8-1.103 1.227-.348.428-.56.895-.638 1.4V101.7zM170.657 118.17c-.39.39-.768.818-1.138 1.285-.37.47-.556.955-.556 1.463v13.332c-.935-1.13-2.085-2.22-3.45-3.27-1.362-1.054-2.765-1.773-4.207-2.163.697-.39 1.23-.703 1.598-.938.368-.236.553-.646.553-1.23v-2.757h-16.302c.388-.39.768-.818 1.138-1.285s.555-.953.555-1.46V103.92c-.04-.545-.206-1.03-.497-1.46-.292-.43-.633-.837-1.022-1.227.43-.467.79-.876 1.08-1.227.293-.35.44-.876.44-1.577V84.94c0-.545-.186-1.05-.556-1.518s-.75-.896-1.138-1.285h9.177c-.393.39-.775.817-1.147 1.284-.373.467-.56.974-.56 1.52v13.484c0 .7.147 1.227.44 1.577.29.352.65.76 1.08 1.227-.39.428-.74.857-1.052 1.284-.312.43-.467.916-.467 1.46v14.362h5.45c.04-1.673.06-3.19.06-4.553s-.01-2.9-.03-4.614c-.02-1.71-.03-3.443-.03-5.195 0-.544-.165-1.03-.496-1.46-.33-.426-.69-.855-1.08-1.283.43-.467.798-.875 1.11-1.226.312-.35.468-.875.468-1.576v-13.6c-.04-.507-.293-.983-.762-1.432-.468-.448-.897-.866-1.288-1.255h9.353c-.387.39-.765.808-1.133 1.256-.368.448-.57.924-.61 1.43v13.724c.04.663.204 1.17.496 1.52.292.35.632.74 1.022 1.167-.39.39-.73.79-1.022 1.197-.292.41-.457.888-.496 1.433v14.365l5.02-.06zM173.21 85.116c.038-.857-.147-1.47-.556-1.84-.41-.37-.808-.75-1.196-1.14h9.1c-.385.39-.752.8-1.098 1.228-.348.428-.56.895-.637 1.4v6.016c-.04 1.87.233 3.31.816 4.322.58 1.012 1.454 1.742 2.62 2.19 1.164.447 2.6.71 4.31.787 1.707.078 3.67.115 5.884.115-.39.39-.75.8-1.08 1.227-.33.43-.535.896-.61 1.402v20.557c.075.468.28.906.61 1.315.33.408.69.808 1.08 1.197h-20.938c.388-.39.768-.808 1.138-1.256.37-.447.555-.944.555-1.49v-17.053c0-.7-.167-1.235-.498-1.605-.33-.37-.69-.768-1.08-1.197.39-.427.74-.846 1.05-1.255.312-.408.487-.885.526-1.43v-13.49zm11.614 17.208c-.39-.077-.838-.223-1.344-.438-.507-.214-1.033-.456-1.578-.73-.545-.27-1.062-.562-1.55-.874-.485-.313-.904-.643-1.255-.993v19.207h5.67l.057-16.173zM196.195 83.393c-.39-.448-.78-.866-1.168-1.256h9.05c-.35.39-.718.818-1.105 1.285-.39.467-.58.953-.58 1.46l-.006 11.913c.58-.312 1.188-.682 1.827-1.11.638-.427 1.227-.924 1.77-1.488.54-.563.994-1.188 1.362-1.87.366-.68.55-1.47.55-2.364v-5.14.06c0-.468-.19-.944-.57-1.432-.382-.485-.744-.923-1.086-1.312h8.583c-.39.39-.77.827-1.14 1.313-.37.488-.554.965-.554 1.432v7.36c.037.505.23.972.583 1.4.35.428.72.837 1.11 1.226-1.13.272-2.415.838-3.855 1.694s-2.86 1.752-4.263 2.687c.546.155 1.13.27 1.753.35.622.077 1.284.136 1.984.175s1.41.088 2.13.146c.722.06 1.49.186 2.308.38-.39.39-.76.79-1.108 1.197-.352.41-.564.867-.643 1.373v18.278c0 .507.184.993.554 1.46.37.467.748.896 1.14 1.285h-8.876c.384-.39.768-.807 1.152-1.255s.578-.944.578-1.49v-12.786c0-.972-.186-1.76-.553-2.362-.368-.603-.824-1.1-1.367-1.49-.543-.388-1.123-.66-1.744-.816-.62-.155-1.144-.253-1.57-.292v17.748c0 .506.195.994.584 1.46s.76.896 1.11 1.284h-9.11c.39-.39.778-.808 1.168-1.256.39-.447.564-.944.525-1.49v-17.11c0-.7-.165-1.235-.495-1.605-.33-.37-.672-.77-1.02-1.197.35-.428.68-.847.99-1.256.312-.41.487-.886.526-1.43V84.88c.04-.544-.137-1.04-.525-1.487M224.697 101.7l5.347-11.796-.06-5.14c-.076-.506-.29-.973-.637-1.4-.35-.428-.716-.837-1.103-1.227h9.216c-.39.39-.78.827-1.168 1.313-.39.487-.584.964-.584 1.43v13.667c.04.545.213 1.02.525 1.43.31.41.66.83 1.05 1.257-.428.43-.798.827-1.108 1.197-.312.37-.467.906-.467 1.606v17.11c0 .546.186 1.043.555 1.49.37.448.748.867 1.138 1.256h-9.155c.387-.39.773-.808 1.16-1.256.387-.447.58-.944.58-1.49l.01-18.746-5.24 12.266-.058 6.48c0 .546.193 1.043.58 1.49.387.448.773.867 1.16 1.256h-9.156c.39-.39.77-.808 1.14-1.256.37-.447.554-.944.554-1.49v-17.11c0-.7-.155-1.235-.467-1.605s-.68-.768-1.108-1.196c.388-.428.737-.847 1.05-1.256s.485-.886.524-1.43V84.88c-.04-.466-.233-.933-.583-1.4-.39-.506-.778-.953-1.167-1.343h9.215c-.387.39-.754.8-1.102 1.227-.35.428-.562.895-.64 1.4V101.7zM247.64 101.704l5.346-11.795-.06-5.14c-.077-.506-.29-.973-.638-1.4s-.715-.837-1.102-1.227h9.215c-.39.39-.778.827-1.167 1.314-.39.486-.583.963-.583 1.43V98.55c.038.546.213 1.022.524 1.432.313.41.662.827 1.05 1.255-.427.43-.796.828-1.107 1.197s-.467.905-.467 1.605v17.108c0 .545.185 1.04.555 1.488.37.448.75.867 1.138 1.256h-9.156c.387-.39.773-.808 1.16-1.256.387-.447.58-.943.58-1.488l.01-18.744-5.24 12.262-.058 6.482c0 .545.192 1.04.58 1.488.386.448.772.867 1.16 1.256h-9.157c.39-.39.77-.808 1.138-1.256.37-.447.556-.943.556-1.488V104.04c0-.7-.156-1.236-.467-1.605-.313-.37-.683-.77-1.11-1.197.39-.428.738-.846 1.05-1.255.313-.41.487-.886.526-1.43V84.886c-.04-.467-.233-.935-.584-1.4-.39-.507-.78-.954-1.167-1.344h9.215c-.387.39-.755.8-1.103 1.227s-.56.895-.638 1.4v16.934zM258 74.55c-.234 1.17-.74 2.123-1.52 2.862-.777.74-1.703 1.294-2.772 1.665-1.07.37-2.21.555-3.415.555-1.207 0-2.355-.176-3.445-.526-1.09-.35-2.033-.885-2.83-1.605-.8-.72-1.334-1.604-1.606-2.655l4.67-.992c.155 1.284.556 2.18 1.198 2.686.642.505 1.332.72 2.072.64.622-.077 1.188-.37 1.693-.874.506-.506.836-1.323.992-2.452l4.963.697z"/>
  <path fill="#FFF" d="M287.773 60.782c1.752-.817 3.53-1.605 5.34-2.365 1.81-.76 3.678-1.4 5.605-1.927 1.927-.524 3.93-.885 6.014-1.08 2.08-.194 4.27-.117 6.57.233-1.208.233-2.61.75-4.206 1.547s-3.348 1.722-5.254 2.772V77.07l-1.862 2.043.93.233c.312.078.622.175.933.292v41.22c-.04.583.154 1.127.583 1.633s.856.975 1.285 1.402h-9.865c.434-.428.865-.855 1.298-1.285.433-.427.65-.933.65-1.518V83.666c-.98-.312-1.94-.544-2.882-.7.63-.78 1.237-1.742 1.826-2.89.59-1.148.923-2.268 1-3.358l-.022-8.7c-1.053.74-2.113 1.597-3.185 2.57s-2.104 2.004-3.096 3.094c-.994 1.09-1.948 2.22-2.863 3.386-.913 1.168-1.74 2.316-2.48 3.445l3.144 1.05v40.693c.078 1.09.47 2.14 1.173 3.152.703 1.012 1.388 1.79 2.054 2.336-1.673.934-3.143 1.994-4.406 3.182-1.265 1.187-2.5 2.267-3.707 3.24-1.206.972-2.47 1.73-3.794 2.277-1.324.545-2.88.642-4.67.29.738-.27 1.47-.65 2.188-1.138s1.372-1.05 1.957-1.693c.584-.642 1.09-1.343 1.518-2.1.428-.76.74-1.588.934-2.482.193-1.635.048-3.152-.44-4.553-.486-1.403-1.226-2.647-2.218-3.738s-2.168-1.995-3.53-2.716c-1.363-.72-2.823-1.216-4.38-1.488-2.568-.467-4.963-.28-7.182.555-2.218.837-4.115 2.082-5.69 3.736s-2.735 3.58-3.476 5.78c-.738 2.198-.885 4.416-.438 6.654.448 2.238 1.566 4.358 3.357 6.363 1.79 2.004 4.438 3.65 7.94 4.934 3.347 1.013 6.558 1.47 9.632 1.373s6.032-.555 8.873-1.37c2.842-.82 5.575-1.91 8.202-3.272s5.187-2.79 7.678-4.29c2.49-1.498 4.933-2.987 7.327-4.465 2.393-1.48 4.748-2.745 7.064-3.796 2.314-1.052 4.62-1.802 6.917-2.25 2.297-.447 4.61-.398 6.947.147-2.258-.35-4.612-.166-7.064.556-2.452.72-4.963 1.77-7.53 3.152s-5.196 2.957-7.882 4.73c-2.688 1.77-5.42 3.52-8.203 5.253-2.783 1.73-5.586 3.347-8.406 4.846-2.823 1.498-5.665 2.637-8.524 3.416-2.86.778-5.72 1.1-8.582.963-2.86-.137-5.71-.963-8.553-2.48-2.88-1.52-5.194-3.417-6.946-5.693-1.75-2.277-2.967-4.68-3.65-7.21-.68-2.53-.846-5.03-.495-7.502.35-2.473 1.206-4.68 2.568-6.627 1.245-1.75 2.695-3.094 4.35-4.027 1.653-.934 3.337-1.576 5.05-1.927 1.712-.35 3.356-.458 4.933-.32s2.93.38 4.06.73c1.05.35 2.053.807 3.006 1.37.953.565 1.82 1.198 2.598 1.898.78.7 1.46 1.46 2.043 2.276.585.817 1.052 1.635 1.402 2.452V85.07c0-.974-.41-1.918-1.228-2.833-.817-.914-1.887-1.488-3.21-1.722.7-1.052 1.595-2.276 2.685-3.678 1.09-1.4 2.294-2.86 3.613-4.378.66-.78 1.328-1.54 2.007-2.278.68-.74 1.406-1.48 2.183-2.22.47-.466 1.332-1.147 2.588-2.042-1.673.7-3.346 1.294-5.02 1.78s-3.348.828-5.02 1.022c-2.18.39-4.38.38-6.6-.03-2.216-.408-4.338-1.108-6.362-2.102-2.023-.992-3.854-2.228-5.488-3.707-1.633-1.48-2.928-3.104-3.883-4.875-.953-1.77-1.498-3.63-1.634-5.576-.135-1.945.303-3.872 1.314-5.78.778-1.518 1.703-2.724 2.773-3.62 1.07-.895 2.17-1.565 3.3-2.014 1.128-.447 2.257-.69 3.384-.73 1.13-.04 2.144.02 3.038.176 1.75.312 3.28.915 4.582 1.81 1.305.895 2.287 1.984 2.95 3.27.66 1.284.972 2.715.933 4.29-.04 1.577-.506 3.202-1.4 4.875.855-1.713 1.186-3.318.992-4.817-.195-1.5-.74-2.802-1.635-3.91s-2.053-1.986-3.475-2.63c-1.42-.64-2.908-.982-4.465-1.02-1.946-.04-3.688.397-5.227 1.312-1.537.915-2.772 2.102-3.707 3.562-.934 1.46-1.537 3.084-1.81 4.875-.272 1.79-.077 3.523.584 5.196.662 1.674 1.82 3.192 3.474 4.554 1.654 1.363 3.902 2.355 6.743 2.977 2.375.662 4.76.7 7.15.117 2.395-.584 4.808-1.567 7.24-2.95 2.433-1.38 4.885-3.024 7.356-4.932 2.47-1.907 5.01-3.843 7.618-5.81 2.61-1.964 5.275-3.862 8-5.69 2.724-1.83 5.536-3.33 8.436-4.496 2.9-1.168 5.887-1.89 8.962-2.16s6.286.116 9.634 1.167c3.074 1.13 5.525 2.734 7.355 4.816 1.83 2.083 3.094 4.36 3.795 6.83s.856 4.983.467 7.532c-.39 2.55-1.256 4.826-2.6 6.83-1.343 2.005-3.123 3.6-5.34 4.788-2.22 1.188-4.827 1.645-7.823 1.373-2.063-.156-3.97-.837-5.723-2.044-1.75-1.206-3.133-2.686-4.146-4.437-1.012-1.75-1.537-3.63-1.577-5.634-.038-2.003.644-3.88 2.046-5.633-1.245 2.023-1.79 3.98-1.635 5.868.156 1.887.77 3.56 1.84 5.02 1.07 1.46 2.48 2.647 4.233 3.562 1.75.915 3.62 1.412 5.604 1.49 2.412.038 4.632-.507 6.655-1.636s3.697-2.587 5.02-4.378 2.21-3.785 2.658-5.984c.447-2.2.33-4.33-.352-6.393-.682-2.063-2.014-3.94-3.998-5.634-1.985-1.692-4.768-2.928-8.35-3.707-2.996-.544-5.867-.67-8.61-.38-2.745.293-5.392.876-7.94 1.752-2.55.875-5.012 1.986-7.385 3.328-2.375 1.344-4.652 2.773-6.832 4.292-2.18 1.518-4.28 3.065-6.305 4.64-2.022 1.577-3.99 3.065-5.895 4.467m40.185 92.885c-1.635-.506-3.094-1.343-4.38-2.51-1.282-1.168-2.246-2.52-2.89-4.057-.64-1.538-.895-3.192-.758-4.964s.808-3.53 2.015-5.283c-.778 1.206-1.218 2.51-1.314 3.912-.096 1.4.078 2.772.527 4.115.447 1.342 1.147 2.568 2.102 3.68.952 1.106 2.07 1.983 3.355 2.625 1.284.643 2.705.964 4.263.964 1.557 0 3.19-.45 4.904-1.344 1.127-.623 2.014-1.5 2.655-2.626.643-1.13 1.032-2.366 1.168-3.708.136-1.344.01-2.735-.38-4.175s-1.04-2.772-1.955-4c-.916-1.226-2.102-2.286-3.563-3.18-1.46-.897-3.2-1.48-5.224-1.753-3.466-.428-6.832-.155-10.1.818-3.27.972-6.462 2.286-9.576 3.94-3.114 1.653-6.17 3.463-9.165 5.43-2.998 1.965-5.984 3.745-8.963 5.342-2.98 1.596-5.946 2.812-8.904 3.65-2.958.834-5.954.94-8.99.32 2.18.232 4.417.047 6.714-.555 2.296-.605 4.61-1.472 6.947-2.6 2.335-1.13 4.7-2.443 7.093-3.94 2.394-1.5 4.788-3.027 7.18-4.583 2.396-1.56 4.79-3.076 7.183-4.555 2.394-1.48 4.768-2.754 7.123-3.823 2.354-1.072 4.69-1.87 7.006-2.395 2.316-.526 4.603-.634 6.86-.322 2.92.428 5.4 1.362 7.442 2.803 2.044 1.44 3.62 3.104 4.73 4.992 1.107 1.887 1.76 3.853 1.955 5.896.194 2.042-.08 3.88-.818 5.517-.74 1.597-1.653 2.9-2.743 3.913-1.09 1.01-2.278 1.77-3.563 2.276s-2.608.768-3.97.787c-1.36.022-2.683-.182-3.97-.61"/>
  <path fill="#FFF" d="M328.253 82.137c-.39.39-.78.818-1.17 1.285s-.582.953-.582 1.46v13.723c.04.507.233.964.585 1.374.35.407.72.807 1.108 1.195-1.75.468-3.392 1.1-4.925 1.898-1.535.798-2.875 1.723-4.02 2.774-1.145 1.05-2.058 2.2-2.737 3.445s-1.038 2.53-1.076 3.854c0 1.48.192 2.697.578 3.65.386.955.868 1.703 1.447 2.248s1.186.926 1.823 1.14c.637.214 1.225.32 1.766.32v-5.14c0-.544-.185-.942-.55-1.196-.367-.253-.896-.574-1.588-.964 1.478-.35 2.867-1.05 4.17-2.102 1.303-1.05 2.46-2.142 3.472-3.27v13.313c0 .507.185.993.555 1.46s.768.896 1.195 1.285h-20.13c.39-.39.78-.818 1.17-1.285.388-.467.583-.953.583-1.46v-17.17c0-.545-.166-1.03-.496-1.46-.33-.428-.69-.875-1.08-1.343.428-.428.797-.817 1.108-1.168s.468-.876.468-1.577V84.88c0-.505-.195-.99-.584-1.458-.39-.467-.78-.896-1.168-1.285h20.077zm-12.6 22.626c.35-.583.774-1.138 1.278-1.663.503-.525 1.016-1.05 1.538-1.576.523-.525 1.017-1.06 1.482-1.605.463-.547.813-1.13 1.045-1.753.035-.117.045-1.85.027-5.196-.02-3.347-.01-5.195.027-5.545h-5.398v17.338zM349.465 94.46c-.234.778-.575 1.46-1.024 2.043-.45.584-.976 1.1-1.58 1.548-.606.448-1.26.866-1.962 1.256H352c-.39.39-.75.818-1.08 1.285-.33.468-.534.955-.61 1.46v19.332c.076.466.28.904.61 1.313.33.408.69.808 1.08 1.197h-20.938c.388-.39.768-.808 1.137-1.256.37-.447.556-.944.556-1.49v-15.592c0-.7-.166-1.236-.497-1.605-.332-.37-.69-.77-1.08-1.2.39-.427.738-.846 1.05-1.254.312-.41.486-.887.526-1.432l.06-15.184c0-.467-.187-.943-.557-1.43-.37-.487-.75-.925-1.14-1.314h20.272c-.39.39-.75.827-1.08 1.313-.33.486-.495.963-.495 1.43v6.774c0 1.093-.118 2.027-.352 2.805M338.37 98.67c.7.04 1.4-.087 2.1-.38s1.332-.75 1.896-1.37c.564-.623 1.012-1.422 1.342-2.395s.496-2.12.496-3.445V86.82l-5.833.06V98.67zm6 3.828h-5.728v15.997h5.67l.057-15.997z"/>
</svg>
