<?xml version="1.0" encoding="utf-8"?>
<!-- Generator: Adobe Illustrator 15.0.2, SVG Export Plug-In  -->
<!DOCTYPE svg PUBLIC "-//W3C//DTD SVG 1.1//EN" "http://www.w3.org/Graphics/SVG/1.1/DTD/svg11.dtd" [
	<!ENTITY ns_flows "http://ns.adobe.com/Flows/1.0/">
]>
<svg version="1.1"
	 xmlns="http://www.w3.org/2000/svg" xmlns:xlink="http://www.w3.org/1999/xlink" xmlns:a="http://ns.adobe.com/AdobeSVGViewerExtensions/3.0/"
	 x="0px" y="0px" width="70px" height="106px" viewBox="-0.332 -1.229 70 106" enable-background="new -0.332 -1.229 70 106"
	 xml:space="preserve">
<defs>
</defs>
<path d="M64.667,28.047c0,0-0.575-20.566-0.603-20.813c-0.04-0.381-0.139-0.758-0.298-1.12c-0.405-0.92-1.146-1.626-2.082-1.991
	l-6.094-2.362c-0.938-0.364-1.96-0.342-2.879,0.064c-0.92,0.405-1.626,1.146-1.99,2.083L46.54,14.686
	c-0.638-0.154-1.284-0.286-1.938-0.396v-4.064C44.603,4.588,40.015,0,34.377,0S24.152,4.588,24.152,10.226v4.064
	c-0.656,0.111-1.305,0.243-1.943,0.397L18.027,3.908c-0.364-0.937-1.07-1.678-1.99-2.083c-0.92-0.406-1.942-0.428-2.88-0.064
	L7.063,4.123C6.126,4.488,5.387,5.194,4.981,6.114C4.828,6.462,4.729,6.825,4.687,7.193C4.657,7.452,4.082,28.055,4.082,28.055
	C1.491,32.394,0,37.461,0,42.87v55.35c0,3.497,2.844,6.343,6.342,6.343h56.069c3.498,0,6.342-2.846,6.342-6.343V42.87
	C68.753,37.458,67.261,32.387,64.667,28.047 M61.178,23.352c-0.667-0.73-1.371-1.426-2.107-2.085l1.899-4.896L61.178,23.352z
	 M53.843,5.119c0.083-0.214,0.324-0.32,0.537-0.237l6.093,2.364c0.133,0.051,0.198,0.147,0.23,0.219
	c0.031,0.071,0.059,0.184,0.008,0.317l-4.387,11.311c-2.02-1.411-4.224-2.57-6.57-3.435L53.843,5.119z M34.377,3.349
	c3.42,0,6.264,2.509,6.789,5.783c-1.821-1.62-4.212-2.599-6.789-2.599c-2.526,0-4.912,0.913-6.786,2.578
	C28.125,5.848,30.965,3.349,34.377,3.349 M40.629,13.899c-0.286-0.009-12.219-0.009-12.505,0c0.337-0.736,0.801-1.414,1.39-2.003
	c1.299-1.299,3.025-2.014,4.863-2.014C37.109,9.882,39.531,11.515,40.629,13.899 M8.045,7.465c0.031-0.072,0.098-0.168,0.229-0.219
	l6.094-2.364c0.214-0.083,0.455,0.023,0.538,0.237l4.089,10.541c-2.348,0.865-4.551,2.025-6.569,3.435L8.038,7.782
	C7.987,7.649,8.013,7.537,8.045,7.465 M7.779,16.372l1.899,4.899c-0.737,0.66-1.441,1.355-2.106,2.085L7.779,16.372z M65.405,98.221
	c0,1.65-1.344,2.994-2.994,2.994H6.342c-1.65,0-2.994-1.344-2.994-2.994V42.87c0-14.136,11.501-25.636,25.637-25.636h10.784
	c14.137,0,25.638,11.5,25.638,25.636L65.405,98.221L65.405,98.221z"/>
<path d="M11.66,56.636c-2.702,0-4.9,2.2-4.9,4.901v31.548c0,2.702,2.198,4.9,4.9,4.9h45.434c2.702,0,4.9-2.198,4.9-4.9V61.537
	c0-2.701-2.198-4.901-4.9-4.901H11.66z M57.094,94.638H11.66c-0.854,0-1.553-0.697-1.553-1.553V72.044h42.145v3.806h3.349v-3.806
	h3.046v21.041C58.646,93.94,57.948,94.638,57.094,94.638 M58.646,61.537v7.157H10.107v-7.157c0-0.855,0.698-1.553,1.553-1.553
	h45.434C57.948,59.984,58.646,60.682,58.646,61.537"/>
<path d="M45.004,24.117H23.75v9.561h21.254V24.117z M41.656,30.329H27.099v-2.864h14.558V30.329z"/>
</svg>
