<?xml version="1.0" encoding="utf-8"?>
<!-- Generator: Adobe Illustrator 15.0.2, SVG Export Plug-In  -->
<!DOCTYPE svg PUBLIC "-//W3C//DTD SVG 1.1//EN" "http://www.w3.org/Graphics/SVG/1.1/DTD/svg11.dtd" [
	<!ENTITY ns_flows "http://ns.adobe.com/Flows/1.0/">
]>
<svg version="1.1"
	 xmlns="http://www.w3.org/2000/svg" xmlns:xlink="http://www.w3.org/1999/xlink" xmlns:a="http://ns.adobe.com/AdobeSVGViewerExtensions/3.0/"
	 x="0px" y="0px" width="106px" height="94px" viewBox="-0.4672852 -0.4106445 106 94"
	 enable-background="new -0.4672852 -0.4106445 106 94" xml:space="preserve">
<defs>
</defs>
<path d="M74.5981445,50.6459961H60.3305664c-3.9042969,0-7.0810547,3.2207031-7.0810547,7.1816406v11.1005859
	c0,3.9619141,3.1767578,7.1826172,7.0810547,7.1826172h14.2675781c3.9042969,0,7.0800781-3.2207031,7.0800781-7.1826172V57.8276367
	C81.6782227,53.8666992,78.5024414,50.6459961,74.5981445,50.6459961 M76.5288086,68.9282227
	c0,1.0878906-0.8798828,1.9589844-1.9306641,1.9589844H60.3305664c-1.0722656,0-1.9306641-0.8916016-1.9306641-1.9589844V57.8276367
	c0-1.0878906,0.8789063-1.9589844,1.9306641-1.9589844h14.2675781c1.0732422,0,1.9306641,0.8935547,1.9306641,1.9589844V68.9282227z
	"/>
<path d="M105.0004883,30.4697266c0-0.456543-0.1074219-0.8920898-0.3447266-1.2827148L89.0375977,1.3266602
	C88.5874023,0.5229492,87.7290039,0,86.8061523,0H18.1723633c-0.9228516,0-1.78125,0.5009766-2.2314453,1.3266602
	L0.3432617,29.1870117C0.128418,29.5776367,0,30.0131836,0,30.4697266c0,6.2470703,3.7114258,11.6010742,9.0112305,13.9731445
	v45.9453125c0,1.4365234,1.1591797,2.6113281,2.5742188,2.6113281h81.8066406c1.4169922,0,2.5751953-1.1748047,2.5751953-2.6113281
	V44.7700195c0-0.109375,0-0.1962891-0.0214844-0.2832031C101.2670898,42.1147461,105.0004883,36.737793,105.0004883,30.4697266
	 M19.6733398,5.2460938h65.6298828l12.2089844,21.784668H7.4882813L19.6733398,5.2460938z M74.7270508,32.2329102
	c-0.8144531,4.7021484-4.8701172,8.2709961-9.7412109,8.2709961c-4.8691406,0-8.9248047-3.5688477-9.7392578-8.2709961H74.7270508z
	 M49.7749023,32.2329102c-0.8154297,4.7021484-4.8701172,8.2709961-9.7392578,8.2709961
	c-4.8710938,0-8.9267578-3.5688477-9.7636719-8.2709961H49.7749023z M5.3203125,32.2329102h19.5024414
	c-0.8144531,4.7021484-4.8916016,8.2709961-9.7617188,8.2709961C10.190918,40.5258789,6.1352539,36.9350586,5.3203125,32.2329102
	 M43.253418,87.7768555H28.4477539V59.5913086c0-2.0449219,1.6318359-3.7226563,3.6708984-3.7226563h7.4863281
	c2.0175781,0,3.6689453,1.6552734,3.6689453,3.7226563v28.1855469H43.253418z M90.8178711,87.7768555H48.4018555V59.5913086
	c0-4.9179688-3.9462891-8.9453125-8.8173828-8.9453125h-7.4882813c-4.8476563,0-8.8183594,4.0048828-8.8183594,8.9453125v28.2070313
	h-9.1171875V45.7270508c0.3007813,0.0219727,0.5996094,0.0219727,0.9003906,0.0219727
	c5.1923828,0,9.7841797-2.6772461,12.4863281-6.7470703c2.7041016,4.0698242,7.2958984,6.7470703,12.4882813,6.7470703
	c5.1914063,0,9.7607422-2.6772461,12.4853516-6.7470703c2.7041016,4.0698242,7.2939453,6.7470703,12.4648438,6.7470703
	c5.1923828,0,9.7626953-2.6772461,12.4667969-6.7470703c2.7021484,4.0698242,7.2939453,6.7470703,12.4853516,6.7470703
	c0.3007813,0,0.5800781-0.0219727,0.8798828-0.0219727V87.7768555z M89.9379883,40.5258789
	c-4.8701172,0-8.9248047-3.5698242-9.7402344-8.2709961h19.5039063
	C98.8637695,36.9350586,94.809082,40.5258789,89.9379883,40.5258789"/>
</svg>
