<?xml version="1.0" encoding="utf-8"?>
<!-- Generator: Adobe Illustrator 15.0.2, SVG Export Plug-In  -->
<!DOCTYPE svg PUBLIC "-//W3C//DTD SVG 1.1//EN" "http://www.w3.org/Graphics/SVG/1.1/DTD/svg11.dtd" [
	<!ENTITY ns_flows "http://ns.adobe.com/Flows/1.0/">
]>
<svg version="1.1"
	 xmlns="http://www.w3.org/2000/svg" xmlns:xlink="http://www.w3.org/1999/xlink" xmlns:a="http://ns.adobe.com/AdobeSVGViewerExtensions/3.0/"
	 x="0px" y="0px" width="100px" height="87px" viewBox="-0.8354492 -0.4018555 100 87"
	 enable-background="new -0.8354492 -0.4018555 100 87" xml:space="preserve">
<defs>
</defs>
<path d="M86.9545898,41.6679688c-0.7011719-2.1708984-1.5898438-4.2797852-2.6542969-6.2978516v-0.2709961
	C84.300293,15.7460938,68.6694336,0,49.4575195,0S14.6147461,15.7460938,14.6147461,35.0991211v0.269043
	c-1.0634766,2.0219727-1.953125,4.1298828-2.6542969,6.3027344C5.3427734,41.8100586,0,47.2729492,0,53.9741211
	c0,6.7880859,5.4819336,12.3095703,12.2202148,12.3095703c0.015625,0,0.03125-0.0009766,0.0498047-0.0009766
	c1.9570313,4.8740234,5.1767578,8.9863281,9.5791016,12.1640625c6.8447266,4.9423828,16.390625,7.5537109,27.6074219,7.5537109
	c11.2177734,0,20.7646484-2.6113281,27.6103516-7.5537109c4.4033203-3.1777344,7.6220703-7.2900391,9.5810547-12.1660156
	c0.0439453,0.0009766,0.0878906,0.0029297,0.1318359,0.0029297c6.7382813,0,12.2197266-5.5214844,12.2197266-12.3095703
	C98.9995117,47.2446289,93.6108398,41.7641602,86.9545898,41.6679688 M79.8657227,33.4140625H64.456543
	c-0.1611328-8.4262695-1.5273438-16.3178711-3.890625-22.3779297C59.7495117,8.940918,58.8305664,7.125,57.8286133,5.6030273
	C70.0493164,9.1269531,79.1499023,20.1640625,79.8657227,33.4140625 M49.4575195,4.421875
	c2.3886719,0,5.0146484,3.0761719,7.0234375,8.2299805c2.1689453,5.5649414,3.4277344,12.8852539,3.5859375,20.762207H38.8491211
	c0.15625-7.8769531,1.4160156-15.1962891,3.5869141-20.762207C44.4438477,7.4980469,47.0688477,4.421875,49.4575195,4.421875
	 M36.637207,37.8349609h29.4609375c-4.2373047,3.9082031-10.2646484,6.2192383-16.640625,6.2192383
	c-6.3740234,0-12.4003906-2.3110352-16.6386719-6.2192383H36.637207z M41.0854492,5.6030273
	C40.0844727,7.125,39.1655273,8.940918,38.3491211,11.0361328c-2.3623047,6.0600586-3.7294922,13.9516602-3.8916016,22.3779297
	h-15.40625C19.7670898,20.1640625,28.8676758,9.1269531,41.0854492,5.6030273 M4.3886719,53.9741211
	c0-3.8564453,2.7612305-7.0732422,6.3969727-7.7539063c-0.5009766,2.5439453-0.7597656,5.1416016-0.7597656,7.7529297
	c0,2.7304688,0.2822266,5.3242188,0.8349609,7.7675781C7.1889648,61.090332,4.3886719,57.8569336,4.3886719,53.9741211
	 M74.5102539,74.8530273c-6.0947266,4.3994141-14.7587891,6.7255859-25.0537109,6.7255859
	c-10.2929688,0-18.9560547-2.3261719-25.0507813-6.7255859c-6.6289063-4.7851563-9.9912109-11.8095703-9.9912109-20.8798828
	c0-5.6201172,1.3349609-11.175293,3.8681641-16.1381836h8.6171875c4.9638672,6.5913086,13.4882813,10.6411133,22.5576172,10.6411133
	c9.0732422,0,17.5986328-4.0498047,22.5585938-10.6411133h8.6152344c2.5341797,4.9599609,3.8701172,10.5131836,3.8701172,16.1381836
	C84.5014648,63.043457,81.1401367,70.0678711,74.5102539,74.8530273 M88.0522461,61.7563477
	c0.5537109-2.4482422,0.8388672-5.0488281,0.8388672-7.7832031c0-2.6171875-0.2607422-5.2207031-0.7646484-7.7675781
	c3.6787109,0.6445313,6.4833984,3.8828125,6.4833984,7.7685547C94.6098633,57.887207,91.7661133,61.1420898,88.0522461,61.7563477"
	/>
<path d="M53.3071289,68.3637695c-1.0292969,1.0371094-2.3964844,1.6074219-3.8496094,1.6074219
	s-2.8212891-0.5703125-3.8486328-1.6074219c-0.8583984-0.8623047-2.2470703-0.8623047-3.1054688,0
	c-0.8554688,0.8632813-0.8554688,2.2636719,0,3.1269531c1.859375,1.8710938,4.328125,2.9023438,6.9541016,2.9023438
	c2.625,0,5.09375-1.03125,6.9541016-2.9033203c0.8564453-0.8623047,0.8564453-2.2626953,0-3.1259766
	C55.5522461,67.4995117,54.1635742,67.5014648,53.3071289,68.3637695"/>
<path d="M28.4995117,49.7426758c-1.2128906,0-2.1953125,0.9902344-2.1953125,2.2109375v6.8544922
	c0,1.2216797,0.9824219,2.2099609,2.1953125,2.2099609c1.2109375,0,2.1943359-0.9882813,2.1943359-2.2099609v-6.8544922
	C30.6938477,50.7329102,29.7114258,49.7426758,28.4995117,49.7426758"/>
<path d="M70.4165039,49.7426758c-1.2119141,0-2.1953125,0.9902344-2.1953125,2.2109375v6.8544922
	c0,1.2216797,0.9833984,2.2099609,2.1953125,2.2099609s2.1953125-0.9882813,2.1953125-2.2099609v-6.8544922
	C72.6118164,50.7329102,71.628418,49.7426758,70.4165039,49.7426758"/>
</svg>
