<?xml version="1.0" encoding="utf-8"?>
<!-- Generator: Adobe Illustrator 15.0.2, SVG Export Plug-In  -->
<!DOCTYPE svg PUBLIC "-//W3C//DTD SVG 1.1//EN" "http://www.w3.org/Graphics/SVG/1.1/DTD/svg11.dtd" [
	<!ENTITY ns_flows "http://ns.adobe.com/Flows/1.0/">
]>
<svg version="1.1"
	 xmlns="http://www.w3.org/2000/svg" xmlns:xlink="http://www.w3.org/1999/xlink" xmlns:a="http://ns.adobe.com/AdobeSVGViewerExtensions/3.0/"
	 x="0px" y="0px" width="100px" height="102px" viewBox="-0.6328125 -0.3574219 100 102"
	 enable-background="new -0.6328125 -0.3574219 100 102" xml:space="preserve">
<defs>
</defs>
<path fill="#f49000" d="M80.9960938,87.9619141H19.2314453c-5.4589844,0-11.1171875-4.5371094-11.1171875-10.3867188V19.5761719
	c0-6.8349609,6.4736328-11.4287109,13.1708984-11.4287109h56.1845703c7.4882813,0,13.4160156,5.3076172,13.4160156,12.90625
	v56.5214844C90.8857422,83.6005859,86.3291016,87.9619141,80.9960938,87.9619141 M21.2851563,13.0341797
	c-4.2548828,0-8.3056641,2.6865234-8.3056641,6.5419922v57.9990234c0,2.7822266,3.2822266,5.5,6.2519531,5.5h61.7646484
	c2.9853516,0,5.0146484-2.7587891,5.0146484-5.5V21.0537109c0-4.9423828-3.7001953-8.0195313-8.5410156-8.0195313H21.2851563z"/>
<path fill="#f49000" d="M60.9794922,73.3066406H36.6347656c-1.3466797,0-2.4335938-1.0976563-2.4335938-2.4482422
	s1.0869141-2.4404297,2.4335938-2.4404297h24.3447266c1.3466797,0,2.4316406,1.0898438,2.4316406,2.4404297
	S62.3261719,73.3066406,60.9794922,73.3066406"/>
<path fill="#f49000" d="M60.9794922,66.7890625H36.6347656c-1.3466797,0-2.4335938-1.0976563-2.4335938-2.4482422
	c0-1.3427734,1.0869141-2.4384766,2.4335938-2.4384766h24.3447266c1.3466797,0,2.4316406,1.0957031,2.4316406,2.4384766
	C63.4111328,65.6914063,62.3261719,66.7890625,60.9794922,66.7890625"/>
<path fill="#f49000" d="M60.9794922,60.2714844H36.6347656c-1.3466797,0-2.4335938-1.0888672-2.4335938-2.4394531
	c0-1.3515625,1.0869141-2.4482422,2.4335938-2.4482422h24.3447266c1.3466797,0,2.4316406,1.0966797,2.4316406,2.4482422
	C63.4111328,59.1826172,62.3261719,60.2714844,60.9794922,60.2714844"/>
<path fill="#f49000" d="M25.2626953,74.2060547c-4.4931641,0-8.1445313-3.6650391-8.1445313-8.171875s3.6513672-8.1806641,8.1445313-8.1806641
	c4.4941406,0,8.1474609,3.6738281,8.1474609,8.1806641S29.7568359,74.2060547,25.2626953,74.2060547 M25.2626953,62.7441406
	c-1.8066406,0-3.2802734,1.4765625-3.2802734,3.2900391c0,1.8125,1.4736328,3.2900391,3.2802734,3.2900391
	c1.8076172,0,3.2724609-1.4775391,3.2724609-3.2900391C28.5351563,64.2207031,27.0703125,62.7441406,25.2626953,62.7441406"/>
<path fill="#f49000" d="M75.4472656,74.2060547c-4.4902344,0-8.1445313-3.6650391-8.1445313-8.171875s3.6542969-8.1806641,8.1445313-8.1806641
	c4.4931641,0,8.1474609,3.6738281,8.1474609,8.1806641S79.9404297,74.2060547,75.4472656,74.2060547 M75.4472656,62.7441406
	c-1.8056641,0-3.2714844,1.4765625-3.2714844,3.2900391c0,1.8125,1.4658203,3.2900391,3.2714844,3.2900391
	c1.8085938,0,3.2744141-1.4775391,3.2744141-3.2900391C78.7216797,64.2207031,77.2558594,62.7441406,75.4472656,62.7441406"/>
<path fill="#f49000" d="M74.8144531,101h-1.4667969c-4.4199219,0-6.8066406-3.2216797-6.8066406-7.8222656v-7.6552734
	c0-1.3505859,0.3964844-2.4462891,1.7431641-2.4462891H79.640625c1.3466797,0,3.1308594,1.0957031,3.1308594,2.4462891v7.6552734
	C82.7714844,97.859375,79.1572266,101,74.8144531,101 M71.40625,87.9628906v5.2148438
	c0,1.0966797-0.3486328,2.9316406,1.9414063,2.9316406h1.4667969c0.5947266,0,3.0820313,0,3.0820313-2.9316406v-5.2148438H71.40625z
	"/>
<path fill="#f49000" d="M22.8847656,101h-1.4726563c-4.4140625,0-6.8076172-3.2216797-6.8076172-7.8222656v-7.6552734
	c0-1.3505859,0.3974609-2.4462891,1.7451172-2.4462891h11.3613281c1.3388672,0,3.1220703,1.0957031,3.1220703,2.4462891v7.6552734
	C30.8330078,97.859375,27.2285156,101,22.8847656,101 M19.4794922,87.9628906v5.2148438
	c0,1.0966797-0.3574219,2.9316406,1.9326172,2.9316406h1.4726563c0.5859375,0,3.0839844,0,3.0839844-2.9316406v-5.2148438
	H19.4794922z"/>
<path fill="#f49000" d="M72.8320313,48.8730469H53.671875c-1.3388672,0-1.734375-1.0966797-1.734375-2.4482422V26.1894531
	c0-0.6757813-0.0654297-1.3271484,0.4335938-1.796875c0.5-0.4599609,1.0068359-0.6923828,1.6660156-0.6357422l20.8105469,1.6367188
	c3.2226563,0.0566406,6.2988281,2.7109375,6.2988281,5.7236328v9.1240234
	C81.1464844,45.4794922,77.4619141,48.8730469,72.8320313,48.8730469 M56.8017578,43.9775391h16.0302734
	c0.8261719,0,3.4492188,0,3.4492188-3.7363281v-9.1240234c0-0.2617188-0.9921875-0.8417969-1.6328125-0.8417969
	c-0.0634766,0,0.046875,0-0.0166016-0.0078125l-17.8300781-1.4316406V43.9775391z"/>
<path fill="#f49000" d="M42.3164063,48.8730469H25.7705078c-4.8427734,0-9.5410156-3.5527344-9.5410156-8.6318359v-9.1240234
	c0-3.2265625,1.8945313-5.6669922,4.8808594-5.7236328l21.1904297-1.6367188
	c0.6660156-0.0566406,1.6015625,0.1816406,2.1005859,0.6435547s1.0371094,1.1132813,1.0371094,1.7890625v20.2353516
	C45.4384766,47.7763672,43.6572266,48.8730469,42.3164063,48.8730469 M40.5732422,28.828125l-19.1689453,1.4394531
	c-0.0634766,0.0078125,0.046875,0.0078125-0.0166016,0.0078125c-0.4033203,0-0.2939453,0.53125-0.2939453,0.8417969v9.1240234
	c0,1.9804688,2.3154297,3.7363281,4.6767578,3.7363281h14.8027344V28.828125z"/>
<path fill="#f49000" d="M60.1699219,13.0341797h-24.34375c-1.3466797,0-1.7431641-1.0966797-1.7431641-2.4472656V5.6992188
	C34.0830078,2.5595703,35.9375,0,39.0683594,0H56.921875c3.1298828,0,6.3701172,2.5595703,6.3701172,5.6992188v4.8876953
	C63.2919922,11.9375,61.5087891,13.0341797,60.1699219,13.0341797 M38.9482422,8.1464844h19.4785156V5.6992188
	c0-0.4453125-1.0625-0.8125-1.5048828-0.8125H39.0683594c-0.4365234,0-0.1201172,0.375-0.1201172,0.8125V8.1464844z"/>
<path fill="#f49000" d="M88.453125,59.4599609c-1.3466797,0-2.4433594-1.0976563-2.4433594-2.4482422V33.390625
	c0-1.3427734,0.40625-2.4394531,1.7451172-2.4394531h6.1816406C96.8349609,30.9511719,99,32.9765625,99,36.9833984v13.5117188
	c0,1.3505859-1.0927734,2.4472656-2.4316406,2.4472656c-1.3476563,0-2.4433594-1.0966797-2.4433594-2.4472656V36.9833984
	c0-0.5410156-0.7041016-0.9072266-0.7353516-1.1455078h-2.5048828v21.1738281
	C90.8847656,58.3623047,89.7919922,59.4599609,88.453125,59.4599609"/>
<path fill="#f49000" d="M10.546875,59.4599609c-1.3388672,0-2.4316406-1.0976563-2.4316406-2.4482422V35.8378906H6.2929688
	c-0.6669922,0-1.9580078,0.8427734-2.1396484,1.3046875l0.0234375,13.3525391c0,1.3505859-0.7460938,2.4472656-2.0849609,2.4472656
	C0.7451172,52.9423828,0,51.8457031,0,50.4951172V36.9833984c0-3.4980469,3.4785156-6.0322266,6.2929688-6.0322266h3.5644531
	c1.3408203,0,3.1210938,1.0966797,3.1210938,2.4394531v23.6210938
	C12.9785156,58.3623047,11.8935547,59.4599609,10.546875,59.4599609"/>
</svg>
