<?xml version="1.0" encoding="utf-8"?>
<!-- Generator: Adobe Illustrator 15.0.2, SVG Export Plug-In  -->
<!DOCTYPE svg PUBLIC "-//W3C//DTD SVG 1.1//EN" "http://www.w3.org/Graphics/SVG/1.1/DTD/svg11.dtd" [
	<!ENTITY ns_flows "http://ns.adobe.com/Flows/1.0/">
]>
<svg version="1.1"
	 xmlns="http://www.w3.org/2000/svg" xmlns:xlink="http://www.w3.org/1999/xlink" xmlns:a="http://ns.adobe.com/AdobeSVGViewerExtensions/3.0/"
	 x="0px" y="0px" width="87px" height="111px" viewBox="-0.9829102 -0.9238281 87 111"
	 enable-background="new -0.9829102 -0.9238281 87 111" xml:space="preserve">
<defs>
</defs>
<path d="M58.0219727,48.8847656c0.2050781,0.0644531,0.4111328,0.1035156,0.6162109,0.1035156
	c0.7929688,0,1.5390625-0.5097656,1.8115234-1.3105469c0.5966797-1.7753906,2.5078125-2.7255859,4.2636719-2.1230469
	c3.75,1.2822266,7.8369141-0.7548828,9.1064453-4.5458984c0.3457031-1.0087891-0.1875-2.1132813-1.1953125-2.453125
	c-0.9980469-0.3378906-2.0800781,0.1982422-2.4150391,1.2070313c-0.5966797,1.7753906-2.5097656,2.7255859-4.2734375,2.1318359
	c-3.7421875-1.2822266-7.8398438,0.7460938-9.1074219,4.5371094C56.4916992,47.4404297,57.0239258,48.5449219,58.0219727,48.8847656
	"/>
<path d="M62.5493164,35.4257813c0.1953125,0.0654297,0.4072266,0.1044922,0.6064453,0.1044922
	c0.7998047,0,1.5478516-0.5097656,1.8085938-1.3115234c0.2890625-0.859375,0.8955078-1.5576172,1.6972656-1.9628906
	c0.8125-0.3955078,1.71875-0.4521484,2.5751953-0.1601563c3.7431641,1.2832031,7.8398438-0.7548828,9.109375-4.5458984
	c0.3359375-1.0097656-0.1962891-2.1123047-1.1953125-2.453125c-0.9980469-0.3476563-2.0800781,0.1982422-2.4267578,1.2070313
	c-0.5966797,1.7753906-2.5009766,2.7265625-4.2636719,2.1220703c-1.8203125-0.6230469-3.7597656-0.4892578-5.4873047,0.3671875
	c-1.7167969,0.8603516-3.0039063,2.3398438-3.6181641,4.1796875C61.0083008,33.9824219,61.550293,35.0859375,62.5493164,35.4257813"
	/>
<path d="M67.0639648,21.9648438c0.2060547,0.0683594,0.4101563,0.1044922,0.6152344,0.1044922
	c0.7929688,0,1.5410156-0.5107422,1.8115234-1.3115234c0.4365234-1.3105469,1.8554688-2.0185547,3.1425781-1.5751953
	c1.5966797,0.5498047,3.3144531,0.4355469,4.8261719-0.3105469c1.5019531-0.7529297,2.6298828-2.0546875,3.1806641-3.6679688
	c0.3349609-1.0087891-0.1943359-2.1123047-1.1933594-2.453125c-1.0078125-0.3496094-2.0898438,0.1982422-2.4267578,1.2070313
	c-0.2158203,0.6328125-0.6611328,1.1523438-1.2597656,1.4443359c-0.5869141,0.3017578-1.2587891,0.3378906-1.8935547,0.1210938
	c-3.2939453-1.1201172-6.8867188,0.6621094-7.9970703,3.9902344C65.534668,20.5234375,66.065918,21.6269531,67.0639648,21.9648438"
	/>
<path d="M80.9008789,48.7421875c-0.3271484-0.2265625-0.7001953-0.3574219-1.0820313-0.4160156
	c3.7978516-12.4677734,5.8789063-24.6904297,6.1767578-36.3310547c0.0947266-3.6572266-1.6787109-8.5449219-5.2421875-10.8066406
	c-1.7177734-1.0849609-4.5175781-1.9794922-8.1640625-0.0849609C66.887207,4.0839844,62.800293,12.8359375,59.5249023,19.8710938
	c-0.1962891,0.40625-0.3730469,0.8027344-0.5585938,1.1982422c-0.7294922-3.3662109-2.9316406-6.2539063-6.0585938-7.7529297
	c-0.7353516-3.5830078-3.5537109-6.3935547-7.0800781-7.1210938c-0.0478516-0.1982422-0.0927734-0.3955078-0.1503906-0.59375
	c-0.7285156-2.5175781-2.9208984-4.4130859-5.4667969-4.7148438c-1.4296875-0.1689453-2.8457031,0.1328125-4.0595703,0.8466797
	c-1.0263672-0.5839844-2.1826172-0.8955078-3.3769531-0.8955078c-3.3232422,0-6.1132813,2.3496094-6.8417969,5.4804688
	c-3.6376953,1-6.2958984,4.3662109-6.3251953,8.2900391c-4.1416016,1.0761719-7.1660156,4.8671875-7.1660156,9.3662109
	c0,1.1972656,0.2255859,2.3779297,0.6523438,3.4912109c-1.0820313,1.3466797-1.6787109,3.0273438-1.6787109,4.7900391
	c0,1.0576172,0.2148438,2.0732422,0.6259766,3.0185547c-1.9140625-2.1035156-4.5917969-3.8300781-7.6132813-3.7158203
	c-1.0566406,0.0380859-1.8867188,0.9238281-1.8496094,1.9892578c0.0292969,1.0478516,0.8769531,1.8789063,1.9042969,1.8789063
	c0.0644531,0,0.1308594-0.0107422,0.1865234-0.0107422c1.7919922,0,3.4511719,1.1982422,4.6650391,2.59375
	c-3.03125,0.8769531-6.6816406,2.3203125-8.3862305,5.5654297c-1.0283203,1.9599609-1.1494141,4.3652344-0.4589844,7.1201172
	C0.1508789,51.25-0.0258789,51.9023438,0.0029297,52.6005859l3.2563477,46.7158203
	c0.2978516,5.8564453,5.0761719,10.4511719,10.8798828,10.4511719h53.6337891
	c5.8046875,0,10.5820313-4.5947266,10.8808594-10.4140625l3.3291016-48.3457031V50.96875
	C82.0415039,50.0820313,81.6303711,49.2519531,80.9008789,48.7421875 M60.5229492,26.5966797
	c0.7548828-1.4326172,1.5859375-3.1972656,2.453125-5.0732422c2.8740234-6.1689453,6.8134766-14.6113281,11.3662109-16.9863281
	c1.6601563-0.8691406,3.0976563-0.8886719,4.3759766-0.078125c2.2216797,1.40625,3.5185547,4.9521484,3.4521484,7.4423828
	c-0.2890625,11.4228516-2.3515625,23.4384766-6.1298828,35.7177734c-0.1220703,0.40625-0.4013672,1.2265625-0.7929688,2.3398438
	l-3.2568359,1.4638672c-0.0751953,0.0351563-0.140625,0.0644531-0.2050781,0.1103516
	c-0.9433594,0.5673828-1.9960938,0.8505859-3.0527344,0.859375c-1.0527344-0.0087891-2.1064453-0.2919922-3.0498047-0.859375
	l-1.3623047-0.828125c-1.5664063-0.953125-3.3212891-1.4248047-5.0761719-1.4248047h-0.0664063
	c-1.7724609-0.0087891-3.5537109,0.4609375-5.140625,1.4248047l-1.3613281,0.828125
	c-0.7568359,0.4638672-1.5947266,0.6816406-2.4462891,0.7851563c0.0478516-0.171875,0.1035156-0.3408203,0.1513672-0.5
	c0.5224609-1.8007813,1.0908203-3.5761719,1.6787109-5.3291016c0.2246094-0.6708984,0.4560547-1.3398438,0.6904297-2.0019531
	c0.484375-1.3945313,0.9990234-2.7714844,1.53125-4.1474609c0.2412109-0.6035156,0.4658203-1.2265625,0.7167969-1.8300781
	C56.6606445,34.3974609,58.4985352,30.4150391,60.5229492,26.5966797 M36.1606445,31.171875
	c0.2226563-0.2822266,0.4462891-0.5673828,0.6523438-0.8408203v-0.0097656
	c0.1503906-0.2070313,0.2792969-0.4150391,0.3916016-0.6230469c0.4755859-0.8955078,0.5878906-1.9042969,0.3652344-2.8847656
	l7.9765625-1.7626953c0.0566406,0.2441406,0.1113281,0.5,0.2060547,0.7246094
	c0.3544922,0.8789063,0.9873047,1.6132813,1.8837891,2.1318359c0.2890625,0.1621094,0.5898438,0.3212891,0.9052734,0.4902344
	c0.2626953,0.1416016,0.5136719,0.2851563,0.7763672,0.4248047c0.1191406,0.0673828,0.2509766,0.1328125,0.3720703,0.2080078
	c0.2324219,0.1230469,0.4472656,0.2724609,0.671875,0.4150391c0.1865234,0.1132813,0.3720703,0.2363281,0.5595703,0.3671875
	c0.2148438,0.1416016,0.4101563,0.3105469,0.6152344,0.4726563c0.1777344,0.1503906,0.3466797,0.3125,0.5136719,0.4716797
	c0.1865234,0.1875,0.3642578,0.3662109,0.5332031,0.5644531c0.2890625,0.3603516,0.5771484,0.7275391,0.8115234,1.1708984
	c-0.8115234,1.8115234-1.5791016,3.6484375-2.3134766,5.5068359c-0.1132813,0.2939453-0.234375,0.5751953-0.3564453,0.8583984
	c-2.0898438,0.5380859-4.1142578,1.546875-6.6152344,3.3388672c-3.1445313,2.265625-5.4960938,2.8681641-9.3574219,2.3007813
	l-1.1591797-5.3642578C32.809082,35.5,34.5170898,33.3037109,36.1606445,31.171875 M45.6391602,19.4462891
	c0.0478516-0.0087891,0.1025391-0.0166016,0.1513672-0.0166016c0.3623047,0,0.6992188,0.2636719,0.7734375,0.6210938
	c0.0673828,0.2851563-0.0361328,0.5-0.1132813,0.6025391c-0.0634766,0.1044922-0.2148438,0.2929688-0.4833984,0.3515625
	L35.4038086,23.34375c-0.4179688,0.09375-0.8476563-0.1884766-0.9316406-0.6132813
	c-0.0927734-0.4248047,0.1767578-0.8603516,0.5966797-0.9541016l5.6064453-1.2333984L45.6391602,19.4462891z M39.4643555,49.3164063
	c-0.1503906,0.0097656-0.2910156,0.0205078-0.4394531,0.0292969c-1.0458984,0.1132813-2.0712891,0.3769531-3.0429688,0.8203125
	l-0.3730469-1.6865234c0.5517578,0.0449219,1.1015625,0.09375,1.6152344,0.09375
	c3.3388672,0,6.0185547-1.0097656,9.1083984-3.2255859c0.9697266-0.6982422,1.8261719-1.2275391,2.6386719-1.6689453
	c-0.1669922,0.5078125-0.3457031,1.0097656-0.5126953,1.5166016c-0.1220703,0.359375-0.2509766,0.7167969-0.3730469,1.0859375
	c-0.5595703,1.7167969-1.1015625,3.4511719-1.5957031,5.1962891l-1.2685547-0.7626953
	c-1.5693359-0.953125-3.3320313-1.4345703-5.0849609-1.4345703c-0.0195313,0-0.0478516,0.0097656-0.0673828,0.0097656
	C39.8657227,49.2802734,39.659668,49.3095703,39.4643555,49.3164063 M16.6020508,29.3417969l1.2519531-1.0380859
	l-0.8115234-1.4150391c-0.5039063-0.8964844-0.7744141-1.8964844-0.7744141-2.9140625
	c0-3.1298828,2.4238281-5.6767578,5.5224609-5.8105469l2.3144531-0.09375l-0.5419922-2.2910156
	c-0.0839844-0.3769531-0.1289063-0.7558594-0.1289063-1.1142578c0-2.4882813,1.9199219-4.5849609,4.3759766-4.7724609
	l1.7626953-0.1298828V7.8378906c0.0556641-1.7363281,1.4746094-3.1318359,3.2011719-3.1318359
	c0.9980469,0,1.7167969,0.4511719,2.1347656,0.8408203l1.3457031,1.2236328l1.2773438-1.2822266
	c0.5878906-0.5839844,1.4003906-0.8564453,2.2314453-0.7626953c1.0253906,0.1230469,1.9492188,0.9248047,2.2480469,1.9599609
	c0.1015625,0.3505859,0.1308594,0.6884766,0.0927734,1.0292969L41.8793945,9.875h2.1474609
	c2.7519531,0,5.046875,2.1689453,5.2333984,4.9404297l0.0839844,1.2646484l1.1953125,0.4257813
	c2.984375,1.0546875,4.9453125,3.9140625,4.8798828,7.1103516c-0.0273438,1.3671875-0.4667969,2.6787109-1.25,3.8388672
	c-1.2783203-1.1025391-2.6611328-1.8398438-3.8173828-2.4521484c-0.2978516-0.1591797-0.5869141-0.3212891-0.8857422-0.4804688
	c-0.0839844-0.0488281-0.1767578-0.1328125-0.2148438-0.3310547c-0.0449219-0.2832031,0.0566406-0.6132813,0.2695313-0.8574219
	c0.8310547-0.9804688,1.1679688-2.3105469,0.8964844-3.5664063l-0.2324219-1.0644531
	c-0.234375-1.0761719-0.8671875-1.9892578-1.7822266-2.59375c-0.9150391-0.5859375-2.0068359-0.7939453-3.0615234-0.5566406
	l-0.5126953,0.1230469h-0.0185547l-5.6083984,1.2353516l-5.4775391,1.2070313
	c-1.0634766,0.234375-1.9677734,0.8769531-2.5556641,1.8017578c-0.5869141,0.9248047-0.7832031,2.0283203-0.5517578,3.1025391
	l0.1123047,0.5292969v0.0097656l0.1220703,0.5263672c0.2695313,1.2832031,1.15625,2.3681641,2.3603516,2.8876953
	c0.2978516,0.1298828,0.5419922,0.3759766,0.6347656,0.6201172c0.0478516,0.1513672,0.0185547,0.2177734-0.0927734,0.40625
	c-0.1865234,0.2558594-0.3925781,0.5185547-0.6074219,0.7919922c-0.2050781,0.2646484-0.4199219,0.5478516-0.6445313,0.8398438
	c-0.0742188,0.1035156-0.1484375,0.2080078-0.2226563,0.3017578c-0.1601563,0.2265625-0.3164063,0.4443359-0.4677734,0.6777344
	c-0.0927734,0.1240234-0.1767578,0.2558594-0.2597656,0.3896484c-0.1416016,0.2246094-0.2802734,0.4511719-0.4208984,0.6972656
	c-0.0742188,0.140625-0.1572266,0.2734375-0.2314453,0.4130859c-0.140625,0.2753906-0.2724609,0.5585938-0.4013672,0.8505859
	c-0.0576172,0.1230469-0.1123047,0.2451172-0.1699219,0.3662109c-0.1679688,0.4257813-0.3173828,0.8691406-0.4277344,1.3300781
	c-0.0185547,0.0751953-0.0292969,0.1523438-0.0478516,0.2275391c-0.0927734,0.3955078-0.1669922,0.8017578-0.2148438,1.2265625
	c-0.0195313,0.1689453-0.0195313,0.3476563-0.0361328,0.5195313c-0.0087891,0.2333984-0.0380859,0.4501953-0.0380859,0.6875
	l-0.0283203-0.0283203c-0.0263672-0.0390625-0.0546875-0.0654297-0.0742188-0.1044922
	c-0.3359375-0.4443359-0.6611328-0.8496094-0.9980469-1.2363281c-0.1123047-0.1210938-0.2148438-0.2333984-0.3183594-0.3564453
	c-0.2890625-0.3017578-0.5683594-0.59375-0.8476563-0.8603516c-0.09375-0.09375-0.1865234-0.1875-0.2792969-0.2724609
	c-0.3564453-0.3212891-0.71875-0.6132813-1.0751953-0.8759766c-0.1025391-0.0751953-0.2050781-0.1337891-0.3076172-0.2080078
	c-0.2705078-0.1796875-0.5400391-0.3505859-0.8203125-0.5c-0.1308594-0.0751953-0.2617188-0.1523438-0.4003906-0.2177734
	c-0.2792969-0.1416016-0.5712891-0.2539063-0.8603516-0.3564453c-0.0927734-0.0390625-0.1865234-0.0869141-0.2890625-0.1142578
	c-0.3076172-0.1035156-0.6230469-0.1777344-0.9414063-0.2460938c-0.0380859-0.0097656-0.0751953,0-0.1113281-0.0097656
	c-0.0654297-0.0087891-0.1220703-0.0361328-0.1875-0.0458984c-0.2236328-0.0292969-0.4384766-0.0195313-0.6542969-0.0292969
	c-0.1474609-0.0087891-0.2988281-0.0478516-0.4550781-0.0478516c-0.0488281,0-0.09375,0.0097656-0.1416016,0.0097656
	c-0.2988281,0.0087891-0.578125,0.0380859-0.8671875,0.0771484c-0.1474609,0.0166016-0.2890625,0.0361328-0.4296875,0.0546875
	c-0.3818359,0.0751953-0.7460938,0.1699219-1.109375,0.2832031c-0.0566406,0.0195313-0.1015625,0.0390625-0.1591797,0.0585938
	c-0.9501953,0.3203125-1.8564453,0.78125-2.6972656,1.3378906c-0.1757813-0.4335938-0.2695313-0.8964844-0.2695313-1.3769531
	C15.2407227,31.1230469,15.7446289,30.0683594,16.6020508,29.3417969 M4.3237305,45.3867188
	c0.8105469-1.5390625,2.7714844-2.7167969,6.1845703-3.7001953c1.5869141-0.4609375,3.0712891-1.3203125,4.2753906-2.4794922
	c0.5400391-0.5283203,1.0546875-0.9707031,1.5390625-1.3769531c1.546875-1.2734375,2.8730469-1.9521484,4.0771484-2.1113281
	c0.0292969,0,0.0478516-0.0097656,0.0742188-0.0097656c0.3818359-0.0488281,0.7568359-0.0292969,1.1113281,0.0263672
	c0.0927734,0.0195313,0.1855469,0.0585938,0.2783203,0.0771484c0.1806641,0.0458984,0.3564453,0.09375,0.5332031,0.1591797
	c0.1220703,0.0488281,0.234375,0.1142578,0.3457031,0.1689453c0.1679688,0.0869141,0.3349609,0.1523438,0.5019531,0.2558594
	c0.1328125,0.0849609,0.2539063,0.1894531,0.3857422,0.2734375c0.15625,0.1132813,0.3144531,0.2080078,0.4648438,0.3408203
	c0.1484375,0.1123047,0.2900391,0.2626953,0.4394531,0.3945313c0.1484375,0.1328125,0.2890625,0.2539063,0.4375,0.40625
	c0.1601563,0.1601563,0.3183594,0.3476563,0.4853516,0.5390625c0.1308594,0.1396484,0.2626953,0.2822266,0.3916016,0.4404297
	c0.1855469,0.21875,0.3652344,0.4716797,0.5517578,0.71875c0.1210938,0.1484375,0.2314453,0.2919922,0.34375,0.4511719
	c0.2158203,0.2949219,0.4208984,0.6220703,0.6357422,0.9433594c0.0927734,0.1523438,0.1855469,0.2734375,0.2695313,0.4248047
	c0.3085938,0.4814453,0.6162109,1,0.9238281,1.5488281c1.4101563,2.5087891,1.8662109,6.2148438,1.2597656,9.4404297
	c-0.1035156-0.0097656-0.2050781-0.0195313-0.2988281-0.0390625c-0.7265625-0.1230469-1.4355469-0.3564453-2.0703125-0.7460938
	l-1.3623047-0.828125c-1.5673828-0.953125-3.3232422-1.4248047-5.0761719-1.4248047h-0.0664063
	c-1.7822266-0.0087891-3.5644531,0.4609375-5.1503906,1.4248047l-0.6621094,0.4052734
	c-1.1582031,0.6982422-2.4462891,1.0458984-3.7431641,1.0654297c-1.296875-0.0195313-2.5908203-0.3671875-3.75-1.0654297
	l-2.5644531-1.5664063H5.0786133c-0.3369141-0.2070313-0.6992188-0.3388672-1.0722656-0.4150391
	C3.7084961,47.6025391,3.8110352,46.3662109,4.3237305,45.3867188 M74.8461914,99.1162109
	c-0.1962891,3.8037109-3.2939453,6.7822266-7.0634766,6.7822266H14.1391602c-3.7695313,0-6.8671875-2.9785156-7.0634766-6.8183594
	l-3.171875-45.6689453l1.6601563,1.0107422c1.8007813,1.0927734,3.8271484,1.6318359,5.8398438,1.6220703
	c2.0263672,0.0097656,4.0419922-0.5292969,5.84375-1.6220703l0.6611328-0.40625
	c0.9433594-0.5673828,1.9970703-0.8505859,3.0507813-0.8603516c1.0556641,0.0097656,2.1083984,0.2929688,3.0527344,0.8603516
	l1.3613281,0.8310547c1.7265625,1.0449219,3.6767578,1.4892578,5.6083984,1.3857422
	c0.1669922-0.0097656,0.34375-0.0097656,0.5136719-0.0195313c0.0263672-0.0097656,0.0458984-0.0195313,0.0644531-0.0195313
	c1.3066406-0.1494141,2.5849609-0.5644531,3.7695313-1.2441406c0.1123047-0.0380859,0.2246094-0.0380859,0.3271484-0.1025391
	l1.3613281-0.8310547c0.9443359-0.5673828,1.9970703-0.8505859,3.0507813-0.8603516
	c1.0566406,0.0097656,2.109375,0.2929688,3.0537109,0.8603516l1.3603516,0.8310547
	c1.4482422,0.8759766,3.0498047,1.328125,4.6748047,1.3945313c0.0283203,0,0.0644531,0.0107422,0.1025391,0.0107422
	c0.5517578,0.0166016,1.1103516,0,1.6699219-0.0878906c0.3183594-0.0351563,0.6259766-0.1201172,0.9335938-0.1875
	c0.1484375-0.0371094,0.2988281-0.0664063,0.4472656-0.1142578c0.8496094-0.2333984,1.6816406-0.5458984,2.4560547-1.015625
	l1.3613281-0.8310547c0.9433594-0.5673828,1.9970703-0.8505859,3.0498047-0.8603516
	c1.0556641,0.0097656,2.109375,0.2929688,3.0527344,0.8603516l1.3623047,0.8310547
	c1.5761719,0.9511719,3.3486328,1.421875,5.1142578,1.4121094c0.0253906,0,0.0634766,0.0097656,0.0927734,0.0097656
	c1.7177734,0,3.4326172-0.4521484,4.9726563-1.3574219l3.7509766-1.6875
	c0.0742188-0.0390625,0.1308594-0.1044922,0.2050781-0.1523438l0.2988281-0.1328125L74.8461914,99.1162109z"/>
<path d="M11.4711914,83.0644531h13.3789063c1.0566406,0,1.9042969-0.8564453,1.9042969-1.9335938
	c0-1.0654297-0.8476563-1.9238281-1.9042969-1.9238281H11.4711914c-1.0556641,0-1.9130859,0.8583984-1.9130859,1.9238281
	C9.5581055,82.2080078,10.4155273,83.0644531,11.4711914,83.0644531"/>
<path d="M11.4711914,90.7890625h17.1962891c1.0537109,0,1.9140625-0.8574219,1.9140625-1.9238281
	c0-1.0751953-0.8603516-1.9326172-1.9140625-1.9326172H11.4711914c-1.0556641,0-1.9130859,0.8574219-1.9130859,1.9326172
	C9.5581055,89.9316406,10.4155273,90.7890625,11.4711914,90.7890625"/>
<path d="M32.4946289,94.6572266H11.4711914c-1.0556641,0-1.9130859,0.8662109-1.9130859,1.9335938
	c0,1.0654297,0.8574219,1.9316406,1.9130859,1.9316406h21.0234375c1.0527344,0,1.9111328-0.8662109,1.9111328-1.9316406
	C34.4057617,95.5234375,33.5473633,94.6572266,32.4946289,94.6572266"/>
<path d="M43.9604492,94.6572266h-3.8242188c-1.0566406,0-1.9140625,0.8662109-1.9140625,1.9335938
	c0,1.0654297,0.8574219,1.9316406,1.9140625,1.9316406h3.8242188c1.0556641,0,1.9033203-0.8662109,1.9033203-1.9316406
	C45.8637695,95.5234375,45.0161133,94.6572266,43.9604492,94.6572266"/>
</svg>
