<?xml version="1.0" encoding="utf-8"?>
<!-- Generator: Adobe Illustrator 15.0.2, SVG Export Plug-In  -->
<!DOCTYPE svg PUBLIC "-//W3C//DTD SVG 1.1//EN" "http://www.w3.org/Graphics/SVG/1.1/DTD/svg11.dtd" [
	<!ENTITY ns_flows "http://ns.adobe.com/Flows/1.0/">
]>
<svg version="1.1"
	 xmlns="http://www.w3.org/2000/svg" xmlns:xlink="http://www.w3.org/1999/xlink" xmlns:a="http://ns.adobe.com/AdobeSVGViewerExtensions/3.0/"
	 x="0px" y="0px" width="115px" height="107px" viewBox="-0.8173828 -0.8706055 115 107"
	 enable-background="new -0.8173828 -0.8706055 115 107" xml:space="preserve">
<defs>
</defs>
<path d="M113.2392578,39.6655273l-7.5625-5.7480469L65.3857422,2.8588867c-4.9345703-3.8120117-11.8369141-3.8120117-16.7714844,0
	L8.3232422,33.9174805l-7.5620117,5.7480469c-0.8432617,0.6411133-1.0092773,1.8549805-0.3798828,2.7041016
	c0.3706055,0.5048828,0.9477539,0.7709961,1.5229492,0.7709961c0.3989258,0,0.7978516-0.1230469,1.1396484-0.3857422
	l4.5551758-3.4741211v6.1938477c-0.4179688,0.2338867-0.7978516,0.5092773-1.1137695,0.8461914l-1,0.8740234
	c-1.7553711,0.9428711-3.0610352,2.8066406-3.453125,4.9150391c-0.2021484,1.15625-0.1381836,2.3808594,0.1967773,3.5273438
	c0.1850586,0.6308594,0.0361328,1.4023438-0.3916016,2.0537109c-1.9921875,2.9814453-2.3911133,7.1425781-1,10.3515625
	c0.2045898,0.4902344,0.4628906,0.9404297,0.7700195,1.3642578c0.4438477,0.6015625,0.6025391,1.3925781,0.4179688,2.1279297
	c-0.0952148,0.3955078-0.1591797,0.8085938-0.1953125,1.2041016c-0.1586914,1.7226563,0.1953125,3.3964844,0.4731445,4.7539063
	c0.296875,1.4121094,0.7407227,3.5556641,2.3081055,4.921875c0.8359375,0.7236328,1.8569336,1.1113281,2.9970703,1.1757813
	v5.8066406H2.5620117c-0.7148438,0-1.4018555,0.3203125-1.8647461,0.875c-0.472168,0.546875-0.6860352,1.28125-0.5751953,2.0048828
	l2.0400391,13.7226563h98.8300781c2.9775391,0,5.4101563-2.4667969,5.4101563-5.4873047V39.2807617l4.5546875,3.4741211
	c0.3417969,0.2626953,0.7412109,0.3857422,1.140625,0.3857422c0.5742188,0,1.1513672-0.2661133,1.5214844-0.7709961
	C114.2480469,41.5205078,114.0820313,40.3066406,113.2392578,39.6655273 M6.0219727,76.6928711
	c-0.25-1.2050781-0.5107422-2.4580078-0.4086914-3.6044922c0.019043-0.2080078,0.0478516-0.4150391,0.1020508-0.6220703
	c0.4467773-1.8457031,0.0566406-3.8496094-1.0561523-5.3554688c-0.1308594-0.1884766-0.2519531-0.4052734-0.3540039-0.6220703
	c-0.8720703-2.0039063-0.5942383-4.7412109,0.6791992-6.6445313c1.0756836-1.6171875,1.4008789-3.546875,0.890625-5.2988281
	c-0.1689453-0.5625-0.2045898-1.1748047-0.1030273-1.7314453c0.1860352-0.9970703,0.8081055-1.8823242,1.5961914-2.2670898
	l1.7250977-1.4223633c0.2416992-0.2617188,0.5839844-0.3945313,0.9189453-0.4599609
	c0.1567383-0.0288086,0.315918-0.0576172,0.4819336-0.0576172c0.0380859,0,0.0639648-0.0092773,0.0917969-0.0092773
	c0.2143555,0,0.4375,0.0092773,0.6679688,0.0478516c1.4199219,0.1972656,2.5888672,0.9594727,3.1376953,2.0332031
	c0.296875,0.5742188,0.3896484,1.3452148,0.2392578,2.0341797c-0.0634766,0.3076172-0.0732422,0.637207-0.0927734,0.9594727
	c-0.0634766,1.4296875,0.3710938,2.859375,1.2607422,3.9609375c0.2333984,0.2832031,0.3994141,0.6494141,0.4765625,1.015625
	c0.0917969,0.4824219,0.0917969,1.0078125,0,1.609375c-0.1035156,0.6025391-0.2900391,1.2724609-0.5869141,2.0146484
	c-0.3613281,0.9423828-0.7792969,1.7412109-1.2421875,2.3828125c-1.2421875,1.7294922-1.4296875,4.1865234-0.4921875,6.3886719
	c0.4541016,1.0439453,0.5302734,2.3808594,0.1953125,3.4824219c-0.7509766,2.5126953-2.9404297,3.9726563-4.175293,4.6210938
	c-0.296875,0.1513672-0.6201172,0.2822266-0.9360352,0.3857422c-0.7617188,0.2548828-1.5219727,0.3300781-1.9589844-0.0371094
	C6.4941406,78.9790039,6.2070313,77.605957,6.0219727,76.6928711 M13.5654297,102.1401367H5.4379883l-1.3276367-8.8837891
	h10.7822266L13.5654297,102.1401367z M26.5986328,96.362793h62.7050781v5.7783203H26.5986328V96.362793z M89.3037109,82.8657227
	H26.5986328v-5.7783203h62.7050781V82.8657227z M26.5986328,67.4506836h62.7050781v5.7783203H26.5986328V67.4506836z
	 M89.3037109,63.590332H26.5986328v-5.7773438h62.7050781V63.590332z M26.5986328,86.7250977h62.7050781v5.7773438H26.5986328
	V86.7250977z M89.3037109,53.9536133H26.5986328v-5.777832h62.7050781V53.9536133z M100.9921875,102.1401367h-7.8945313V44.315918
	H22.8066406v57.8242188h-5.3916016l1.4648438-9.8730469c0.1113281-0.7236328-0.1015625-1.4482422-0.5644531-2.0048828
	c-0.4736328-0.5449219-1.1503906-0.8652344-1.8652344-0.8652344h-5.046875v-6.6640625
	c0.1025391-0.0458984,0.2138672-0.1035156,0.3154297-0.1591797c3.0625-1.5996094,5.2138672-4.0644531,6.0664063-6.9267578
	c0.59375-1.9658203,0.4648438-4.2548828-0.3417969-6.1367188c-0.296875-0.6962891-0.3544922-1.4384766-0.1855469-2.0332031
	c0.0644531-0.2070313,0.1474609-0.3955078,0.2597656-0.5644531c0.6474609-0.9033203,1.2246094-1.984375,1.7070313-3.2285156
	c0.7216797-1.8525391,0.9921875-3.4707031,0.8613281-4.9570313c-0.0185547-0.2851563-0.0380859-0.5761719-0.0830078-0.8398438
	c-0.2041016-0.9960938-0.6318359-1.9384766-1.2607422-2.7089844c-0.3535156-0.4345703-0.5107422-1.1015625-0.3886719-1.6660156
	c0.3222656-1.5634766,0.1083984-3.2373047-0.5869141-4.6132813c-1.1113281-2.1733398-3.3496094-3.6982422-5.9736328-4.0742188
	c-0.1015625-0.0200195-0.2138672-0.0288086-0.3154297-0.0390625l42.0527344-32.421875
	c2.0410156-1.5810547,4.8994141-1.5810547,6.9394531,0L102.5976563,44.84375v55.668457
	C102.5976563,101.4057617,101.875,102.1401367,100.9921875,102.1401367 M102.5976563,40.0058594L62.7714844,9.296875
	c-3.3964844-2.6269531-8.1464844-2.6269531-11.5419922,0L11.4033203,40.0058594v-3.6142578L18.2412109,31.1875
	c0.0830078-0.0649414,0.1376953-0.1586914,0.2138672-0.2358398L50.9160156,5.9189453
	c3.5791016-2.7592773,8.5898438-2.7592773,12.1689453,0l24.6503906,19.0087891
	c0.1210938,0.1791992,0.2509766,0.3500977,0.4267578,0.4799805l14.4355469,10.9838867V40.0058594z"/>
</svg>
