<?xml version="1.0" encoding="utf-8"?>
<!-- Generator: Adobe Illustrator 15.0.2, SVG Export Plug-In  -->
<!DOCTYPE svg PUBLIC "-//W3C//DTD SVG 1.1//EN" "http://www.w3.org/Graphics/SVG/1.1/DTD/svg11.dtd" [
	<!ENTITY ns_flows "http://ns.adobe.com/Flows/1.0/">
]>
<svg version="1.1"
	 xmlns="http://www.w3.org/2000/svg" xmlns:xlink="http://www.w3.org/1999/xlink" xmlns:a="http://ns.adobe.com/AdobeSVGViewerExtensions/3.0/"
	 x="0px" y="0px" width="81px" height="67px" viewBox="-1.428 -0.345 81 67" enable-background="new -1.428 -0.345 81 67"
	 xml:space="preserve">
<defs>
</defs>
<path fill="none" stroke="#BFBEBE" stroke-width="2" stroke-linecap="round" stroke-linejoin="round" stroke-miterlimit="10" d="
	M43.138,17.098C53.979,15.423,62.598,9.106,65.238,1"/>
<path fill="none" stroke="#BFBEBE" stroke-width="2" stroke-linecap="round" stroke-linejoin="round" stroke-miterlimit="10" d="
	M28.128,16.375c2.904,0.753,6.018,1.16,9.26,1.16c0.531,0,1.059-0.01,1.584-0.032"/>
<path fill="none" stroke="#BFBEBE" stroke-width="2" stroke-linecap="round" stroke-linejoin="round" stroke-miterlimit="10" d="
	M15.488,9.827c2.308,2.068,5.116,3.804,8.281,5.101c0.107,0.046,0.757,0.277,0.866,0.321"/>
<path fill="none" stroke="#BFBEBE" stroke-width="2" stroke-linecap="round" stroke-linejoin="round" stroke-miterlimit="10" d="
	M9.537,1c0.696,2.135,1.807,4.146,3.263,5.983"/>
<path fill="none" stroke="#BFBEBE" stroke-width="2" stroke-linecap="round" stroke-linejoin="round" stroke-miterlimit="10" d="
	M43.564,24.971c-1.656,1.847-4.06,3.01-6.733,3.01c-4.99,0-9.037-4.047-9.037-9.038c0-4.992,4.047-9.039,9.037-9.039
	c0.932,0,1.832,0.142,2.678,0.405"/>
<line fill="none" stroke="#BFBEBE" stroke-width="2" stroke-linecap="round" stroke-linejoin="round" stroke-miterlimit="10" x1="36.831" y1="65.013" x2="36.831" y2="27.981"/>
<polygon fill="none" stroke="#BFBEBE" stroke-width="2" stroke-linecap="round" stroke-linejoin="round" stroke-miterlimit="10" points="
	42.336,63 44.464,63 44.464,58.852 42.336,58.852 42.336,54.878 44.464,54.878 44.464,51.184 36.831,51.184 36.831,65.014 
	42.336,65.014 "/>
<path fill="none" stroke="#BFBEBE" stroke-width="2" stroke-linecap="round" stroke-linejoin="round" stroke-miterlimit="10" d="
	M24.832,24.334c-2.135,0.587-4.487,0.396-6.6-0.715c-4.417-2.321-6.117-7.786-3.794-12.204c2.322-4.419,7.788-6.118,12.205-3.795
	c0.762,0.399,1.444,0.894,2.037,1.462"/>
<line fill="none" stroke="#BFBEBE" stroke-width="2" stroke-linecap="round" stroke-linejoin="round" stroke-miterlimit="10" x1="1" y1="56.4" x2="18.231" y2="23.619"/>
<polygon fill="none" stroke="#BFBEBE" stroke-width="2" stroke-linecap="round" stroke-linejoin="round" stroke-miterlimit="10" points="
	6.81,57.179 8.694,58.17 10.625,54.496 8.741,53.506 10.591,49.99 12.473,50.98 14.191,47.709 7.436,44.159 1,56.4 5.874,58.962 "/>
<path fill="none" stroke="#BFBEBE" stroke-width="2" stroke-linecap="round" stroke-linejoin="round" stroke-miterlimit="10" d="
	M60.48,13.575c0.143,1.235-0.118,2.562-0.133,2.683c-0.377,2.762-2.027,5.312-4.67,6.737c-4.392,2.365-9.873,0.723-12.242-3.672
	c-2.367-4.395-0.724-9.876,3.673-12.244c3.042-1.638,6.603-1.354,9.295,0.434"/>
<line fill="none" stroke="#BFBEBE" stroke-width="2" stroke-linecap="round" stroke-linejoin="round" stroke-miterlimit="10" x1="73.24" y1="55.597" x2="55.678" y2="22.995"/>
<polygon fill="none" stroke="#BFBEBE" stroke-width="2" stroke-linecap="round" stroke-linejoin="round" stroke-miterlimit="10" points="
	77.132,51.214 79.005,50.206 77.037,46.551 75.164,47.561 73.281,44.064 75.152,43.054 73.402,39.801 66.681,43.421 73.24,55.596 
	78.087,52.988 "/>
</svg>
