<?xml version="1.0" encoding="utf-8"?>
<!-- Generator: Adobe Illustrator 15.0.2, SVG Export Plug-In  -->
<!DOCTYPE svg PUBLIC "-//W3C//DTD SVG 1.1//EN" "http://www.w3.org/Graphics/SVG/1.1/DTD/svg11.dtd" [
	<!ENTITY ns_flows "http://ns.adobe.com/Flows/1.0/">
]>
<svg version="1.1"
	 xmlns="http://www.w3.org/2000/svg" xmlns:xlink="http://www.w3.org/1999/xlink" xmlns:a="http://ns.adobe.com/AdobeSVGViewerExtensions/3.0/"
	 x="0px" y="0px" width="68px" height="70px" viewBox="-0.093 -0.196 68 70" enable-background="new -0.093 -0.196 68 70"
	 xml:space="preserve">
<defs>
</defs>
<path fill="none" stroke="#BFBEBE" stroke-width="2" stroke-linecap="round" stroke-linejoin="round" stroke-miterlimit="10" d="
	M29.359,16.271c0,0,15.834,8.203,15.834,24.72c0,15.299-22.119,14.403-22.119,0.287C23.074,30.042,35.318,30.686,29.359,16.271z"/>
<path fill="none" stroke="#BFBEBE" stroke-width="2" stroke-linecap="round" stroke-linejoin="round" stroke-miterlimit="10" d="
	M45.193,59.104c0,1.204-0.975,2.179-2.179,2.179H25.252c-1.203,0-2.178-0.975-2.178-2.179v-0.637c0-1.204,0.975-2.179,2.178-2.179
	h17.763c1.204,0,2.179,0.975,2.179,2.179V59.104z"/>
<polyline fill="none" stroke="#BFBEBE" stroke-width="2" stroke-linecap="round" stroke-linejoin="round" stroke-miterlimit="10" points="
	63.33,18.818 34.167,1 5.001,18.818 "/>
<polyline fill="none" stroke="#BFBEBE" stroke-width="2" stroke-linecap="round" stroke-linejoin="round" stroke-miterlimit="10" points="
	54.507,18.996 34.167,6.569 13.824,18.996 "/>
<polyline fill="none" stroke="#BFBEBE" stroke-width="2" stroke-linecap="round" stroke-linejoin="round" stroke-miterlimit="10" points="
	8.828,16.461 8.828,68.298 59.503,68.298 59.503,16.461 "/>
<polyline fill="none" stroke="#BFBEBE" stroke-width="2" stroke-linecap="round" stroke-linejoin="round" stroke-miterlimit="10" points="
	13.882,18.866 13.882,68.297 54.451,68.297 54.451,18.866 "/>
<line fill="none" stroke="#BFBEBE" stroke-width="2" stroke-linecap="round" stroke-linejoin="round" stroke-miterlimit="10" x1="1" y1="68.298" x2="66.625" y2="68.298"/>
<path fill="none" stroke="#BFBEBE" stroke-width="2" stroke-linecap="round" stroke-linejoin="round" stroke-miterlimit="10" d="
	M31.523,47.317c2.948,1.789,9.186-0.097,9.186-5.367"/>
</svg>
