<svg id="plans15" xmlns="http://www.w3.org/2000/svg" xmlns:xlink="http://www.w3.org/1999/xlink" width="1787" height="1291.5" viewBox="0 0 1787 1291.5">
  <g id="plans15-hovers">
    <path id="plans15_x5F_7" fill="#B3B3B3" d="M1237.25 602.25l548-6s-4.11 142.135-37.324 202.61c-21.65 0-31.676.39-31.676.39l-1.538 82.873-26 25.53v68.01l-98.962.55v-76.618l-19 .322.998 190.833H1237.25v-488.5z"/>
    <path id="plans15_x5F_6" fill="#CCC" d="M1239.25 1103.25h335.5v50h15v-31.5h101.665v165.668H1589.75v-50.334h-19v35.166h-724.5v-211.5h153.833v-197h219.667v247.584h19.666z"/>
    <path id="plans15_x5F_5" fill="#E5E5E5" d="M337.75 671.75h336v371.5h-165v-87.47h-51v18.97h26.5v93h-151.5v-90.5h39.333v-21.47H337.75z"/>
    <path id="plans15_x5F_4" fill="#CCC" d="M330.75 574.25l-1 380.834H135.853l.23 22.165h37.97v99.167H3.75V977.25h47.743s4.258-22.5-.243-22.5h-28v-380.5h307.5z"/>
    <path id="plans15_x5F_3" fill="#E5E5E5" d="M1171.37 207.896h70.38v20.354h-131v329.5h126.5v25h456v-48.5h20v50h72s-2.148-130.122-37.324-198.31l-36.176-.19v65.744h-20.5V405.75h-125.5v-177.5h-45v-21h63.498v-39.03s-103.873-37.324-207.686-37.324-205.195 37.325-205.195 37.325l.002 39.676z"/>
    <path id="plans15_x5F_2" fill="#CCC" d="M1098.25 228.25v329.5h-519.5v-461h46V76.5h-51V1.75s93.592 1.98 203.963 37.324c.027 30.01-.336 40.01-.336 40.01h-67.96V99.75h49.333v128h40.666v-20.5H778.75V83.69h80.85l25.817 26.727 65 .275.08 95.602H880.75v21.956h217.5z"/>
    <path id="plans15_x5F_1" fill="#E5E5E5" d="M560.75 1.75v75l-49-.333-.334 20.66 47.802.673-1.47 457-533.998-2v-336h154.5l72.743 1-1.576-22h-69.373l1.373-84 66-.667L273.75 85.75l85.356-1.597-.298-45.08S484.148-.876 560.75 1.75"/>
  </g>
  <g id="plans15-main">
    <defs>
      <path id="SVGID_1_" d="M0 0h1787v1291.5H0z"/>
    </defs>
    <clipPath id="SVGID_2_">
      <use xlink:href="#SVGID_1_" overflow="visible"/>
    </clipPath>
    <path clip-path="url(#SVGID_2_)" fill="none" stroke="gray" stroke-width="2.388" stroke-linecap="round" stroke-linejoin="round" stroke-miterlimit="10" d="M524.783 496.336V419.01c.002-7.15 5.796-12.944 12.947-12.944 7.15 0 12.942 5.795 12.942 12.943v77.326h-25.89z"/>
    <path clip-path="url(#SVGID_2_)" fill="gray" d="M537.726 487.923c-1.253 0-2.27 1.017-2.27 2.27s1.016 2.272 2.27 2.272c1.253 0 2.27-1.017 2.27-2.27s-1.017-2.272-2.27-2.272"/>
    <path clip-path="url(#SVGID_2_)" fill="none" stroke="gray" stroke-width="2.298" stroke-linecap="round" stroke-linejoin="round" stroke-miterlimit="10" d="M591.23 497.383v-74.4c0-6.877 5.576-12.453 12.456-12.453 6.878 0 12.452 5.576 12.452 12.454v74.4h-24.91z"/>
    <path clip-path="url(#SVGID_2_)" fill="gray" d="M603.682 489.287c-1.206 0-2.183.98-2.183 2.185 0 1.207.976 2.186 2.182 2.186 1.207 0 2.186-.98 2.186-2.186s-.98-2.185-2.186-2.185"/>
    <path clip-path="url(#SVGID_2_)" fill="none" stroke="gray" stroke-width="2.431" stroke-linecap="round" stroke-linejoin="round" stroke-miterlimit="10" d="M29.048 671.307h78.727c7.277-.002 13.178-5.9 13.178-13.182 0-7.276-5.9-13.174-13.178-13.174l-78.727.002v26.355z"/>
    <path clip-path="url(#SVGID_2_)" fill="gray" d="M35.302 655.817c-1.276 0-2.313 1.037-2.313 2.312 0 1.276 1.036 2.31 2.312 2.31 1.277 0 2.313-1.034 2.313-2.31s-1.036-2.313-2.313-2.313"/>
    <path clip-path="url(#SVGID_2_)" fill="none" stroke="gray" stroke-width="2.349" stroke-linecap="round" stroke-linejoin="round" stroke-miterlimit="10" d="M582.328 709.353h76.07c7.03 0 12.732-5.7 12.732-12.734s-5.7-12.734-12.733-12.734h-76.07v25.467z"/>
    <path clip-path="url(#SVGID_2_)" fill="gray" d="M588.37 694.386c-1.233.002-2.234 1.002-2.234 2.235 0 1.235 1 2.232 2.235 2.232 1.234 0 2.235-.998 2.235-2.23s-1-2.236-2.234-2.236"/>
    <path clip-path="url(#SVGID_2_)" fill="none" stroke="gray" stroke-width="2.292" stroke-linecap="round" stroke-linejoin="round" stroke-miterlimit="10" d="M1005.27 965.175h74.226c6.86 0 12.424-5.562 12.424-12.427 0-6.862-5.563-12.422-12.424-12.422h-74.225v24.85z"/>
    <path clip-path="url(#SVGID_2_)" fill="gray" d="M1011.168 950.57c-1.203.002-2.18.98-2.18 2.182s.977 2.178 2.18 2.178c1.204 0 2.18-.975 2.18-2.178s-.976-2.18-2.18-2.18"/>
    <path clip-path="url(#SVGID_2_)" fill="none" stroke="gray" stroke-width="2.292" stroke-linecap="round" stroke-linejoin="round" stroke-miterlimit="10" d="M1318.45 576.757v-74.225c0-6.86 5.562-12.423 12.428-12.423 6.86 0 12.422 5.56 12.422 12.422v74.225h-24.85z"/>
    <path clip-path="url(#SVGID_2_)" fill="gray" d="M1330.874 568.68c-1.203 0-2.178.976-2.178 2.18 0 1.204.975 2.18 2.178 2.18s2.18-.976 2.18-2.18c0-1.204-.977-2.18-2.18-2.18"/>
    <path clip-path="url(#SVGID_2_)" fill="none" stroke="gray" stroke-width="2.292" stroke-linecap="round" stroke-linejoin="round" stroke-miterlimit="10" d="M1376.563 694.297V620.07c0-6.86 5.562-12.422 12.426-12.422 6.862 0 12.42 5.562 12.42 12.423v74.227h-24.847z"/>
    <path clip-path="url(#SVGID_2_)" fill="gray" d="M1388.984 686.22c-1.203 0-2.178.977-2.178 2.18 0 1.204.975 2.182 2.178 2.182s2.18-.978 2.182-2.18c0-1.206-.978-2.18-2.182-2.18"/>
    <path clip-path="url(#SVGID_2_)" fill="none" stroke="gray" stroke-width="2.063" stroke-linecap="round" stroke-linejoin="round" stroke-miterlimit="10" d="M583.512 789.896h34.427M617.94 789.895v-20.498M617.94 769.397H583.51M583.512 769.397v20.5"/>
    <circle clip-path="url(#SVGID_2_)" fill="none" stroke="gray" stroke-width="2.544" stroke-miterlimit="10" cx="601.011" cy="779.646" r="1.052"/>
    <path clip-path="url(#SVGID_2_)" fill="gray" d="M601.01 774.813c2.667 0 4.835 2.168 4.835 4.834s-2.168 4.834-4.834 4.834c-2.663 0-4.83-2.167-4.83-4.833s2.167-4.834 4.83-4.834m0-2.543c-4.072 0-7.374 3.303-7.374 7.377s3.302 7.378 7.375 7.378c4.077 0 7.38-3.304 7.38-7.378s-3.303-7.377-7.38-7.377"/>
    <path clip-path="url(#SVGID_2_)" fill="none" stroke="gray" stroke-width=".934" stroke-linecap="round" stroke-linejoin="round" stroke-miterlimit="10" d="M1313.436 786.23l9.94-.618m-19.48 2.778l9.54-2.16m-18.683 5.25l9.142-3.09"/>
    <path clip-path="url(#SVGID_2_)" fill="none" stroke="gray" stroke-width="1.869" stroke-linecap="round" stroke-linejoin="round" stroke-miterlimit="10" d="M1294.753 791.48l28.623 38.296"/>
    <path clip-path="url(#SVGID_2_)" fill="none" stroke="gray" stroke-width="1.869" stroke-linejoin="round" stroke-miterlimit="10" d="M1323.37 829.777v5.41M1323.37 781.894l.003 4.08"/>
    <path clip-path="url(#SVGID_2_)" fill="none" stroke="gray" stroke-width=".934" stroke-linecap="round" stroke-linejoin="round" stroke-miterlimit="10" d="M1399.866 726.44l9.94-.618m-19.48 2.778l9.54-2.16m-18.682 5.25l9.142-3.09"/>
    <path clip-path="url(#SVGID_2_)" fill="none" stroke="gray" stroke-width="1.869" stroke-linecap="round" stroke-linejoin="round" stroke-miterlimit="10" d="M1381.184 731.69l28.623 38.297"/>
    <path clip-path="url(#SVGID_2_)" fill="none" stroke="gray" stroke-width="1.869" stroke-linejoin="round" stroke-miterlimit="10" d="M1409.802 769.988v5.41M1409.8 722.104l.004 4.08"/>
    <path clip-path="url(#SVGID_2_)" fill="none" stroke="gray" stroke-width=".863" stroke-linecap="round" stroke-linejoin="round" stroke-miterlimit="10" d="M1217.95 751.05l9.185-.572m-18.002 2.565l8.816-1.994m-17.263 4.85l8.446-2.857"/>
    <path clip-path="url(#SVGID_2_)" fill="none" stroke="gray" stroke-width="1.727" stroke-linecap="round" stroke-linejoin="round" stroke-miterlimit="10" d="M1200.687 755.9l26.448 35.387"/>
    <path clip-path="url(#SVGID_2_)" fill="none" stroke="gray" stroke-width="1.727" stroke-linejoin="round" stroke-miterlimit="10" d="M1227.13 791.287v5.002M1227.13 747.04l.003 3.77"/>
    <path clip-path="url(#SVGID_2_)" fill="none" stroke="gray" stroke-width=".94" stroke-linecap="round" stroke-linejoin="round" stroke-miterlimit="10" d="M1186.496 846.568l.623 10m-2.796-19.596l2.172 9.597m-5.28-18.796l3.108 9.197"/>
    <path clip-path="url(#SVGID_2_)" fill="none" stroke="gray" stroke-width="1.88" stroke-linecap="round" stroke-linejoin="round" stroke-miterlimit="10" d="M1181.215 827.774l-38.524 28.795"/>
    <path clip-path="url(#SVGID_2_)" fill="none" stroke="gray" stroke-width="1.88" stroke-linejoin="round" stroke-miterlimit="10" d="M1142.69 856.566h-5.44M1190.86 856.566h-4.102"/>
    <path clip-path="url(#SVGID_2_)" fill="none" stroke="gray" stroke-width=".787" stroke-linecap="round" stroke-linejoin="round" stroke-miterlimit="10" d="M1129.076 735.155l-8.37.52m16.4-2.337l-8.03 1.817m15.728-4.42l-7.697 2.603"/>
    <path clip-path="url(#SVGID_2_)" fill="none" stroke="gray" stroke-width="1.573" stroke-linecap="round" stroke-linejoin="round" stroke-miterlimit="10" d="M1144.804 730.735l-24.098-32.24"/>
    <path clip-path="url(#SVGID_2_)" fill="none" stroke="gray" stroke-width="1.573" stroke-linejoin="round" stroke-miterlimit="10" d="M1120.71 698.496v-4.555M1120.71 738.807v-3.433"/>
    <path clip-path="url(#SVGID_2_)" fill="none" stroke="gray" stroke-width=".787" stroke-linecap="round" stroke-linejoin="round" stroke-miterlimit="10" d="M1129.076 825.108l-8.37.52m16.4-2.337l-8.03 1.818m15.728-4.42l-7.697 2.603"/>
    <path clip-path="url(#SVGID_2_)" fill="none" stroke="gray" stroke-width="1.573" stroke-linecap="round" stroke-linejoin="round" stroke-miterlimit="10" d="M1144.804 820.688l-24.098-32.24"/>
    <path clip-path="url(#SVGID_2_)" fill="none" stroke="gray" stroke-width="1.573" stroke-linejoin="round" stroke-miterlimit="10" d="M1120.71 788.45v-4.555M1120.71 828.76v-3.433"/>
    <path clip-path="url(#SVGID_2_)" fill="none" stroke="gray" stroke-width=".787" stroke-linecap="round" stroke-linejoin="round" stroke-miterlimit="10" d="M1123.71 875.64l8.37.52m0 0l8.03 1.818m0 0l7.696 2.604"/>
    <path clip-path="url(#SVGID_2_)" fill="none" stroke="gray" stroke-width="1.573" stroke-linecap="round" stroke-linejoin="round" stroke-miterlimit="10" d="M1147.807 880.58l-24.098 32.24"/>
    <path clip-path="url(#SVGID_2_)" fill="none" stroke="gray" stroke-width="1.573" stroke-linejoin="round" stroke-miterlimit="10" d="M1123.712 912.82v4.555M1123.712 872.51v3.432"/>
    <path clip-path="url(#SVGID_2_)" fill="none" stroke="gray" stroke-width=".787" stroke-linecap="round" stroke-linejoin="round" stroke-miterlimit="10" d="M1132.078 1012.873l-8.37.52m16.4-2.337l-8.03 1.817m15.73-4.42l-7.698 2.603"/>
    <path clip-path="url(#SVGID_2_)" fill="none" stroke="gray" stroke-width="1.573" stroke-linecap="round" stroke-linejoin="round" stroke-miterlimit="10" d="M1147.807 1008.453l-24.098-32.24"/>
    <path clip-path="url(#SVGID_2_)" fill="none" stroke="gray" stroke-width="1.573" stroke-linejoin="round" stroke-miterlimit="10" d="M1123.712 976.214v-4.555M1123.712 1016.524v-3.432"/>
    <path clip-path="url(#SVGID_2_)" fill="none" stroke="gray" stroke-width=".787" stroke-linecap="round" stroke-linejoin="round" stroke-miterlimit="10" d="M1114.88 1126.402l8.37-.52m-16.4 2.338l8.03-1.817m-15.73 4.42l7.698-2.604"/>
    <path clip-path="url(#SVGID_2_)" fill="none" stroke="gray" stroke-width="1.573" stroke-linecap="round" stroke-linejoin="round" stroke-miterlimit="10" d="M1099.15 1130.822l24.1 32.24"/>
    <path clip-path="url(#SVGID_2_)" fill="none" stroke="gray" stroke-width="1.573" stroke-linejoin="round" stroke-miterlimit="10" d="M1123.246 1163.062v4.554M1123.246 1122.75v3.434"/>
    <path clip-path="url(#SVGID_2_)" fill="none" stroke="gray" stroke-width=".787" stroke-linecap="round" stroke-linejoin="round" stroke-miterlimit="10" d="M1166.493 1166.03l.52 8.37m-2.337-16.4l1.817 8.03m-4.42-15.728l2.603 7.697"/>
    <path clip-path="url(#SVGID_2_)" fill="none" stroke="gray" stroke-width="1.573" stroke-linecap="round" stroke-linejoin="round" stroke-miterlimit="10" d="M1162.073 1150.302l-32.24 24.097"/>
    <path clip-path="url(#SVGID_2_)" fill="none" stroke="gray" stroke-width="1.573" stroke-linejoin="round" stroke-miterlimit="10" d="M1129.834 1174.396h-4.555M1170.145 1174.396h-3.434"/>
    <path clip-path="url(#SVGID_2_)" fill="none" stroke="gray" stroke-width=".887" stroke-linecap="round" stroke-linejoin="round" stroke-miterlimit="10" d="M1237.326 1114.862l9.437.588m0 0l9.053 2.05m0 0l8.678 2.934"/>
    <path clip-path="url(#SVGID_2_)" fill="none" stroke="gray" stroke-width="1.774" stroke-linecap="round" stroke-linejoin="round" stroke-miterlimit="10" d="M1264.494 1120.434l-27.168 36.346"/>
    <path clip-path="url(#SVGID_2_)" fill="none" stroke="gray" stroke-width="1.774" stroke-linejoin="round" stroke-miterlimit="10" d="M1237.33 1156.78v5.135M1237.33 1111.334v3.87"/>
    <path clip-path="url(#SVGID_2_)" fill="none" stroke="gray" stroke-width=".756" stroke-linecap="round" stroke-linejoin="round" stroke-miterlimit="10" d="M585.613 760.105l-8.042.5m15.76-2.247l-7.716 1.747m15.112-4.246l-7.395 2.498"/>
    <path clip-path="url(#SVGID_2_)" fill="none" stroke="gray" stroke-width="1.512" stroke-linecap="round" stroke-linejoin="round" stroke-miterlimit="10" d="M600.726 755.86l-23.155-30.975"/>
    <path clip-path="url(#SVGID_2_)" fill="none" stroke="gray" stroke-width="1.512" stroke-linejoin="round" stroke-miterlimit="10" d="M577.574 724.885v-4.376M577.574 763.614v-3.3"/>
    <path clip-path="url(#SVGID_2_)" fill="none" stroke="gray" stroke-width=".859" stroke-linecap="round" stroke-linejoin="round" stroke-miterlimit="10" d="M507.98 781.23l-9.138-.568m0 0l-8.766-1.985m0 0l-8.4-2.838"/>
    <path clip-path="url(#SVGID_2_)" fill="none" stroke="gray" stroke-width="1.717" stroke-linecap="round" stroke-linejoin="round" stroke-miterlimit="10" d="M481.675 775.84l26.304-35.188"/>
    <path clip-path="url(#SVGID_2_)" fill="none" stroke="gray" stroke-width="1.717" stroke-linejoin="round" stroke-miterlimit="10" d="M507.976 740.652v-4.97M507.976 784.647V780.9"/>
    <path clip-path="url(#SVGID_2_)" fill="none" stroke="gray" stroke-width=".765" stroke-linecap="round" stroke-linejoin="round" stroke-miterlimit="10" d="M126.903 478.824l8.136-.506m-15.945 2.274l7.808-1.768m-15.29 4.297l7.482-2.528"/>
    <path clip-path="url(#SVGID_2_)" fill="none" stroke="gray" stroke-width="1.529" stroke-linecap="round" stroke-linejoin="round" stroke-miterlimit="10" d="M111.613 483.12l23.426 31.34"/>
    <path clip-path="url(#SVGID_2_)" fill="none" stroke="gray" stroke-width="1.529" stroke-linejoin="round" stroke-miterlimit="10" d="M135.036 514.46v4.427M135.036 475.274v3.338"/>
    <path clip-path="url(#SVGID_2_)" fill="none" stroke="gray" stroke-width=".866" stroke-linecap="round" stroke-linejoin="round" stroke-miterlimit="10" d="M147.12 444.34l.574-9.21m0 0l2-8.836m0 0l2.864-8.47"/>
    <path clip-path="url(#SVGID_2_)" fill="none" stroke="gray" stroke-width="1.731" stroke-linecap="round" stroke-linejoin="round" stroke-miterlimit="10" d="M152.558 417.825l35.474 26.516"/>
    <path clip-path="url(#SVGID_2_)" fill="none" stroke="gray" stroke-width="1.731" stroke-linejoin="round" stroke-miterlimit="10" d="M188.032 444.338h5.01M143.676 444.338h3.778"/>
    <path clip-path="url(#SVGID_2_)" fill="none" stroke="gray" stroke-width=".866" stroke-linecap="round" stroke-linejoin="round" stroke-miterlimit="10" d="M316.195 444.34l.573-9.21m0 0l2-8.836m0 0l2.864-8.47"/>
    <path clip-path="url(#SVGID_2_)" fill="none" stroke="gray" stroke-width="1.731" stroke-linecap="round" stroke-linejoin="round" stroke-miterlimit="10" d="M321.632 417.825l35.474 26.516"/>
    <path clip-path="url(#SVGID_2_)" fill="none" stroke="gray" stroke-width="1.731" stroke-linejoin="round" stroke-miterlimit="10" d="M357.105 444.338h5.012M312.75 444.338h3.778"/>
    <path clip-path="url(#SVGID_2_)" fill="none" stroke="gray" stroke-width=".866" stroke-linecap="round" stroke-linejoin="round" stroke-miterlimit="10" d="M419.765 435.13l.573 9.21m-2.574-18.046l2 8.837m-4.863-17.305l2.864 8.47"/>
    <path clip-path="url(#SVGID_2_)" fill="none" stroke="gray" stroke-width="1.731" stroke-linecap="round" stroke-linejoin="round" stroke-miterlimit="10" d="M414.9 417.825l-35.473 26.516"/>
    <path clip-path="url(#SVGID_2_)" fill="none" stroke="gray" stroke-width="1.731" stroke-linejoin="round" stroke-miterlimit="10" d="M379.427 444.338h-5.01M423.783 444.338h-3.778"/>
    <path clip-path="url(#SVGID_2_)" fill="none" stroke="gray" stroke-width=".866" stroke-linecap="round" stroke-linejoin="round" stroke-miterlimit="10" d="M711.145 451.345l.573-9.21m0 0l2-8.838m0 0l2.863-8.47"/>
    <path clip-path="url(#SVGID_2_)" fill="none" stroke="gray" stroke-width="1.731" stroke-linecap="round" stroke-linejoin="round" stroke-miterlimit="10" d="M716.58 424.83l35.475 26.515"/>
    <path clip-path="url(#SVGID_2_)" fill="none" stroke="gray" stroke-width="1.731" stroke-linejoin="round" stroke-miterlimit="10" d="M752.055 451.34h5.01M703.697 451.34h7.78"/>
    <path clip-path="url(#SVGID_2_)" fill="none" stroke="gray" stroke-width=".866" stroke-linecap="round" stroke-linejoin="round" stroke-miterlimit="10" d="M974.1 442.135l.57 9.21m-2.572-18.047l2 8.837m-4.864-17.306l2.863 8.468"/>
    <path clip-path="url(#SVGID_2_)" fill="none" stroke="gray" stroke-width="1.731" stroke-linecap="round" stroke-linejoin="round" stroke-miterlimit="10" d="M969.234 424.83l-35.472 26.515"/>
    <path clip-path="url(#SVGID_2_)" fill="none" stroke="gray" stroke-width="1.731" stroke-linejoin="round" stroke-miterlimit="10" d="M933.762 451.34h-5.012M982.12 451.34h-7.782"/>
    <path clip-path="url(#SVGID_2_)" fill="none" stroke="gray" stroke-width=".866" stroke-linecap="round" stroke-linejoin="round" stroke-miterlimit="10" d="M1198.45 576.447l-.573 9.21m0 0l-2 8.837m0 0l-2.864 8.47"/>
    <path clip-path="url(#SVGID_2_)" fill="none" stroke="gray" stroke-width="1.731" stroke-linecap="round" stroke-linejoin="round" stroke-miterlimit="10" d="M1193.013 602.962l-35.473-26.516"/>
    <path clip-path="url(#SVGID_2_)" fill="none" stroke="gray" stroke-width="1.731" stroke-linejoin="round" stroke-miterlimit="10" d="M1157.54 576.45h-5.012M1205.897 576.45h-7.78"/>
    <path clip-path="url(#SVGID_2_)" fill="none" stroke="gray" stroke-width=".866" stroke-linecap="round" stroke-linejoin="round" stroke-miterlimit="10" d="M712.805 584.656l-.573-9.21m2.574 18.047l-2-8.837m4.863 17.306l-2.864-8.47"/>
    <path clip-path="url(#SVGID_2_)" fill="none" stroke="gray" stroke-width="1.731" stroke-linecap="round" stroke-linejoin="round" stroke-miterlimit="10" d="M717.67 601.962l35.472-26.516"/>
    <path clip-path="url(#SVGID_2_)" fill="none" stroke="gray" stroke-width="1.731" stroke-linejoin="round" stroke-miterlimit="10" d="M753.142 575.45h5.01M704.784 575.45h7.78"/>
    <path clip-path="url(#SVGID_2_)" fill="none" stroke="gray" stroke-width=".866" stroke-linecap="round" stroke-linejoin="round" stroke-miterlimit="10" d="M1208.376 405.007l.573-9.21m0 0l2-8.837m0 0l2.863-8.47"/>
    <path clip-path="url(#SVGID_2_)" fill="none" stroke="gray" stroke-width="1.731" stroke-linecap="round" stroke-linejoin="round" stroke-miterlimit="10" d="M1213.813 378.492l35.473 26.516"/>
    <path clip-path="url(#SVGID_2_)" fill="none" stroke="gray" stroke-width="1.731" stroke-linejoin="round" stroke-miterlimit="10" d="M1249.286 405.004h5.012M1200.93 405.004h7.78"/>
    <path clip-path="url(#SVGID_2_)" fill="none" stroke="gray" stroke-width=".866" stroke-linecap="round" stroke-linejoin="round" stroke-miterlimit="10" d="M1386.268 405.007l.573-9.21m0 0l2.002-8.837m0 0l2.863-8.47"/>
    <path clip-path="url(#SVGID_2_)" fill="none" stroke="gray" stroke-width="1.731" stroke-linecap="round" stroke-linejoin="round" stroke-miterlimit="10" d="M1391.705 378.492l35.473 26.516"/>
    <path clip-path="url(#SVGID_2_)" fill="none" stroke="gray" stroke-width="1.731" stroke-linejoin="round" stroke-miterlimit="10" d="M1427.178 405.004h5.01M1378.82 405.004h7.782"/>
    <path clip-path="url(#SVGID_2_)" fill="none" stroke="gray" stroke-width=".731" stroke-linecap="round" stroke-linejoin="round" stroke-miterlimit="10" d="M1446.91 425.777l7.775.484m0 0l7.462 1.69m0 0l7.147 2.417"/>
    <path clip-path="url(#SVGID_2_)" fill="none" stroke="gray" stroke-width="1.462" stroke-linecap="round" stroke-linejoin="round" stroke-miterlimit="10" d="M1469.296 430.367l-22.386 29.948"/>
    <path clip-path="url(#SVGID_2_)" fill="none" stroke="gray" stroke-width="1.462" stroke-linejoin="round" stroke-miterlimit="10" d="M1446.913 460.315v4.232M1446.913 419.49v6.57"/>
    <path clip-path="url(#SVGID_2_)" fill="none" stroke="gray" stroke-width=".866" stroke-linecap="round" stroke-linejoin="round" stroke-miterlimit="10" d="M1363.596 478.01l.573-9.21m0 0l2-8.838m0 0l2.863-8.47"/>
    <path clip-path="url(#SVGID_2_)" fill="none" stroke="gray" stroke-width="1.731" stroke-linecap="round" stroke-linejoin="round" stroke-miterlimit="10" d="M1369.033 451.494l35.473 26.516"/>
    <path clip-path="url(#SVGID_2_)" fill="none" stroke="gray" stroke-width="1.731" stroke-linejoin="round" stroke-miterlimit="10" d="M1404.506 478.006h5.012M1356.148 478.006h7.782"/>
    <path clip-path="url(#SVGID_2_)" fill="none" stroke="gray" stroke-width=".866" stroke-linecap="round" stroke-linejoin="round" stroke-miterlimit="10" d="M1287.433 468.8l.572 9.21m-2.573-18.047l2 8.837m-4.864-17.306l2.863 8.47"/>
    <path clip-path="url(#SVGID_2_)" fill="none" stroke="gray" stroke-width="1.731" stroke-linecap="round" stroke-linejoin="round" stroke-miterlimit="10" d="M1282.568 451.494l-35.472 26.516"/>
    <path clip-path="url(#SVGID_2_)" fill="none" stroke="gray" stroke-width="1.731" stroke-linejoin="round" stroke-miterlimit="10" d="M1247.096 478.006h-5.012M1295.453 478.006h-7.78"/>
    <path clip-path="url(#SVGID_2_)" fill="none" stroke="gray" stroke-width=".866" stroke-linecap="round" stroke-linejoin="round" stroke-miterlimit="10" d="M988.832 488.016l9.21.573m0 0l8.837 2m0 0l8.468 2.863"/>
    <path clip-path="url(#SVGID_2_)" fill="none" stroke="gray" stroke-width="1.731" stroke-linecap="round" stroke-linejoin="round" stroke-miterlimit="10" d="M1015.348 493.454l-26.516 35.473"/>
    <path clip-path="url(#SVGID_2_)" fill="none" stroke="gray" stroke-width="1.731" stroke-linejoin="round" stroke-miterlimit="10" d="M988.835 528.926v5.012M988.835 480.57v7.78"/>
    <path clip-path="url(#SVGID_2_)" fill="none" stroke="gray" stroke-width=".866" stroke-linecap="round" stroke-linejoin="round" stroke-miterlimit="10" d="M814.714 442.135l.573 9.21m-2.574-18.047l2 8.837m-4.863-17.306l2.863 8.468"/>
    <path clip-path="url(#SVGID_2_)" fill="none" stroke="gray" stroke-width="1.731" stroke-linecap="round" stroke-linejoin="round" stroke-miterlimit="10" d="M809.85 424.83l-35.474 26.515"/>
    <path clip-path="url(#SVGID_2_)" fill="none" stroke="gray" stroke-width="1.731" stroke-linejoin="round" stroke-miterlimit="10" d="M774.376 451.34h-5.01M818.732 451.34h-3.778"/>
    <path clip-path="url(#SVGID_2_)" fill="none" stroke="gray" stroke-width=".866" stroke-linecap="round" stroke-linejoin="round" stroke-miterlimit="10" d="M433.36 452.908l9.21.573m0 0l8.837 2.002m0 0l8.47 2.863"/>
    <path clip-path="url(#SVGID_2_)" fill="none" stroke="gray" stroke-width="1.731" stroke-linecap="round" stroke-linejoin="round" stroke-miterlimit="10" d="M459.876 458.345L433.36 493.82"/>
    <path clip-path="url(#SVGID_2_)" fill="none" stroke="gray" stroke-width="1.731" stroke-linejoin="round" stroke-miterlimit="10" d="M433.363 493.82v5.01M433.363 449.463v3.778"/>
    <path clip-path="url(#SVGID_2_)" fill="none" stroke="gray" stroke-width=".866" stroke-linecap="round" stroke-linejoin="round" stroke-miterlimit="10" d="M442.57 550.097l-9.21.573m18.047-2.574l-8.837 2m17.306-4.863l-8.47 2.863"/>
    <path clip-path="url(#SVGID_2_)" fill="none" stroke="gray" stroke-width="1.731" stroke-linecap="round" stroke-linejoin="round" stroke-miterlimit="10" d="M459.876 545.233L433.36 509.76"/>
    <path clip-path="url(#SVGID_2_)" fill="none" stroke="gray" stroke-width="1.731" stroke-linejoin="round" stroke-miterlimit="10" d="M433.363 509.76v-5.012M433.363 554.115v-3.778"/>
    <path clip-path="url(#SVGID_2_)" fill="none" stroke="gray" stroke-width="1.007" stroke-linecap="round" stroke-linejoin="round" stroke-miterlimit="10" d="M426.884 571.636l-.667 10.71m0 0l-2.327 10.277m0 0l-3.33 9.848"/>
    <path clip-path="url(#SVGID_2_)" fill="none" stroke="gray" stroke-width="2.013" stroke-linecap="round" stroke-linejoin="round" stroke-miterlimit="10" d="M420.56 602.47l-41.25-30.834"/>
    <path clip-path="url(#SVGID_2_)" fill="none" stroke="gray" stroke-width="2.013" stroke-linejoin="round" stroke-miterlimit="10" d="M379.31 571.64h-5.83M430.89 571.64h-4.393"/>
    <path clip-path="url(#SVGID_2_)" fill="none" stroke="gray" stroke-width="1.007" stroke-linecap="round" stroke-linejoin="round" stroke-miterlimit="10" d="M567.078 652.763l.667 10.71m-2.994-20.987l2.328 10.277m-5.656-20.125l3.33 9.848"/>
    <path clip-path="url(#SVGID_2_)" fill="none" stroke="gray" stroke-width="2.013" stroke-linecap="round" stroke-linejoin="round" stroke-miterlimit="10" d="M561.422 632.638l-41.253 30.835"/>
    <path clip-path="url(#SVGID_2_)" fill="none" stroke="gray" stroke-width="2.013" stroke-linejoin="round" stroke-miterlimit="10" d="M520.17 663.47h-5.83M571.75 663.47h-4.394"/>
    <path clip-path="url(#SVGID_2_)" fill="none" stroke="gray" stroke-width="1.052" stroke-linecap="round" stroke-linejoin="round" stroke-miterlimit="10" d="M565.16 796.418l-.695 11.195m0 0l-2.433 10.743m0 0l-3.48 10.296"/>
    <path clip-path="url(#SVGID_2_)" fill="none" stroke="gray" stroke-width="2.105" stroke-linecap="round" stroke-linejoin="round" stroke-miterlimit="10" d="M558.552 828.652l-43.125-32.234"/>
    <path clip-path="url(#SVGID_2_)" fill="none" stroke="gray" stroke-width="2.105" stroke-linejoin="round" stroke-miterlimit="10" d="M515.428 796.422h-6.093M569.35 796.422h-4.593"/>
    <path clip-path="url(#SVGID_2_)" fill="none" stroke="gray" stroke-width=".866" stroke-linecap="round" stroke-linejoin="round" stroke-miterlimit="10" d="M830.458 869.86l9.21.573m0 0l8.837 2.002m0 0l8.47 2.863"/>
    <path clip-path="url(#SVGID_2_)" fill="none" stroke="gray" stroke-width="1.731" stroke-linecap="round" stroke-linejoin="round" stroke-miterlimit="10" d="M856.974 875.298l-26.516 35.473"/>
    <path clip-path="url(#SVGID_2_)" fill="none" stroke="gray" stroke-width="1.731" stroke-linejoin="round" stroke-miterlimit="10" d="M830.46 910.77v5.012M827.458 866.415l3.002 3.78"/>
    <path clip-path="url(#SVGID_2_)" fill="none" stroke="gray" stroke-width=".866" stroke-linecap="round" stroke-linejoin="round" stroke-miterlimit="10" d="M839.667 967.05l-9.21.572m18.047-2.574l-8.838 2m17.308-4.863l-8.47 2.863"/>
    <path clip-path="url(#SVGID_2_)" fill="none" stroke="gray" stroke-width="1.731" stroke-linecap="round" stroke-linejoin="round" stroke-miterlimit="10" d="M856.974 962.185l-26.516-35.473"/>
    <path clip-path="url(#SVGID_2_)" fill="none" stroke="gray" stroke-width="1.731" stroke-linejoin="round" stroke-miterlimit="10" d="M830.46 926.712V921.7M830.46 971.067v-3.78"/>
    <path clip-path="url(#SVGID_2_)" fill="none" stroke="gray" stroke-width=".866" stroke-linecap="round" stroke-linejoin="round" stroke-miterlimit="10" d="M691.893 455.482l9.21-.573m-18.047 2.573l8.837-2m-17.307 4.863l8.47-2.863"/>
    <path clip-path="url(#SVGID_2_)" fill="none" stroke="gray" stroke-width="1.731" stroke-linecap="round" stroke-linejoin="round" stroke-miterlimit="10" d="M674.586 460.346l26.517 35.474"/>
    <path clip-path="url(#SVGID_2_)" fill="none" stroke="gray" stroke-width="1.731" stroke-linejoin="round" stroke-miterlimit="10" d="M701.1 495.82v5.01M701.1 451.464v3.778"/>
    <path clip-path="url(#SVGID_2_)" fill="none" stroke="gray" stroke-width=".866" stroke-linecap="round" stroke-linejoin="round" stroke-miterlimit="10" d="M702.103 551.67l-9.21-.573m0 0l-8.837-2m0 0l-8.47-2.864"/>
    <path clip-path="url(#SVGID_2_)" fill="none" stroke="gray" stroke-width="1.731" stroke-linecap="round" stroke-linejoin="round" stroke-miterlimit="10" d="M675.587 546.233l26.516-35.474"/>
    <path clip-path="url(#SVGID_2_)" fill="none" stroke="gray" stroke-width="1.731" stroke-linejoin="round" stroke-miterlimit="10" d="M702.1 510.76v-5.01M702.1 555.115v-3.778"/>
    <path clip-path="url(#SVGID_2_)" fill="none" stroke="gray" stroke-width=".927" stroke-linecap="round" stroke-linejoin="round" stroke-miterlimit="10" d="M1302.466 930.49l.74 9.85m-2.996-19.284l2.256 9.436m-5.437-18.464l3.18 9.027"/>
    <path clip-path="url(#SVGID_2_)" fill="none" stroke="gray" stroke-width="1.854" stroke-linecap="round" stroke-linejoin="round" stroke-miterlimit="10" d="M1297.03 912.028l-37.626 28.862"/>
    <path clip-path="url(#SVGID_2_)" fill="none" stroke="gray" stroke-width="1.854" stroke-linejoin="round" stroke-miterlimit="10" d="M1259.4 940.888l-5.365.068M1306.895 940.293l-4.046.055"/>
    <path clip-path="url(#SVGID_2_)" fill="none" stroke="gray" stroke-width=".78" stroke-linecap="round" stroke-linejoin="round" stroke-miterlimit="10" d="M1304.47 708.608l-.622-8.286m2.518 16.225l-1.897-7.938m4.573 15.534l-2.677-7.597"/>
    <path clip-path="url(#SVGID_2_)" fill="none" stroke="gray" stroke-width="1.56" stroke-linecap="round" stroke-linejoin="round" stroke-miterlimit="10" d="M1309.043 724.144l31.653-24.284"/>
    <path clip-path="url(#SVGID_2_)" fill="none" stroke="gray" stroke-width="1.56" stroke-linejoin="round" stroke-miterlimit="10" d="M1340.7 699.862l4.515-.057M1300.745 700.36l3.402-.044"/>
    <path clip-path="url(#SVGID_2_)" fill="none" stroke="gray" stroke-width="1.015" stroke-linecap="round" stroke-linejoin="round" stroke-miterlimit="10" d="M254.116 664.754l-1.084 10.76m0 0l-2.736 10.262m0 0l-3.733 9.792"/>
    <path clip-path="url(#SVGID_2_)" fill="none" stroke="gray" stroke-width="2.029" stroke-linecap="round" stroke-linejoin="round" stroke-miterlimit="10" d="M246.563 695.568l-40.37-32.642"/>
    <path clip-path="url(#SVGID_2_)" fill="none" stroke="gray" stroke-width="2.029" stroke-linejoin="round" stroke-miterlimit="10" d="M206.19 662.928l-5.87-.224M258.15 664.908l-4.425-.17"/>
    <path clip-path="url(#SVGID_2_)" fill="none" stroke="gray" stroke-width=".83" stroke-linecap="round" stroke-linejoin="round" stroke-miterlimit="10" d="M133.5 673.396l-.887-8.804m3.126 17.204l-2.24-8.4m5.294 16.414l-3.055-8.014"/>
    <path clip-path="url(#SVGID_2_)" fill="none" stroke="gray" stroke-width="1.661" stroke-linecap="round" stroke-linejoin="round" stroke-miterlimit="10" d="M138.794 689.81l33.037-26.713"/>
    <path clip-path="url(#SVGID_2_)" fill="none" stroke="gray" stroke-width="1.661" stroke-linejoin="round" stroke-miterlimit="10" d="M171.835 663.098l4.804-.183M129.312 664.718l3.623-.14"/>
    <path clip-path="url(#SVGID_2_)" fill="none" stroke="gray" stroke-width=".83" stroke-linecap="round" stroke-linejoin="round" stroke-miterlimit="10" d="M135.828 627.637l-8.804.888m17.203-3.126l-8.4 2.237m16.414-5.293l-8.013 3.055"/>
    <path clip-path="url(#SVGID_2_)" fill="none" stroke="gray" stroke-width="1.661" stroke-linecap="round" stroke-linejoin="round" stroke-miterlimit="10" d="M152.24 622.344l-26.712-33.037"/>
    <path clip-path="url(#SVGID_2_)" fill="none" stroke="gray" stroke-width="1.661" stroke-linejoin="round" stroke-miterlimit="10" d="M125.53 589.303l-.183-4.804M127.15 631.826l-.14-3.623"/>
    <path clip-path="url(#SVGID_2_)" fill="none" stroke="gray" stroke-width=".983" stroke-linecap="round" stroke-linejoin="round" stroke-miterlimit="10" d="M342.863 607.63l10.422 1.052m0 0l9.942 2.65m0 0l9.486 3.616"/>
    <path clip-path="url(#SVGID_2_)" fill="none" stroke="gray" stroke-width="1.966" stroke-linecap="round" stroke-linejoin="round" stroke-miterlimit="10" d="M372.713 614.947l-31.62 39.106"/>
    <path clip-path="url(#SVGID_2_)" fill="none" stroke="gray" stroke-width="1.966" stroke-linejoin="round" stroke-miterlimit="10" d="M341.095 654.06l-.217 5.684M343.012 603.723l-.164 4.29"/>
    <path clip-path="url(#SVGID_2_)" fill="none" stroke="gray" stroke-width="1.937" stroke-miterlimit="10" d="M757.458 855.48h-8.296l-.158-139.5h8.298z"/>
    <path clip-path="url(#SVGID_2_)" fill="none" stroke="gray" stroke-width="1.982" stroke-miterlimit="10" d="M829.533 716.015H757.3M749.002 716.015h-57.7M829.01 731.494H757.3M749.002 731.494h-57.7M783.12 746.975H757.3M749.002 746.975h-57.7M829.066 731.494L757.3 755.32l.095 7.132 71.137-24.016M749.002 762.452h-57.7M828.532 777.93H758.3M829.066 762.452h-71.233M749.002 777.93h-57.7M828.532 793.406H758.3M749.002 793.406h-57.7M828.532 808.884H758.3M749.002 808.884h-60.7M828.532 824.36H758.3M749.002 824.36h-57.7M828.532 839.837H758.3M749.002 839.837h-57.7M828.532 855.314H758.3M749.002 855.314h-57.7"/>
    <path clip-path="url(#SVGID_2_)" fill="none" stroke="gray" stroke-width=".957" stroke-miterlimit="10" d="M687.82 808.884l29.833 14.208v-140.58h70.758v63.006M747.41 808.884l-29.757 14.208"/>
    <path clip-path="url(#SVGID_2_)" fill="none" stroke="gray" stroke-width="1.982" stroke-miterlimit="10" d="M829.427 746.965H805.26"/>
    <path clip-path="url(#SVGID_2_)" fill="none" stroke="gray" stroke-width=".957" stroke-miterlimit="10" d="M788.41 752.316v102.04"/>
    <path clip-path="url(#SVGID_2_)" fill="none" stroke="gray" stroke-width="2.01" stroke-miterlimit="10" d="M902.195 698.23h41.198v73.69H856.97v-73.69h9.55z"/>
    <path clip-path="url(#SVGID_2_)" fill="none" stroke="gray" stroke-width="2.01" stroke-miterlimit="10" d="M856.97 698.23l86.423 72.684v-71.68l-86.422 72.687M974.58 698.245h-.04v73.693h-22.054v-73.693h9.548z"/>
    <path clip-path="url(#SVGID_2_)" fill="none" stroke="gray" stroke-width="2" stroke-miterlimit="10" d="M1221.203 918.25h-96.953M1221.203 915.098h-96.953M577.75 762.92v33.454M573.75 761.918v33.455M483.724 1065.84H332.75v-87.665M200.22 662.62h-21.97v292.493"/>
    <path clip-path="url(#SVGID_2_)" fill="none" stroke="gray" stroke-width="2" stroke-miterlimit="10" d="M204.255 666.69h-21.97v288.49M135.256 476.52v-32.437M131.123 476.52v-32.437M357.807 81.23h-87.224l-25.53 26h-68.01v88.52"/>
    <path clip-path="url(#SVGID_2_)" fill="none" stroke="gray" stroke-width="2" stroke-miterlimit="10" d="M357.807 84.153h-85.223l-25.53 26h-67.01v86.52M777.377 80.768H861.6l25.53 26h68.01v99.526"/>
    <path clip-path="url(#SVGID_2_)" fill="none" stroke="gray" stroke-width="2" stroke-miterlimit="10" d="M777.377 83.69h82.22l25.532 26h67.01v97.526M1714.712 794.9v87.223l-26 25.53v68.01h-100.964M145.75 444.083H23.25M145.75 440.415H23.25M577.75 723.374v-50.51M573.75 723.374v-50.51M568.75 796.374h105.984M566.75 799.75h107.984M258.168 662.747h70.58M258.168 666.908h70.58M1409.415 602.25v121.5M1412.748 602.25v121.5M1409.415 700.417h-68M1409.415 703.75h-68M1302.082 700.417h-64.832M1301.775 703.75h-64.832M1324.082 833.75v103.33M1319.75 833.75v103.33M1570.75 941.084h-264.002M1570.75 937.75h-264.002M1254.082 941.084h-16.832M1254.082 937.75h-16.832M1587.75 1121.75h103.665v165.668H1589.75M1222.25 1175.084h-51.975M1222.25 1171.25h-51.975M1124.25 1167.084v106.166M1217.428 1171.25h-51.975M1119.428 1167.084v106.166M692.25 1065.748h134M508.082 671.75v63.334M507.082 783.75v171.334M504.417 671.87v63.333M503.417 783.87v171.333"/>
    <g clip-path="url(#SVGID_2_)">
      <defs>
        <path id="SVGID_3_" d="M0 0h1787v1291.5H0z"/>
      </defs>
      <clipPath id="SVGID_4_">
        <use xlink:href="#SVGID_3_" overflow="visible"/>
      </clipPath>
      <path clip-path="url(#SVGID_4_)" fill="none" stroke="gray" stroke-width="2" stroke-miterlimit="10" d="M174.052 977.25v99.167H3.752V977.25"/>
    </g>
    <path clip-path="url(#SVGID_2_)" fill="none" stroke="gray" stroke-width="2" stroke-miterlimit="10" d="M126.75 574.25v12.25M122.942 574.25v12.25M126.75 631.083v51.333H23.25"/>
    <path clip-path="url(#SVGID_2_)" fill="none" stroke="gray" stroke-width="2" stroke-miterlimit="10" d="M122.942 629.392v49.333H22.444M135.256 516.75v36M131.123 516.75v36M200.22 217.75v222.33M189.235 444.083H312.75M189.235 440.415H312.75M357.807 444.083h19.61M353.805 440.75h28.616M374.25 440.75v-223M370.417 441.416v-223M421.417 444.083h12M421.417 441.416h12M433.417 451.083v-50H557.75"/>
    <path clip-path="url(#SVGID_2_)" fill="none" stroke="gray" stroke-width="2" stroke-miterlimit="10" d="M430.75 452.136v-54.002h125.333M557.75 502.416H433.417M433.417 494.416v13.333"/>
    <g clip-path="url(#SVGID_2_)">
      <defs>
        <path id="SVGID_5_" d="M0 0h1787v1291.5H0z"/>
      </defs>
      <clipPath id="SVGID_6_">
        <use xlink:href="#SVGID_5_" overflow="visible"/>
      </clipPath>
      <path clip-path="url(#SVGID_6_)" fill="none" stroke="gray" stroke-width="2" stroke-miterlimit="10" d="M777.75 79.083l-.037-40.01S679.536 1.75 562.15 1.75c-117.392 0-201.363 37.324-201.363 37.324v40.01M760.75 228.25v222.833M764.7 228.25v222.833"/>
      <path clip-path="url(#SVGID_6_)" fill="none" stroke="gray" stroke-width="4.328" stroke-miterlimit="10" d="M754.416 451.083h18.57"/>
      <path clip-path="url(#SVGID_6_)" fill="none" stroke="gray" stroke-width="2" stroke-miterlimit="10" d="M701.417 455.75v-49.333H578.75"/>
      <path clip-path="url(#SVGID_6_)" fill="none" stroke="gray" stroke-width="2" stroke-miterlimit="10" d="M705.42 453.75v-51.333H580.75M701.417 502.416H578.75M701.417 494.416v17.333M818.75 451.083h110V228.25"/>
      <path clip-path="url(#SVGID_6_)" fill="none" stroke="gray" stroke-width="2" stroke-miterlimit="10" d="M816.288 447.655h109V226.823M974.58 452.25h123.67M974.58 448.655h123.67M988.75 452.25v31.5M992.75 453.25v31.5M988.835 530.25l-.085 27.5M992.793 529.205l-.085 27.5M1373.416 228.25v171.83M1369.033 228.25v171.83M1383.416 405.083H1248.75M1383.416 401.25H1248.75M1205.75 405.083h-95M1205.75 401.25h-95M1584.248 207.25l.04-39.03s-94.172-37.323-211.56-37.323c-117.39 0-201.36 37.324-201.36 37.324v39.676M1564.75 405.75h-136.995M1564.75 402.25h-136.995M1446.75 405.75v16M1449.75 405.75v16M1446.75 461.75v121M1449.75 461.75v121M1446.75 477.75h-42M1446.75 473.75h-42M1364.75 477.75h-74.667M1363.75 473.75h-74.668M1306.083 477.75v105M1248.75 477.75h-15.334v80"/>
      <path clip-path="url(#SVGID_6_)" fill="none" stroke="gray" stroke-width="2" stroke-miterlimit="10" d="M1247.884 473.75h-19.337v83.002M1716.25 799.25l31.676-.39s37.324-96.173 37.324-213.56c0-117.392-37.324-199.362-37.324-199.362l-35.676-.188M204.083 219.8v220.33"/>
    </g>
    <path clip-path="url(#SVGID_2_)" fill="none" stroke="gray" stroke-width="1.802" stroke-miterlimit="10" d="M54.94 198.823h83.99v16.146H54.94zM212.25 958.094h83.992v16.146H212.25z"/>
    <path clip-path="url(#SVGID_2_)" fill="none" stroke="gray" stroke-width="1.832" stroke-miterlimit="10" d="M535.785 1048.27h86.764v16.146h-86.765z"/>
    <path clip-path="url(#SVGID_2_)" fill="none" stroke="gray" stroke-width="1.802" stroke-miterlimit="10" d="M994.418 209.677h83.992v16.146h-83.992z"/>
    <path clip-path="url(#SVGID_2_)" fill="none" stroke="gray" stroke-width="1.611" stroke-miterlimit="10" d="M1574.583 1004.636h13.334v81.217h-13.334z"/>
    <path clip-path="url(#SVGID_2_)" fill="none" stroke="gray" stroke-width="1.63" stroke-miterlimit="10" d="M828.086 1153.27h13.334v83.162h-13.334z"/>
    <g clip-path="url(#SVGID_2_)">
      <defs>
        <path id="SVGID_7_" d="M0 0h1787v1291.5H0z"/>
      </defs>
      <clipPath id="SVGID_8_">
        <use xlink:href="#SVGID_7_" overflow="visible"/>
      </clipPath>
      <path clip-path="url(#SVGID_8_)" fill="none" stroke="gray" stroke-width="2" stroke-miterlimit="10" d="M624.75 76.5v20.25h-46v458h128v25h-276v-25h127v-458h-47v-20h50v-75h13v75zM374.25 573.75v-21H23.75v-336h32v-21h-54v781.5h49.5v-22.5h-28v-380.5h307.5v29.5h13v-30z"/>
    </g>
    <path clip-path="url(#SVGID_2_)" fill="none" stroke="gray" stroke-width="2" stroke-miterlimit="10" d="M135.853 955.084h76.397v22.166h-76.166zM295.75 977.25h76.5v-22.166h-34.5V671.75h179.5v-12h-187.5v295.334h-34zM457.75 955.084h51v90.166h27.5v22.5h-52v-93h-26.5zM623.25 1067.75h69v-82.5h37v-14.5h-38v-311h-120.5v13h103v370.5h-50zM845.75 1153.25h-19.5v-168.5h-32.5v-14.5h52v70h134v-119h-145.5v4.5h-7v-16.5h6v4h146.5v-115.5h-145v70h-7v-199h41.5v22.5h-19.5v87.5h130v-88.5h-50v-21.5h192.5v27h-7v-20.5h-116v86h118v-24h5v50h-5v-18.5h-117.5v83h118.5v-25h4v25h16v12h-12.5v10.5h-5v-10.5h-120.5v63h120v-11.5h5v58h-4v-40.5h-121v122h120.5v-38.5h4.5v107h-5v-62.5h-274.5z"/>
    <g clip-path="url(#SVGID_2_)">
      <defs>
        <path id="SVGID_9_" d="M0 0h1787v1291.5H0z"/>
      </defs>
      <clipPath id="SVGID_10_">
        <use xlink:href="#SVGID_9_" overflow="visible"/>
      </clipPath>
      <path clip-path="url(#SVGID_10_)" fill="none" stroke="gray" stroke-width="2" stroke-miterlimit="10" d="M1237.25 746.75h-21.5v-167h-10v-22h31.5v25h456v-48.5h20v50h72v12h-71.5v51.5h-20v-45.5h-456.5z"/>
    </g>
    <path clip-path="url(#SVGID_2_)" fill="none" stroke="gray" stroke-width="2" stroke-miterlimit="10" d="M1716.25 728.75v70.5h-128v20.5h-19.5v-36.5h-249v-9h375.5v-45.5zM1570.75 900.25h19v105h-19zM1589.75 1085.75v67.5h-15v-50h-335.5v9h-19.5v-249h-29.5v-11.5h28v-53.5h19v292.5h336.5v-5z"/>
    <g clip-path="url(#SVGID_2_)">
      <defs>
        <path id="SVGID_11_" d="M0 0h1787v1291.5H0z"/>
      </defs>
      <clipPath id="SVGID_12_">
        <use xlink:href="#SVGID_11_" overflow="visible"/>
      </clipPath>
      <path clip-path="url(#SVGID_12_)" fill="none" stroke="gray" stroke-width="2" stroke-miterlimit="10" d="M1589.75 1237.25v52.5h-763.5v-52.5h20v36h376v-112.5h19v111.5h329.5v-34.5z"/>
    </g>
    <path clip-path="url(#SVGID_2_)" fill="none" stroke="gray" stroke-width="2" stroke-miterlimit="10" d="M1712.25 452.25v-68.5h-126v-176.5h-68v21h46.5v177.5h126.5v46.5zM1322.25 207.25h114.5v21h-114.5zM1241.75 207.25v21h-131v329.5h43v20.5h-395v-20.5h339.5v-329.5h-21v-21zM880.75 207.25h115.334v21H880.75zM799.416 207.25H778.75V79.083h-69.334V99.75h49.334v128.5h40.666zM427.416 79.083h-70v120h-24v18.667h44v-122h50zM140.082 195.75h109.334v22H140.082z"/>
    <path clip-path="url(#SVGID_2_)" fill="none" stroke="gray" stroke-width="1.724" stroke-linecap="round" stroke-linejoin="round" stroke-miterlimit="10" d="M534.936 364.315h.32M535.257 364.315h.324M535.58 364.315l.325-.324M535.905 363.99l.323-.322M536.228 363.668v-.322M536.228 363.346v-.324M536.228 363.022l-.323-.322M535.905 362.7v-.324M535.905 362.376h-.324M535.58 362.376l-.323-.322M535.257 362.054h-.32M534.936 362.054h-.325M534.612 362.054l-.323.323M534.29 362.376l-.326.324M533.965 362.7v.322M533.965 363.022v.325M533.965 363.346v.322M533.965 363.668v.323M533.965 363.99h.324M534.29 363.99v.325M534.29 364.315h.32M534.612 364.315h.324M532.026 372.394v.324M532.026 372.718h.324M532.35 372.718v.324M532.35 373.042l.32.322M532.672 373.364h.323M532.995 373.364h.324M533.32 373.364h14.865M548.185 373.364h.324M548.51 373.364h.322M548.832 373.364l.322-.322M549.154 373.042v-.324M549.154 372.718h.325M549.478 372.718v-.323M549.478 372.394v-18.097M549.478 354.297v-.323M549.478 353.973l-.324-.324M549.154 353.65l-.323-.324M548.832 353.326h-.324M548.51 353.326h-.325M548.185 353.326H533.32M533.32 353.326h-.325M532.995 353.326h-.323M532.672 353.326l-.322.324M532.35 353.65l-.325.323M532.026 353.973v.324M532.026 354.297v18.098M529.117 330.058v46.214M529.117 376.272h23.27M552.387 376.272V330.06M552.387 330.058h-23.27M546.57 332.966v17.452M543.66 332.966v17.452M540.752 332.966v17.452M537.842 332.966v17.452M534.936 332.966v17.452M549.478 350.418v-17.452M532.026 332.966v17.452"/>
    <path clip-path="url(#SVGID_2_)" fill="none" stroke="gray" stroke-width="1.507" stroke-linecap="round" stroke-linejoin="round" stroke-miterlimit="10" d="M544.848 298.64h1.13M545.98 298.64l1.412-.566M547.39 298.073l1.13-.848M548.52 297.226l.565-1.13M549.085 296.097l.565-1.13M549.65 294.966l.282-1.412M549.932 293.554l-.28-1.13M549.65 292.424l-.564-1.413M549.085 291.01l-.564-.846M548.52 290.164l-1.13-.848M547.39 289.316l-1.412-.565M545.98 288.75l-1.13-.28M544.848 288.468l-1.413.282M543.436 288.75l-1.13.565M542.306 289.317l-1.13.847M541.176 290.164l-.848.847M540.33 291.01l-.285 1.414M540.046 292.424l-.283 1.13M539.763 293.554l.283 1.412M540.046 294.966l.283 1.13M540.33 296.097l.847 1.13M541.176 297.226l1.13.848M542.306 298.073l1.13.565M543.436 298.64h1.413M529.594 283.384h1.412M531.006 283.384l1.13-.565M532.137 282.818l1.13-.846M533.267 281.972l.847-.847M534.114 281.125l.282-1.413M534.396 279.712l.284-1.13M534.68 278.582l-.284-1.413M534.396 277.17l-.283-1.13M534.114 276.04l-.847-1.13M533.267 274.91l-1.13-.848M532.137 274.062l-1.13-.565M531.006 273.497h-1.412M529.594 273.497h-1.13M528.464 273.497l-1.413.565M527.05 274.062l-.846.847M526.203 274.91l-.848 1.13M525.355 276.04l-.563 1.13M524.792 277.17l-.284 1.412M524.51 278.582l.282 1.13M524.792 279.712l.563 1.413M525.355 281.125l.85.847M526.205 281.972l.847.847M527.05 282.818l1.414.565M528.464 283.384h1.13M529.594 297.226l.847-.283M530.44 296.943l.85-.282M531.29 296.66l.847-.564M532.137 296.097l.565-.565M532.7 295.532l.284-1.132M532.984 294.4l.283-.847M533.267 293.554l-.284-.847M532.984 292.707l-.283-.85M532.7 291.858l-.564-.848M532.137 291.01l-.848-.564M531.29 290.446l-.85-.282M530.44 290.164h-.846M529.594 290.164h-.848M528.746 290.164l-.848.282M527.898 290.446l-.847.565M527.05 291.01l-.564.85M526.486 291.858l-.28.85M526.205 292.707v.847M526.205 293.554v.847M526.205 294.4l.28 1.132M526.486 295.53l.565.566M527.05 296.097l.848.564M527.898 296.66l.847.283M528.746 296.943l.848.283M544.848 281.972h.848M545.696 281.972l.847-.565M546.543 281.406l.847-.565M547.39 280.84l.566-.564M547.956 280.275l.283-.847M548.238 279.43v-.848M548.238 278.582v-1.13M548.238 277.452l-.283-.847M547.956 276.605l-.565-.566M547.39 276.04l-.847-.567M546.543 275.474l-.847-.564M545.696 274.91h-.848M544.848 274.91H544M544 274.91l-.847.563M543.153 275.474l-.847.566M542.306 276.04l-.566.565M541.742 276.605l-.284.847M541.46 277.452l-.284 1.13M541.176 278.582l.283.847M541.46 279.43l.282.846M541.74 280.275l.566.565M542.306 280.84l.847.566M543.153 281.406l.848.565M544 281.972h.848M521.966 270.955v30.226M521.966 301.18h30.51M552.475 301.18v-30.226M552.475 270.955h-30.51"/>
    <path clip-path="url(#SVGID_2_)" fill="none" stroke="gray" stroke-width="1.793" stroke-linecap="round" stroke-linejoin="round" stroke-miterlimit="10" d="M1379.995 573.364v-.34M1379.995 573.024v-.333M1379.995 572.69l-.334-.338M1379.66 572.352l-.337-.333M1379.323 572.02h-.336M1378.987 572.02h-.336M1378.65 572.02h-.335M1378.315 572.02l-.336.332M1377.98 572.352l-.336.34M1377.644 572.69v.334M1377.644 573.024v.34M1377.644 573.364v.334M1377.644 573.698l.335.333M1377.98 574.03l.335.34M1378.315 574.37h.336M1378.65 574.37h.337M1378.987 574.37h.336M1379.323 574.37l.338-.34M1379.66 574.03l.335-.332M1379.995 573.698v-.334M1389.747 576.384l.334-.333M1390.08 576.05l.338-.333M1390.418 575.717h.337M1390.755 575.717v-.34M1390.755 575.377v-.333M1390.755 575.044v-9.75M1390.755 565.293v-.336M1390.755 564.957l-.337-.337M1390.418 564.62l-.337-.336M1390.08 564.284h-.333M1389.747 564.284h-21.854M1367.894 564.284h-.336M1367.558 564.284h-.336M1367.222 564.284v.336M1367.222 564.62l-.336.337M1366.886 564.957v.336M1366.886 565.293v9.75M1366.886 575.044v.333M1366.886 575.377v.34M1366.886 575.717h.336M1367.222 575.717v.334M1367.222 576.05h.336M1367.558 576.05l.336.334M1367.894 576.384h21.853M1363.86 579.077h29.92M1393.78 579.077V561.26M1393.78 561.26h-29.92M1363.86 561.26v17.817M34.22 590.132h-.336M33.884 590.132h-.336M33.547 590.132v.337M33.547 590.47l-.337.334M33.21 590.804v.337M33.21 591.14v.338M33.21 591.478v.334M33.21 591.812l.338.336M33.547 592.148l.336.337M33.884 592.485h.336M34.22 592.485h.335M34.555 592.485l.337-.337M34.892 592.148h.336M35.23 592.148v-.336M35.23 591.812l.334-.334M35.565 591.478v-.337M35.565 591.14v-.336M35.565 590.804h-.336M35.23 590.804v-.335M35.23 590.47l-.337-.338M34.892 590.132h-.337M34.555 590.132h-.335M43.296 598.537l2.69 1.01M45.986 599.546l3.362.67M49.348 600.217h3.36M52.71 600.217l3.362-.336M56.072 599.88l3.025-.672M59.098 599.208l2.69-1.008M61.787 598.2l2.354-1.345M64.14 596.855l1.682-1.68M65.822 595.175l1.008-2.017M66.83 593.158l.67-2.018M67.502 591.14l-.672-2.017M66.83 589.123l-1.008-1.68M65.822 587.443l-1.682-1.68M64.14 585.762l-2.354-1.345M61.787 584.417l-2.69-1.345M59.098 583.072l-3.025-.673M56.072 582.4l-3.363-.337M52.71 582.063l-3.36.336M49.348 582.4l-3.362.672M45.986 583.072l-2.69 1.01M43.296 584.08v14.457M40.27 582.063v18.153M40.27 600.217v.673M40.27 600.89l-.334 1.008M39.936 601.898l-.673.336M39.263 602.234h6.388M45.65 602.234l3.36 1.008M49.012 603.242h3.697M52.71 603.242l3.7-.336M56.41 602.906l3.697-.672M60.106 602.234l3.025-1.344M63.132 600.89l2.69-1.682M65.822 599.208l2.353-2.017M68.174 597.192l1.344-2.354M69.52 594.838l.67-2.352M70.192 592.485v-2.354M70.192 590.132l-.673-2.688M69.52 587.443l-1.345-2.02M68.174 585.425l-2.353-2.017M65.822 583.408l-2.69-1.68M63.132 581.73l-3.025-1.35M60.106 580.383l-3.698-1.01M56.41 579.373h-3.7M52.71 579.373H49.01M49.012 579.373l-3.362.674M45.65 580.047h-6.387M39.263 580.047l.673.67M39.936 580.718l.335.673M40.27 581.39v.673M28.168 600.217l.336.673M28.505 600.89v1.008M28.505 601.898l.672.336M29.177 602.234l.673.672M29.85 602.906l.67.336M30.52 603.242h.674M31.194 603.242h6.052M37.245 603.242h.672M37.917 603.242l1.01-.336M38.926 602.906l.336-.672M39.263 602.234l.673-.336M39.936 601.898l.335-1.008M40.27 600.89v-.673M40.27 600.217v-18.153M40.27 582.063v-.672M40.27 581.39l-.334-.672M39.936 580.718l-.673-.67M39.263 580.047l-.336-.337M38.926 579.71l-1.01-.337M37.917 579.373h-.672M37.246 579.373h-6.052M31.194 579.373h-.673M30.52 579.373l-.67.337M29.85 579.71l-.673.337M29.177 580.047l-.672.67M28.505 580.718v.673M28.505 581.39l-.336.673M28.168 582.063v18.153M665.296 747.75h-.336M665.633 747.75h-.336M665.633 748.087v-.336M665.97 748.423l-.337-.336M665.97 748.76v-.337M665.97 749.097v-.338M665.97 749.43v-.333M665.633 749.767l.336-.336M665.296 750.104l.336-.337M664.96 750.104h.336M664.625 750.104h.335M664.288 749.767l.337.337M663.952 749.767h.336M663.952 749.43v.337M663.615 749.097l.336.334M663.615 748.76v.337M663.615 748.423v.336M663.952 748.423h-.336M663.952 748.087v.336M664.288 747.75l-.336.337M664.625 747.75h-.337M664.96 747.75h-.335M653.194 757.165l2.69-1.01M649.832 757.835l3.362-.67M646.47 757.835h3.362M643.108 757.5l3.363.335M640.083 756.827l3.024.672M637.394 755.82l2.69 1.007M635.04 754.474l2.354 1.345M633.358 752.794l1.683 1.68M632.35 750.776l1.008 2.017M631.678 748.76l.672 2.016M632.35 746.74l-.67 2.02M633.358 745.062l-1.007 1.68M635.04 743.38l-1.682 1.682M637.394 742.036l-2.354 1.344M640.083 740.69l-2.69 1.346M643.108 740.02l-3.025.67M646.47 739.683l-3.363.336M649.832 740.02l-3.36-.337M653.194 740.69l-3.362-.67M655.884 741.7l-2.69-1.01M655.884 756.155V741.7M658.91 757.835v-18.152M658.91 758.51v-.675M659.245 759.517l-.335-1.008M659.917 759.853l-.672-.336M653.53 759.853h6.387M650.168 760.86l3.362-1.007M646.47 760.86h3.7M642.77 760.524l3.7.336M639.074 759.853l3.697.67M636.048 758.51l3.025 1.343M633.358 756.827l2.69 1.682M631.006 754.81l2.353 2.017M629.662 752.456l1.344 2.356M628.988 750.104l.673 2.353M628.988 747.75v2.355M629.662 745.062l-.673 2.69M631.006 743.044l-1.344 2.018M633.358 741.026l-2.353 2.017M636.048 739.347l-2.69 1.68M639.074 738l-3.025 1.347M642.77 736.99l-3.697 1.01M646.47 736.99h-3.7M650.168 736.99h-3.697M653.53 737.665l-3.36-.674M659.917 737.665h-6.388M659.245 738.337l.672-.672M658.91 739.01l.335-.673M658.91 739.683v-.674M670.675 758.51l.336-.675M670.675 759.517v-1.008M670.003 759.853l.672-.336M669.33 760.524l.673-.67M668.66 760.86l.67-.336M667.986 760.86h.673M661.934 760.86h6.052M661.263 760.86h.673M660.254 760.524l1.01.336M659.917 759.853l.336.67M659.245 759.517l.672.336M658.91 758.51l.335 1.007M658.91 757.835v.674M658.91 739.683v18.152M658.91 739.01v.673M659.245 738.337l-.335.672M659.917 737.665l-.672.672M660.254 737.33l-.336.335M661.263 736.99l-1.01.34M661.936 736.99h-.673M667.986 736.99h-6.052M668.66 736.99h-.674M669.33 737.33l-.67-.34M670.003 737.665l-.672-.336M670.675 738.337l-.672-.672M670.675 739.01v-.673M671.012 739.683l-.336-.674M671.012 757.835v-18.152M1012.625 889.51h-.336M1012.29 889.51h-.338M1011.952 889.51v.337M1011.952 889.847l-.337.336M1011.615 890.183v.336M1011.615 890.52v.336M1011.615 890.856v.334M1011.615 891.19l.337.336M1011.952 891.526l.337.338M1012.29 891.864h.335M1012.625 891.864h.335M1012.96 891.864l.337-.338M1013.297 891.526h.336M1013.633 891.526v-.336M1013.633 891.19l.337-.334M1013.97 890.856v-.337M1013.97 890.52v-.337M1013.97 890.183h-.337M1013.633 890.183v-.336M1013.633 889.847l-.336-.336M1013.297 889.51h-.337M1012.96 889.51h-.335M1021.7 897.915l2.69 1.01M1024.39 898.925l3.363.67M1027.753 899.595h3.36M1031.114 899.595l3.363-.336M1034.477 899.26l3.025-.673M1037.502 898.587l2.69-1.008M1040.19 897.58l2.355-1.347M1042.545 896.233l1.682-1.68M1044.227 894.554l1.007-2.018M1045.234 892.536l.672-2.017M1045.906 890.52l-.672-2.02M1045.234 888.5l-1.007-1.68M1044.227 886.82l-1.682-1.68M1042.545 885.14l-2.354-1.344M1040.19 883.796l-2.688-1.346M1037.502 882.45l-3.025-.672M1034.477 881.778l-3.363-.336M1031.114 881.442l-3.36.336M1027.753 881.778l-3.362.672M1024.39 882.45l-2.69 1.01M1021.7 883.46v14.455M1018.676 881.442v18.153M1018.676 899.595v.674M1018.676 900.27l-.336 1.006M1018.34 901.276l-.672.336M1017.668 901.612h6.388M1024.055 901.612l3.36 1.008M1027.416 902.62h3.698M1031.114 902.62l3.7-.336M1034.813 902.284l3.7-.672M1038.512 901.612l3.025-1.343M1041.537 900.27l2.69-1.683M1044.227 898.587l2.352-2.018M1046.58 896.57l1.344-2.353M1047.924 894.216l.673-2.352M1048.597 891.864v-2.353M1048.597 889.51l-.673-2.69M1047.924 886.82l-1.345-2.016M1046.58 884.804l-2.353-2.018M1044.227 882.786l-2.69-1.68M1041.537 881.106l-3.025-1.345M1038.512 879.76l-3.7-1.01M1034.813 878.75h-3.7M1031.114 878.75h-3.698M1027.416 878.75l-3.36.675M1024.056 879.425h-6.388M1017.668 879.425l.672.672M1018.34 880.097l.336.672M1018.676 880.77v.672M1006.573 899.595l.337.674M1006.91 900.27v1.006M1006.91 901.276l.672.336M1007.582 901.612l.672.672M1008.254 902.284l.672.336M1008.926 902.62h.674M1009.6 902.62h6.05M1015.65 902.62h.672M1016.322 902.62l1.01-.336M1017.33 902.284l.338-.672M1017.668 901.612l.672-.336M1018.34 901.276l.336-1.007M1018.676 900.27v-.675M1018.676 899.595v-18.153M1018.676 881.442v-.673M1018.676 880.77l-.336-.673M1018.34 880.097l-.672-.672M1017.668 879.425l-.337-.336M1017.33 879.09l-1.008-.34M1016.322 878.75h-.673M1015.65 878.75h-6.05M1009.6 878.75h-.674M1008.926 878.75l-.672.34M1008.254 879.09l-.672.335M1007.582 879.425l-.672.672M1006.91 880.097v.672M1006.91 880.77l-.337.672M1006.573 881.442v18.153M1254.12 613.09v-.337M1254.12 612.753v-.337M1254.12 612.416h-.337M1253.783 612.416l-.334-.337M1253.45 612.08h-.34M1253.11 612.08h-.335M1252.775 612.08h-.334M1252.44 612.08l-.336.336M1252.104 612.416l-.336.337M1251.768 612.753v.336M1251.768 613.09v.334M1251.768 613.424l.336.337M1252.104 613.76v.337M1252.104 614.097h.337M1252.44 614.097l.335.337M1252.775 614.434h.336M1253.11 614.434h.34M1253.45 614.434v-.337M1253.45 614.097h.333M1253.783 614.097l.338-.336M1254.12 613.76v-.336M1254.12 613.424v-.335M1245.715 622.165l-1.008 2.69M1244.707 624.854l-.672 3.363M1244.035 628.217v3.36M1244.035 631.578l.336 3.362M1244.37 634.94l.675 3.025M1245.045 637.966l1.008 2.69M1246.053 640.655l1.343 2.354M1247.396 643.01l1.682 1.68M1249.078 644.69l2.016 1.008M1251.094 645.698l2.017.672M1253.11 646.37l2.02-.672M1255.13 645.698l1.68-1.008M1256.81 644.69l1.68-1.682M1258.49 643.01l1.346-2.355M1259.836 640.655l1.344-2.69M1261.18 637.966l.674-3.025M1261.854 634.94l.335-3.36M1262.19 631.578l-.336-3.36M1261.854 628.217l-.674-3.362M1261.18 624.854l-1.008-2.69M1260.172 622.165h-14.457M1262.19 619.14h-18.155M1244.035 619.14h-.672M1243.363 619.14l-1.01-.336M1242.354 618.804l-.336-.672M1242.018 618.132v6.388M1242.018 624.52l-1.008 3.36M1241.01 627.88v3.698M1241.01 631.578l.336 3.7M1241.346 635.277l.672 3.7M1242.018 638.976l1.345 3.024M1243.363 642l1.682 2.69M1245.045 644.69l2.016 2.353M1247.06 647.043l2.354 1.345M1249.414 648.388l2.354.673M1251.768 649.06h2.353M1254.12 649.06l2.69-.672M1256.81 648.388l2.018-1.345M1258.828 647.043l2.016-2.353M1260.844 644.69l1.68-2.69M1262.523 642l1.348-3.024M1263.87 638.976l1.01-3.7M1264.88 635.277v-3.7M1264.88 631.578v-3.698M1264.88 627.88l-.675-3.36M1264.205 624.52v-6.39M1264.205 618.132l-.67.672M1263.535 618.804l-.674.336M1262.86 619.14h-.67M1244.035 607.037l-.672.337M1243.363 607.374h-1.01M1242.354 607.374l-.336.672M1242.018 608.046l-.672.672M1241.346 608.718l-.336.672M1241.01 609.39v.673M1241.01 610.063v6.05M1241.01 616.113v.673M1241.01 616.786l.336 1.01M1241.346 617.795l.672.337M1242.018 618.132l.336.672M1242.354 618.804l1.01.336M1243.363 619.14h.672M1244.035 619.14h18.154M1262.19 619.14h.67M1262.86 619.14l.675-.336M1263.535 618.804l.67-.672M1264.205 618.132l.338-.337M1264.543 617.795l.336-1.01M1264.88 616.786v-.673M1264.88 616.114v-6.05M1264.88 610.063v-.673M1264.88 609.39l-.337-.672M1264.543 608.718l-.338-.672M1264.205 608.046l-.67-.672M1263.535 607.374h-.674M1262.86 607.374l-.67-.337M1262.19 607.037h-18.155M1272.387 569.833v.336M1272.387 570.17v.336M1272.387 570.506h-.338M1272.05 570.506l-.335.337M1271.715 570.843h-.338M1271.377 570.843h-.336M1271.04 570.843h-.333M1270.707 570.843l-.338-.337M1270.37 570.506l-.337-.337M1270.033 570.17v-.337M1270.033 569.833v-.335M1270.033 569.498l.336-.337M1270.37 569.16v-.335M1270.37 568.825h.337M1270.707 568.825l.334-.337M1271.04 568.488h.337M1271.377 568.488h.338M1271.715 568.488v.337M1271.715 568.825h.334M1272.05 568.825l.337.336M1272.387 569.16v.338M1272.387 569.498v.335M1263.98 560.757l-1.007-2.69M1262.973 558.067l-.672-3.36M1262.3 554.705v-3.36M1262.3 551.344l.337-3.362M1262.637 547.98l.674-3.023M1263.31 544.956l1.008-2.69M1264.318 542.267l1.344-2.354M1265.662 539.913l1.682-1.682M1267.344 538.23l2.015-1.006M1269.36 537.224l2.017-.672M1271.377 536.552l2.018.672M1273.395 537.224l1.68 1.007M1275.074 538.23l1.682 1.684M1276.756 539.913l1.346 2.354M1278.102 542.267l1.343 2.69M1279.445 544.956l.674 3.025M1280.12 547.98l.335 3.363M1280.455 551.344l-.336 3.36M1280.12 554.705l-.675 3.362M1279.445 558.067l-1.007 2.69M1278.438 560.757h-14.458M1280.455 563.782H1262.3M1262.3 563.782h-.67M1261.63 563.782l-1.01.336M1260.62 564.118l-.337.672M1260.283 564.79v-6.388M1260.283 558.403l-1.008-3.36M1259.275 555.042v-3.698M1259.275 551.344l.336-3.7M1259.61 547.645l.673-3.7M1260.283 543.946l1.346-3.025M1261.63 540.92l1.68-2.69M1263.31 538.23l2.016-2.35M1265.326 535.88l2.354-1.346M1267.68 534.534l2.353-.673M1270.033 533.86h2.354M1272.387 533.86l2.687.674M1275.074 534.534l2.02 1.345M1277.094 535.88l2.015 2.35M1279.11 538.23l1.68 2.69M1280.79 540.92l1.347 3.026M1282.135 543.946l1.01 3.7M1283.145 547.645v3.7M1283.145 551.344v3.698M1283.145 555.042l-.674 3.36M1282.47 558.402v6.388M1282.47 564.79l-.67-.672M1281.8 564.118l-.673-.336M1281.127 563.782h-.672M1262.3 575.885l-.67-.337M1261.63 575.548h-1.01M1260.62 575.548l-.337-.672M1260.283 574.876l-.672-.672M1259.61 574.204l-.335-.672M1259.275 573.532v-.674M1259.275 572.858v-6.05M1259.275 566.81v-.674M1259.275 566.136l.336-1.01M1259.61 565.127l.673-.337M1260.283 564.79l.336-.672M1260.62 564.118l1.01-.336M1261.63 563.782h.67M1262.3 563.782h18.155M1280.455 563.782h.672M1281.127 563.782l.674.336M1281.8 564.118l.67.672M1282.47 564.79l.34.337M1282.81 565.127l.335 1.01M1283.145 566.136v.673M1283.145 566.808v6.05M1283.145 572.858v.674M1283.145 573.532l-.336.672M1282.81 574.204l-.34.672M1282.47 574.876l-.67.672M1281.8 575.548h-.673M1281.127 575.548l-.672.337M1280.455 575.885H1262.3M544.13 530.223h.337M544.467 530.224h.337M544.804 530.224l-.002-.34M544.802 529.884l.338-.332M545.14 529.553v-.34M545.14 529.213v-.335M545.14 528.878v-.334M545.14 528.544l-.337-.338M544.803 528.206l-.337-.336M544.466 527.87h-.336M544.13 527.87h-.334M543.796 527.87l-.337.337M543.46 528.207h-.337M543.123 528.207v.336M543.122 528.544l-.336.333M542.786 528.877l-.002.337M542.784 529.214v.337M542.785 529.55h.337M543.122 529.55v.336M543.123 529.886l.335.338M543.458 530.225h.337M543.795 530.224h.335M535.055 521.818l-2.69-1.01M532.364 520.81l-3.36-.672M529.003 520.138h-3.36M525.642 520.138l-3.364.336M522.278 520.474l-3.024.673M519.254 521.148l-2.69 1.008M516.563 522.156l-2.354 1.34M514.21 523.498l-1.682 1.684M512.528 525.182l-1.007 2.014M511.52 527.196l-.67 2.017M510.85 529.213l.67 2.018M511.52 531.23l1.008 1.682M512.528 532.91l1.682 1.684M514.21 534.594l2.353 1.345M516.563 535.938l2.69 1.343M519.253 537.282l3.025.673M522.278 537.955l3.362.335M525.64 538.29l3.36-.334M529.002 537.956l3.362-.673M532.364 537.282l2.69-1.007M535.055 536.275v-14.457M538.08 538.29V520.14M538.08 520.138v-.67M538.08 519.466l.336-1.01M538.416 518.456l.672-.335M539.088 518.12H532.7M532.7 518.12l-3.362-1.01M529.338 517.11h-3.696M525.642 517.11l-3.7.34M521.94 517.45l-3.697.67M518.243 518.12l-3.025 1.346M515.218 519.466l-2.69 1.68M512.528 521.147l-2.352 2.016M510.176 523.163l-1.345 2.353M508.83 525.516l-.67 2.355M508.16 527.87l-.003 2.353M508.157 530.224l.674 2.688M508.83 532.912l1.347 2.018M510.177 534.93l2.35 2.016M512.528 536.945l2.69 1.68M515.218 538.626l3.025 1.347M518.244 539.97l3.698 1.01M521.942 540.98h3.7M525.64 540.98h3.7M529.34 540.98l3.36-.67M532.698 540.308h6.39M539.087 540.307l-.672-.668M538.415 539.64l-.336-.674M538.08 538.965v-.673M550.183 520.138l-.338-.672M549.845 519.466v-1.01M549.846 518.456l-.672-.335M549.174 518.12l-.672-.67M548.502 517.45l-.673-.338M547.83 517.11h-.675M547.155 517.11l-6.05.002M541.106 517.11h-.672M540.434 517.112l-1.01.336M539.424 517.448l-.336.673M539.088 518.12l-.672.336M538.416 518.456l-.336 1.01M538.08 519.466v.67M538.08 520.138v18.153M538.08 538.29v.675M538.08 538.965l.335.673M538.415 539.64l.672.667M539.087 540.307l.338.337M539.425 540.645l1.008.336M540.433 540.98h.673M541.104 540.98h6.05M547.155 540.98h.674M547.83 540.98l.672-.334M548.502 540.646l.672-.337M549.174 540.31l.67-.672M549.845 539.638v-.674M549.846 538.964l.336-.672M550.182 538.292V520.14M593.175 530.373l-.336.002M592.838 530.375h-.337M592.5 530.375l.002-.34M592.502 530.035l-.337-.332M592.165 529.703v-.34M592.165 529.363v-.336M592.165 529.027v-.334M592.165 528.693l.337-.338M592.502 528.355l.337-.336M592.84 528.02h.334M593.174 528.02h.335M593.51 528.02l.336.337M593.846 528.357h.336M594.182 528.357v.336M594.183 528.693l.337.334M594.52 529.027v.336M594.52 529.363v.338M594.52 529.7h-.337M594.183 529.7v.337M594.182 530.037l-.336.338M593.846 530.375h-.337M593.51 530.375l-.335-.002M602.25 521.968l2.69-1.01M604.94 520.958l3.362-.67M608.302 520.29h3.36M611.664 520.29l3.362.333M615.026 520.623l3.025.676M618.05 521.298l2.69 1.008M620.74 522.306l2.355 1.342M623.095 523.648l1.68 1.684M624.776 525.332l1.008 2.014M625.784 527.345l.672 2.018M626.457 529.363l-.673 2.018M625.784 531.38l-1.008 1.68M624.776 533.06l-1.682 1.684M623.094 534.744l-2.353 1.344M620.74 536.087l-2.688 1.345M618.052 537.43l-3.025.675M615.027 538.105l-3.362.336M611.665 538.44l-3.362-.335M608.303 538.105l-3.363-.674M604.94 537.43l-2.69-1.005M602.25 536.425v-14.457M599.226 538.44v-18.153M599.226 520.287v-.67M599.225 519.617l-.336-1.013M598.89 518.605l-.672-.334M598.217 518.27h6.388M604.604 518.27l3.362-1.01M607.966 517.26h3.698M611.665 517.26l3.698.34M615.363 517.6l3.7.67M619.062 518.27l3.024 1.345M622.087 519.615l2.69 1.682M624.776 521.296l2.353 2.017M627.13 523.312l1.344 2.354M628.474 525.666l.672 2.355M629.146 528.02v2.353M629.146 530.373l-.67 2.69M628.474 533.062l-1.345 2.018M627.13 535.08l-2.354 2.016M624.776 537.095l-2.69 1.682M622.087 538.777l-3.025 1.346M619.06 540.12l-3.697 1.013M615.363 541.132l-3.7-.002M611.664 541.13l-3.7.002M607.965 541.132l-3.36-.674M604.605 540.457h-6.387M598.218 540.457l.67-.668M598.89 539.79l.335-.675M599.225 539.115v-.674M587.122 520.29l.337-.673M587.46 519.617v-1.013M587.46 518.605l.67-.334M588.13 518.27l.673-.67M588.803 517.6l.672-.34M589.475 517.26h.674M590.15 517.26h6.05M596.2 517.26h.672M596.872 517.26l1.01.337M597.88 517.597l.337.674M598.217 518.27l.67.335M598.89 518.605l.335 1.012M599.225 519.617v.67M599.226 520.287v18.153M599.226 538.44v.675M599.225 539.115l-.336.674M598.89 539.79l-.672.667M598.218 540.457l-.337.337M597.88 540.794l-1.008.336M596.872 541.13l-.673.002M596.2 541.13h-6.05M590.15 541.13h-.674M589.476 541.13l-.672-.334M588.803 540.796l-.672-.338M588.13 540.458l-.67-.67M587.46 539.79v-.675M587.46 539.115l-.336-.674M587.123 538.44v-18.15"/>
    <path clip-path="url(#SVGID_2_)" fill="none" stroke="gray" stroke-width="1.724" stroke-linecap="round" stroke-linejoin="round" stroke-miterlimit="10" d="M45.348 749.037h-.32M45.026 749.037h-.322M44.703 749.037l-.324.322M44.38 749.36l-.324.324M44.056 749.684v.322M44.056 750.006v.322M44.056 750.328l.323.324M44.38 750.652v.323M44.38 750.975h.323M44.703 750.975l.323.322M45.026 751.297h.32M45.348 751.297h.324M45.672 751.297l.323-.322M45.995 750.975l.323-.323M46.318 750.652v-.324M46.318 750.328v-.322M46.318 750.006v-.322M46.318 749.684v-.325M46.318 749.36h-.322M45.995 749.36v-.323M45.995 749.037h-.323M45.672 749.037h-.324M48.258 740.957v-.324M48.258 740.633h-.324M47.934 740.633v-.324M47.934 740.31l-.322-.322M47.61 739.988h-.32M47.29 739.988h-.325M46.965 739.988H32.1M32.1 739.988h-.325M31.775 739.988h-.322M31.452 739.988l-.323.32M31.13 740.31v.323M31.13 740.633h-.324M30.806 740.633v.324M30.806 740.957v18.098M30.806 759.055v.324M30.806 759.38l.323.32M31.13 759.7l.322.325M31.452 760.025h.323M31.775 760.025h.324M32.1 760.025h14.864M46.965 760.025h.324M47.29 760.025h.32M47.61 760.025l.323-.324M47.934 759.7l.324-.32M48.258 759.38v-.325M48.258 759.055v-18.098M51.166 783.293v-46.215M51.166 737.078h-23.27M27.896 737.078v46.215M27.896 783.293h23.27M33.714 780.385v-17.45M36.623 780.385v-17.45M39.53 780.385v-17.45M42.44 780.385v-17.45M45.348 780.385v-17.45M30.806 762.934v17.45M48.258 780.385v-17.45"/>
    <path clip-path="url(#SVGID_2_)" fill="none" stroke="gray" stroke-width="1.507" stroke-linecap="round" stroke-linejoin="round" stroke-miterlimit="10" d="M51.07 834.43h1.13M52.2 834.43l1.413-.565M53.612 833.865l1.13-.847M54.742 833.018l.564-1.13M55.307 831.89l.566-1.132M55.872 830.758l.28-1.412M56.153 829.346l-.28-1.13M55.872 828.215l-.566-1.412M55.307 826.803l-.564-.848M54.742 825.955l-1.13-.848M53.612 825.107l-1.413-.566M52.2 824.54l-1.13-.28M51.07 824.26l-1.414.28M49.657 824.54l-1.13.567M48.527 825.107l-1.13.848M47.397 825.955l-.848.848M46.55 826.803l-.283 1.412M46.267 828.215l-.283 1.13M45.984 829.346l.284 1.412M46.267 830.758l.283 1.13M46.55 831.89l.848 1.128M47.397 833.018l1.13.847M48.527 833.865l1.13.565M49.657 834.43h1.413M35.815 819.176h1.412M37.227 819.176l1.13-.567M38.358 818.61l1.13-.846M39.488 817.764l.847-.848M40.335 816.916l.283-1.412M40.618 815.504l.283-1.13M40.9 814.373l-.283-1.412M40.618 812.96l-.284-1.13M40.335 811.83l-.847-1.13M39.488 810.7l-1.13-.846M38.358 809.854l-1.13-.567M37.227 809.287h-1.412M35.815 809.287h-1.13M34.685 809.287l-1.413.567M33.272 809.854l-.847.847M32.424 810.7l-.848 1.13M31.577 811.83l-.564 1.13M31.013 812.96l-.284 1.413M30.73 814.373l.283 1.13M31.013 815.504l.564 1.412M31.577 816.916l.848.848M32.426 817.764l.847.845M33.272 818.61l1.414.566M34.685 819.176h1.13M35.815 833.018l.847-.284M36.662 832.734l.848-.283M37.51 832.45l.848-.56M38.358 831.89l.564-.568M38.922 831.324l.284-1.133M39.205 830.19l.283-.844M39.488 829.346l-.283-.848M39.205 828.498l-.283-.848M38.922 827.65l-.564-.847M38.358 826.803l-.848-.567M37.51 826.236l-.848-.28M36.662 825.955h-.847M35.815 825.955h-.848M34.967 825.955l-.847.28M34.12 826.236l-.848.567M33.272 826.803l-.564.847M32.707 827.65l-.28.848M32.426 828.498v.848M32.426 829.346v.845M32.426 830.19l.28 1.134M32.707 831.322l.565.567M33.272 831.89l.848.56M34.12 832.45l.847.284M34.967 832.734l.848.284M51.07 817.764h.847M51.917 817.764l.847-.567M52.764 817.197l.847-.564M53.612 816.633l.565-.567M54.177 816.066l.283-.845M54.46 815.22v-.847M54.46 814.373v-1.13M54.46 813.244l-.284-.848M54.177 812.396l-.565-.566M53.61 811.83l-.846-.564M52.764 811.266l-.847-.565M51.917 810.7h-.848M51.07 810.7h-.848M50.222 810.7l-.848.566M49.374 811.266l-.847.565M48.527 811.83l-.566.566M47.963 812.396l-.283.848M47.68 813.244l-.283 1.13M47.397 814.373l.284.848M47.68 815.22l.283.846M47.96 816.066l.567.567M48.527 816.633l.848.564M49.374 817.197l.848.567M50.222 817.764h.847M28.188 806.746v30.225M28.188 836.97h30.508M58.696 836.97v-30.224M58.696 806.746H28.188"/>
    <path clip-path="url(#SVGID_2_)" fill="none" stroke="gray" stroke-width="1.724" stroke-linecap="round" stroke-linejoin="round" stroke-miterlimit="10" d="M660.96 856.566h-.32M660.64 856.566h-.324M660.316 856.566l-.324.323M659.992 856.89l-.323.323M659.67 857.213v.322M659.67 857.535v.322M659.67 857.857l.322.325M659.992 858.182v.322M659.992 858.504h.324M660.316 858.504l.324.322M660.64 858.826h.32M660.96 858.826h.325M661.285 858.826l.323-.322M661.608 858.504l.324-.322M661.932 858.182v-.325M661.932 857.857v-.322M661.932 857.535v-.322M661.932 857.213v-.324M661.932 856.89h-.324M661.608 856.89v-.324M661.608 856.566h-.323M661.285 856.566h-.324M663.87 848.486v-.324M663.87 848.162h-.323M663.547 848.162v-.324M663.547 847.838l-.322-.32M663.225 847.518h-.323M662.902 847.518h-.324M662.578 847.518h-14.866M647.712 847.518h-.323M647.39 847.518h-.325M647.065 847.518l-.323.32M646.742 847.838v.324M646.742 848.162h-.323M646.42 848.162v.324M646.42 848.486v18.098M646.42 866.584v.324M646.42 866.908l.322.322M646.742 867.23l.323.325M647.065 867.555h.324M647.39 867.555h.322M647.712 867.555h14.866M662.578 867.555h.324M662.902 867.555h.322M663.225 867.555l.32-.325M663.547 867.23l.324-.322M663.87 866.908v-.324M663.87 866.584v-18.098M666.78 890.822v-46.215M666.78 844.607h-23.27M643.51 844.607v46.215M643.51 890.822h23.27M649.327 887.914v-17.45M652.236 887.914v-17.45M655.145 887.914v-17.45M658.055 887.914v-17.45M660.96 887.914v-17.45M646.42 870.463v17.45M663.87 887.914v-17.45"/>
    <path clip-path="url(#SVGID_2_)" fill="none" stroke="gray" stroke-width="1.507" stroke-linecap="round" stroke-linejoin="round" stroke-miterlimit="10" d="M659.68 963.973h1.13M660.81 963.973l1.413-.565M662.222 963.408l1.13-.847M663.352 962.56l.564-1.128M663.917 961.432l.564-1.13M664.482 960.3l.28-1.41M664.763 958.89l-.28-1.132M664.482 957.758l-.565-1.412M663.917 956.346l-.564-.848M663.352 955.498l-1.13-.848M662.222 954.65l-1.413-.566M660.81 954.084l-1.13-.28M659.68 953.803l-1.414.28M658.267 954.084l-1.13.566M657.137 954.65l-1.13.848M656.007 955.498l-.848.848M655.16 956.346l-.283 1.412M654.877 957.758l-.283 1.13M654.594 958.89l.283 1.41M654.877 960.3l.283 1.132M655.16 961.432l.848 1.13M656.007 962.56l1.13.848M657.137 963.408l1.13.565M658.267 963.973h1.413M644.425 948.72h1.412M645.837 948.72l1.13-.568M646.968 948.152l1.13-.845M648.098 947.307l.847-.848M648.945 946.46l.283-1.413M649.228 945.047l.282-1.13M649.51 943.916l-.282-1.412M649.228 942.504l-.284-1.13M648.945 941.373l-.847-1.13M648.098 940.244l-1.13-.848M646.968 939.396l-1.13-.566M645.837 938.83h-1.412M644.425 938.83h-1.13M643.295 938.83l-1.413.566M641.882 939.396l-.847.848M641.034 940.244l-.848 1.13M640.187 941.373l-.564 1.13M639.623 942.504l-.283 1.412M639.34 943.916l.283 1.13M639.623 945.047l.564 1.412M640.187 946.46l.848.847M641.036 947.307l.847.845M641.882 948.152l1.413.567M643.295 948.72h1.13M644.425 962.56l.847-.283M645.272 962.277l.848-.283M646.12 961.994l.848-.562M646.968 961.432l.564-.567M647.532 960.867l.283-1.133M647.815 959.734l.283-.845M648.098 958.89l-.284-.85M647.815 958.04l-.283-.847M647.532 957.193l-.564-.847M646.968 956.346l-.848-.567M646.12 955.78l-.85-.282M645.272 955.498h-.847M644.425 955.498h-.848M643.577 955.498l-.848.28M642.73 955.78l-.848.566M641.882 956.346l-.565.847M641.317 957.193l-.28.848M641.036 958.04v.85M641.036 958.89v.844M641.036 959.734l.28 1.133M641.317 960.865l.565.567M641.882 961.432l.847.56M642.73 961.994l.847.283M643.577 962.277l.848.284M659.68 947.307h.847M660.527 947.307l.847-.567M661.374 946.74l.847-.564M662.222 946.176l.564-.567M662.787 945.61l.282-.846M663.07 944.764v-.848M663.07 943.916v-1.13M663.07 942.787l-.284-.848M662.787 941.94l-.564-.568M662.22 941.373l-.846-.564M661.374 940.81l-.847-.566M660.527 940.244h-.848M659.68 940.244h-.848M658.832 940.244l-.848.565M657.984 940.81l-.847.563M657.137 941.373l-.566.567M656.573 941.94l-.283.847M656.29 942.787l-.283 1.13M656.007 943.916l.283.848M656.29 944.764l.283.845M656.57 945.61l.567.566M657.137 946.176l.847.564M657.984 946.74l.848.567M658.832 947.307h.847M636.797 936.29v30.224M636.797 966.514h30.51M667.306 966.514V936.29M667.306 936.29h-30.51"/>
    <path clip-path="url(#SVGID_2_)" fill="none" stroke="gray" stroke-width="1.724" stroke-linecap="round" stroke-linejoin="round" stroke-miterlimit="10" d="M1329.01 1260.902v-.322M1329.01 1260.58v-.323M1329.01 1260.257l-.323-.323M1328.687 1259.934l-.324-.325M1328.363 1259.61h-.322M1328.04 1259.61h-.322M1327.718 1259.61l-.323.324M1327.395 1259.934h-.323M1327.072 1259.934v.323M1327.072 1260.257l-.323.323M1326.75 1260.58v.322M1326.75 1260.902v.325M1326.75 1261.227l.322.322M1327.072 1261.55l.323.323M1327.395 1261.873h.323M1327.718 1261.873h.323M1328.04 1261.873h.323M1328.363 1261.873h.324M1328.687 1261.873v-.324M1328.687 1261.55h.323M1329.01 1261.55v-.323M1329.01 1261.227v-.325M1337.09 1263.813h.324M1337.414 1263.813v-.325M1337.414 1263.488h.323M1337.737 1263.488l.322-.322M1338.06 1263.166v-.323M1338.06 1262.843v-.324M1338.06 1262.52v-14.868M1338.06 1247.652v-.323M1338.06 1247.33v-.324M1338.06 1247.006l-.323-.322M1337.737 1246.684h-.323M1337.414 1246.684v-.325M1337.414 1246.36h-.324M1337.09 1246.36h-18.098M1318.992 1246.36h-.324M1318.668 1246.36l-.323.324M1318.345 1246.684l-.324.322M1318.02 1247.006v.323M1318.02 1247.33v.322M1318.02 1247.652v14.867M1318.02 1262.52v.323M1318.02 1262.843v.323M1318.02 1263.166l.326.322M1318.346 1263.488l.322.325M1318.668 1263.813h.324M1318.992 1263.813h18.098M1294.754 1266.72h46.214M1340.968 1266.72v-23.27M1340.968 1243.45h-46.214M1294.754 1243.45v23.272M1297.66 1249.268h17.453M1297.66 1252.178h17.453M1297.66 1255.086h17.453M1297.66 1257.996h17.453M1297.66 1260.902h17.453M1315.113 1246.36h-17.452M1297.66 1263.813h17.453"/>
    <path clip-path="url(#SVGID_2_)" fill="none" stroke="gray" stroke-width="1.507" stroke-linecap="round" stroke-linejoin="round" stroke-miterlimit="10" d="M1402.73 1243.36v-1.13M1402.73 1242.23l-.565-1.412M1402.165 1240.818l-.848-1.13M1401.317 1239.688l-1.13-.564M1400.188 1239.124l-1.13-.565M1399.058 1238.56l-1.412-.283M1397.646 1238.277l-1.13.282M1396.515 1238.56l-1.412.564M1395.103 1239.124l-.848.564M1394.255 1239.688l-.847 1.13M1393.407 1240.818l-.565 1.413M1392.842 1242.23l-.282 1.13M1392.56 1243.36l.282 1.414M1392.842 1244.774l.564 1.13M1393.408 1245.903l.847 1.13M1394.255 1247.033l.848.848M1395.103 1247.88l1.412.283M1396.515 1248.163l1.13.283M1397.646 1248.446l1.412-.283M1399.058 1248.163l1.13-.282M1400.188 1247.88l1.13-.847M1401.317 1247.033l.848-1.13M1402.165 1245.903l.564-1.13M1402.73 1244.774v-1.413M1387.476 1258.616v-1.412M1387.476 1257.204l-.567-1.13M1386.91 1256.073l-.847-1.13M1386.063 1254.942l-.847-.846M1385.216 1254.096l-1.412-.283M1383.804 1253.813l-1.13-.283M1382.673 1253.53l-1.412.283M1381.26 1253.813l-1.13.283M1380.13 1254.096l-1.13.846M1379 1254.942l-.847 1.13M1378.153 1256.073l-.565 1.13M1377.588 1257.204v1.412M1377.588 1258.616v1.13M1377.588 1259.745l.564 1.413M1378.153 1261.158l.848.847M1379 1262.007l1.13.847M1380.13 1262.854l1.13.565M1381.26 1263.418l1.413.282M1382.673 1263.7l1.13-.282M1383.804 1263.418l1.412-.564M1385.216 1262.854l.847-.847M1386.063 1262.005l.846-.847M1386.91 1261.158l.565-1.413M1387.476 1259.745v-1.13M1401.317 1258.616l-.283-.847M1401.034 1257.77l-.283-.85M1400.75 1256.92l-.56-.847M1400.188 1256.073l-.566-.564M1399.624 1255.51l-1.133-.284M1398.49 1255.226l-.844-.284M1397.646 1254.942l-.848.284M1396.798 1255.226l-.848.283M1395.95 1255.51l-.847.563M1395.103 1256.073l-.566.848M1394.537 1256.92l-.282.85M1394.255 1257.77v.846M1394.255 1258.616v.848M1394.255 1259.464l.282.848M1394.537 1260.312l.565.846M1395.103 1261.158l.847.566M1395.95 1261.724l.848.28M1396.798 1262.005h.848M1397.646 1262.005h.845M1398.49 1262.005l1.134-.28M1399.622 1261.724l.566-.566M1400.188 1261.158l.562-.846M1400.75 1260.312l.284-.848M1401.034 1259.464l.283-.848M1386.063 1243.36v-.846M1386.063 1242.514l-.566-.847M1385.497 1241.667l-.564-.848M1384.933 1240.818l-.567-.565M1384.366 1240.254l-.845-.282M1383.52 1239.972h-.847M1382.673 1239.972h-1.13M1381.544 1239.972l-.848.282M1380.696 1240.254l-.566.565M1380.13 1240.82l-.565.847M1379.565 1241.667l-.564.847M1379 1242.514v.847M1379 1243.36v.848M1379 1244.208l.564.85M1379.565 1245.057l.564.846M1380.13 1245.903l.565.567M1380.696 1246.468l.848.283M1381.544 1246.75l1.13.283M1382.673 1247.033l.848-.282M1383.52 1246.75l.846-.282M1384.366 1246.47l.566-.567M1384.933 1245.903l.563-.846M1385.497 1245.057l.566-.85M1386.063 1244.208v-.847M1375.046 1266.243h30.225M1405.27 1266.243v-30.51M1405.27 1235.734h-30.225M1375.046 1235.734v30.51"/>
    <path clip-path="url(#SVGID_2_)" fill="none" stroke="gray" stroke-width="1.724" stroke-linecap="round" stroke-linejoin="round" stroke-miterlimit="10" d="M1484.795 625.815v-.322M1484.795 625.493v-.324M1484.795 625.168l-.324-.32M1484.47 624.846l-.322-.324M1484.148 624.522h-.322M1483.826 624.522h-.324M1483.502 624.522l-.322.324M1483.18 624.846h-.323M1482.857 624.846v.322M1482.857 625.168l-.324.325M1482.533 625.493v.32M1482.533 625.815v.324M1482.533 626.14l.324.32M1482.857 626.46l.323.326M1483.18 626.786h.322M1483.502 626.786h.324M1483.826 626.786h.322M1484.148 626.786h.323M1484.47 626.786v-.325M1484.47 626.46h.325M1484.795 626.46v-.32M1484.795 626.14v-.325M1492.875 628.725h.324M1493.2 628.725v-.324M1493.2 628.4h.32M1493.52 628.4l.324-.32M1493.844 628.08v-.325M1493.844 627.754v-.323M1493.844 627.43v-14.865M1493.844 612.565v-.324M1493.844 612.24v-.32M1493.844 611.918l-.323-.32M1493.52 611.596h-.32M1493.2 611.596v-.324M1493.2 611.272h-.325M1492.875 611.272h-18.098M1474.777 611.272h-.324M1474.453 611.272l-.324.324M1474.13 611.596l-.323.322M1473.807 611.918v.323M1473.807 612.24v.325M1473.807 612.565v14.865M1473.807 627.43v.324M1473.807 627.754v.325M1473.807 628.08l.324.32M1474.13 628.4l.323.325M1474.453 628.725h.324M1474.777 628.725h18.098M1450.54 631.633h46.212M1496.752 631.633v-23.27M1496.752 608.364h-46.213M1450.54 608.364v23.27M1453.445 614.18h17.453M1453.445 617.09h17.453M1453.445 620h17.453M1453.445 622.91h17.453M1453.445 625.815h17.453M1470.898 611.272h-17.453M1453.445 628.725h17.453"/>
    <path clip-path="url(#SVGID_2_)" fill="none" stroke="gray" stroke-width="1.507" stroke-linecap="round" stroke-linejoin="round" stroke-miterlimit="10" d="M1555.812 615.04v-1.13M1555.812 613.91l-.565-1.412M1555.247 612.498l-.848-1.13M1554.4 611.368l-1.13-.564M1553.27 610.803l-1.13-.565M1552.14 610.238l-1.412-.28M1550.728 609.957l-1.13.28M1549.597 610.238l-1.412.565M1548.185 610.803l-.848.564M1547.337 611.368l-.848 1.13M1546.49 612.498l-.567 1.413M1545.923 613.91l-.28 1.13M1545.642 615.04l.28 1.414M1545.923 616.454l.565 1.13M1546.49 617.583l.847 1.13M1547.337 618.712l.848.85M1548.185 619.56l1.412.282M1549.597 619.842l1.13.283M1550.728 620.125l1.412-.282M1552.14 619.842l1.13-.28M1553.27 619.56l1.13-.848M1554.4 618.712l.847-1.13M1555.247 617.583l.564-1.13M1555.812 616.454v-1.413M1540.558 630.295v-1.412M1540.558 628.883l-.567-1.13M1539.99 627.752l-.844-1.13M1539.146 626.622l-.848-.848M1538.298 625.775l-1.412-.282M1536.886 625.493l-1.13-.283M1535.755 625.21l-1.412.283M1534.343 625.493l-1.13.282M1533.212 625.775l-1.13.847M1532.083 626.622l-.848 1.13M1531.235 627.752l-.566 1.13M1530.67 628.883v1.412M1530.67 630.295v1.13M1530.67 631.424l.564 1.413M1531.235 632.837l.848.848M1532.083 633.686l1.13.848M1533.212 634.534l1.13.564M1534.343 635.097l1.412.282M1535.755 635.38l1.13-.282M1536.886 635.097l1.412-.564M1538.298 634.534l.848-.848M1539.146 633.684l.845-.847M1539.99 632.837l.567-1.413M1540.558 631.424v-1.13M1554.4 630.295l-.284-.848M1554.116 629.448l-.283-.848M1553.833 628.6l-.562-.848M1553.27 627.752l-.566-.564M1552.706 627.188l-1.133-.283M1551.573 626.905l-.845-.283M1550.728 626.622l-.848.283M1549.88 626.905l-.848.283M1549.032 627.188l-.847.564M1548.185 627.752l-.567.85M1547.618 628.6l-.28.848M1547.337 629.448v.848M1547.337 630.295v.85M1547.337 631.143l.28.848M1547.618 631.99l.566.848M1548.185 632.837l.847.565M1549.032 633.403l.848.28M1549.88 633.684h.848M1550.728 633.684h.845M1551.573 633.684l1.133-.28M1552.704 633.403l.566-.565M1553.27 632.837l.562-.847M1553.833 631.99l.283-.847M1554.116 631.143l.283-.848M1539.146 615.04v-.848M1539.146 614.193l-.567-.847M1538.58 613.346l-.565-.848M1538.015 612.498l-.567-.565M1537.448 611.933l-.845-.282M1536.603 611.65h-.848M1535.755 611.65h-1.13M1534.626 611.65l-.848.283M1533.778 611.933l-.566.565M1533.212 612.5l-.565.847M1532.647 613.346l-.564.847M1532.083 614.193v.848M1532.083 615.04v.848M1532.083 615.887l.563.85M1532.647 616.736l.564.847M1533.212 617.583l.565.565M1533.778 618.147l.848.283M1534.626 618.43l1.13.282M1535.755 618.712l.848-.28M1536.603 618.43l.845-.283M1537.448 618.15l.566-.567M1538.015 617.583l.563-.848M1538.58 616.736l.565-.85M1539.146 615.887v-.847M1528.128 637.922h30.225M1558.353 637.922v-30.508M1558.353 607.414h-30.226M1528.128 607.414v30.51"/>
    <path clip-path="url(#SVGID_2_)" fill="none" stroke="gray" stroke-width="1.724" stroke-linecap="round" stroke-linejoin="round" stroke-miterlimit="10" d="M591.88 275.006h.322M592.202 275.006h.324M592.525 275.006l.325-.324M592.85 274.683l.322-.324M593.172 274.36v-.322M593.172 274.038v-.324M593.172 273.714l-.322-.323M592.85 273.39v-.323M592.85 273.068h-.325M592.525 273.068l-.324-.323M592.202 272.745h-.322M591.88 272.745h-.324M591.556 272.745l-.323.323M591.233 273.068l-.324.323M590.91 273.39v.324M590.91 273.714v.324M590.91 274.038v.32M590.91 274.36v.323M590.91 274.683h.323M591.233 274.683v.324M591.233 275.006h.323M591.556 275.006h.324M588.97 283.085v.324M588.97 283.41h.324M589.294 283.41v.324M589.294 283.733l.322.323M589.616 284.055h.323M589.94 284.055h.324M590.264 284.055h14.866M605.13 284.055h.323M605.453 284.055h.323M605.776 284.055l.323-.322M606.1 283.733v-.324M606.1 283.41h.322M606.422 283.41v-.324M606.422 283.085v-18.097M606.422 264.99v-.325M606.422 264.665l-.323-.324M606.1 264.34l-.325-.322M605.776 264.018h-.323M605.453 264.018h-.324M605.13 264.018h-14.867M590.264 264.018h-.325M589.94 264.018h-.324M589.616 264.018l-.322.324M589.294 264.34l-.324.325M588.97 264.665v.324M588.97 264.99v18.096M586.062 240.75v46.213M586.062 286.964h23.27M609.332 286.964V240.75M609.332 240.75h-23.27M603.514 243.657v17.452M600.605 243.657v17.452M597.696 243.657v17.452M594.787 243.657v17.452M591.88 243.657v17.452M606.422 261.11v-17.453M588.97 243.657v17.452"/>
    <path clip-path="url(#SVGID_2_)" fill="none" stroke="gray" stroke-width="1.507" stroke-linecap="round" stroke-linejoin="round" stroke-miterlimit="10" d="M606.624 366.87h1.13M607.754 366.87l1.413-.566M609.167 366.303l1.13-.848M610.296 365.456l.564-1.13M610.86 364.327l.566-1.13M611.426 363.196l.28-1.412M611.708 361.784l-.28-1.13M611.426 360.654l-.565-1.413M610.86 359.24l-.563-.846M610.296 358.394l-1.13-.847M609.167 357.546l-1.414-.565M607.754 356.98l-1.13-.28M606.624 356.698l-1.414.282M605.21 356.98l-1.128.565M604.082 357.547l-1.13.847M602.952 358.394l-.848.847M602.104 359.24l-.283 1.414M601.82 360.654l-.282 1.13M601.54 361.784l.28 1.412M601.82 363.196l.284 1.13M602.104 364.327l.848 1.13M602.952 365.456l1.13.848M604.082 366.303l1.128.565M605.21 366.87h1.414M591.37 351.614h1.41M592.78 351.614l1.132-.565M593.912 351.048l1.13-.847M595.042 350.202l.847-.848M595.89 349.355l.282-1.413M596.172 347.942l.283-1.13M596.455 346.812l-.284-1.413M596.172 345.4l-.283-1.13M595.89 344.27l-.848-1.13M595.042 343.14l-1.13-.848M593.912 342.292l-1.13-.565M592.78 341.727h-1.41M591.37 341.727h-1.13M590.24 341.727l-1.414.565M588.827 342.292l-.848.847M587.98 343.14l-.85 1.13M587.13 344.27l-.563 1.13M586.567 345.4l-.283 1.412M586.284 346.812l.283 1.13M586.567 347.942l.564 1.413M587.13 349.355l.85.847M587.98 350.202l.847.847M588.827 351.048l1.413.565M590.24 351.614h1.13M591.37 365.456l.846-.282M592.216 365.173l.848-.283M593.064 364.89l.848-.563M593.912 364.327l.564-.565M594.477 363.762l.283-1.132M594.76 362.63l.282-.847M595.042 361.784l-.283-.847M594.76 360.937l-.284-.85M594.477 360.088l-.564-.848M593.912 359.24l-.848-.564M593.064 358.676l-.848-.282M592.216 358.394h-.847M591.37 358.394h-.85M590.52 358.394l-.846.282M589.674 358.676l-.847.565M588.827 359.24l-.565.85M588.26 360.088l-.28.85M587.98 360.937v.847M587.98 361.784v.847M587.98 362.63l.28 1.132M588.26 363.76l.566.566M588.827 364.327l.847.563M589.674 364.89l.847.283M590.52 365.173l.85.282M606.624 350.202h.848M607.47 350.202l.848-.565M608.318 349.636l.848-.565M609.167 349.07l.564-.564M609.73 348.505l.284-.847M610.014 347.66v-.848M610.014 346.812v-1.13M610.014 345.682l-.284-.847M609.73 344.835l-.564-.566M609.166 344.27l-.848-.566M608.318 343.704l-.847-.564M607.47 343.14h-.847M606.624 343.14h-.848M605.776 343.14l-.848.563M604.928 343.704l-.847.565M604.082 344.27l-.566.565M603.517 344.835l-.283.847M603.234 345.682l-.283 1.13M602.952 346.812l.283.847M603.234 347.66l.284.846M603.516 348.505l.566.565M604.082 349.07l.847.566M604.928 349.636l.848.565M605.776 350.202h.848M583.742 339.185v30.226M583.742 369.41h30.508M614.25 369.41v-30.226M614.25 339.185h-30.51"/>
    <path clip-path="url(#SVGID_2_)" fill="none" stroke="gray" stroke-width="1.724" stroke-linecap="round" stroke-linejoin="round" stroke-miterlimit="10" d="M1467.403 559.813v.323M1467.403 560.136v.324M1467.403 560.46l.324.323M1467.727 560.783l.324.323M1468.05 561.106h.322M1468.372 561.106h.323M1468.695 561.106l.325-.323M1469.02 560.783h.322M1469.342 560.783v-.323M1469.342 560.46l.322-.324M1469.664 560.136v-.323M1469.664 559.813v-.323M1469.664 559.49l-.322-.323M1469.342 559.167l-.322-.324M1469.02 558.843h-.325M1468.695 558.843h-.323M1468.372 558.843h-.32M1468.05 558.843h-.323M1467.727 558.843v.324M1467.727 559.167h-.324M1467.403 559.167v.323M1467.403 559.49v.323M1459.324 556.904H1459M1459 556.904v.324M1459 557.228h-.324M1458.676 557.228l-.322.32M1458.354 557.55v.324M1458.354 557.874v.324M1458.354 558.198v14.865M1458.354 573.063v.325M1458.354 573.388v.322M1458.354 573.71l.322.322M1458.676 574.032h.324M1459 574.032v.324M1459 574.356h.324M1459.324 574.356h18.097M1477.42 574.356h.325M1477.745 574.356l.323-.324M1478.068 574.032l.325-.322M1478.393 573.71v-.322M1478.393 573.388v-.325M1478.393 573.063v-14.865M1478.393 558.198v-.324M1478.393 557.874v-.324M1478.393 557.55l-.325-.322M1478.068 557.228l-.323-.324M1477.745 556.904h-.324M1477.42 556.904h-18.096M1501.66 553.995h-46.215M1455.445 553.995v23.27M1455.445 577.266h46.215M1501.66 577.266v-23.27M1498.752 571.448h-17.45M1498.752 568.54h-17.45M1498.752 565.63h-17.45M1498.752 562.72h-17.45M1498.752 559.813h-17.45M1481.3 574.356h17.452M1498.752 556.904h-17.45"/>
    <path clip-path="url(#SVGID_2_)" fill="none" stroke="gray" stroke-width="1.507" stroke-linecap="round" stroke-linejoin="round" stroke-miterlimit="10" d="M1554.54 576.353h1.132M1555.672 576.353l1.412-.565M1557.084 575.787l1.13-.848M1558.214 574.94l.563-1.13M1558.778 573.81l.566-1.13M1559.344 572.68l.28-1.412M1559.625 571.268l-.28-1.13M1559.344 570.138l-.566-1.413M1558.778 568.725l-.564-.848M1558.214 567.877l-1.13-.847M1557.084 567.03l-1.412-.565M1555.672 566.464l-1.13-.28M1554.54 566.182l-1.41.282M1553.13 566.464l-1.13.565M1552 567.03l-1.13.848M1550.87 567.877l-.85.848M1550.02 568.725l-.282 1.413M1549.738 570.138l-.282 1.13M1549.456 571.268l.282 1.412M1549.738 572.68l.283 1.13M1550.02 573.81l.85 1.13M1550.87 574.94l1.13.848M1552 575.787l1.13.565M1553.13 576.353h1.41M1539.287 561.098h1.412M1540.7 561.098l1.13-.565M1541.83 560.532l1.13-.847M1542.96 559.686l.847-.848M1543.807 558.84l.283-1.414M1544.09 557.426l.282-1.13M1544.372 556.296l-.282-1.413M1544.09 554.883l-.283-1.13M1543.807 553.753l-.848-1.13M1542.96 552.623l-1.13-.847M1541.83 551.776l-1.13-.565M1540.7 551.21h-1.413M1539.287 551.21h-1.13M1538.156 551.21l-1.412.565M1536.744 551.776l-.847.847M1535.896 552.623l-.847 1.13M1535.05 553.753l-.566 1.13M1534.484 554.883l-.283 1.413M1534.2 556.296l.284 1.13M1534.484 557.426l.565 1.413M1535.05 558.84l.846.846M1535.897 559.686l.847.847M1536.744 560.532l1.412.565M1538.156 561.098h1.13M1539.287 574.94l.847-.282M1540.134 574.657l.847-.283M1540.98 574.374l.85-.564M1541.83 573.81l.565-.564M1542.395 573.246l.282-1.132M1542.677 572.114l.282-.846M1542.96 571.268l-.283-.848M1542.677 570.42l-.282-.848M1542.395 569.572l-.565-.847M1541.83 568.725l-.85-.565M1540.98 568.16l-.846-.282M1540.134 567.877h-.847M1539.287 567.877h-.85M1538.438 567.877l-.846.282M1537.592 568.16l-.848.565M1536.744 568.725l-.565.848M1536.18 569.572l-.283.848M1535.897 570.42v.848M1535.897 571.268v.847M1535.897 572.114l.282 1.132M1536.18 573.245l.564.565M1536.744 573.81l.848.565M1537.592 574.374l.846.283M1538.438 574.657l.85.282M1554.54 559.686h.85M1555.39 559.686l.846-.565M1556.236 559.12l.847-.565M1557.084 558.555l.564-.565M1557.648 557.99l.284-.847M1557.932 557.143v-.848M1557.932 556.296v-1.13M1557.932 555.166l-.284-.847M1557.648 554.32l-.564-.567M1557.083 553.753l-.847-.565M1556.236 553.188l-.847-.565M1555.39 552.623h-.85M1554.54 552.623h-.847M1553.693 552.623l-.847.565M1552.846 553.188l-.847.564M1552 553.753l-.566.566M1551.435 554.32l-.283.846M1551.152 555.166l-.283 1.13M1550.87 556.296l.282.847M1551.152 557.143l.283.847M1551.434 557.99l.564.564M1552 558.555l.846.565M1552.846 559.12l.847.565M1553.693 559.686h.848M1531.66 548.668v30.226M1531.66 578.894h30.508M1562.168 578.894V548.67M1562.168 548.668h-30.51"/>
  </g>
</svg>
