<svg id="plans13" xmlns="http://www.w3.org/2000/svg" width="671.188" height="418.969" viewBox="0 0 671.188 418.969">
  <path fill-rule="evenodd" clip-rule="evenodd" fill="#EEE" d="M519.68 231.852h-4.29v19.294h4.646V364.54h87.21v8.06h-10.23v36.817h69.228v-36.462h-27.237v-8.416h21.06V87.394h-13.182v-7.622h18.404v-36.46h-59.13v36.562h11.116v7.876h-17.47v126.792l2.89-.04.04 7.744-2.93.358-79.77-.358z" id="plans13-8"/>
  <path fill-rule="evenodd" clip-rule="evenodd" fill="#D3D3D3" d="M389.656 262.5v137h56v-35h29v8h-21v37h82v-37h-30v-7h10v-107h-90v4z" id="plans13-7"/>
  <path fill-rule="evenodd" clip-rule="evenodd" fill="#BCBCBC" d="M163.902 364.896v7.627h-29.257v36.54h81.28v-36.82H195.31v-6.992h28.378v34.138h56.89v-137.23h-36.913v-3.433h-7.776v-3.754l-20.702.073.495 3.682h-61.468V364.54z" id="plans13-6"/>
  <path fill-rule="evenodd" clip-rule="evenodd" fill="#D3D3D3" d="M3.656 409.5h70v-37h-12v-7h88v-143h-83v-8h3v-127h-18v-8h12v-37h-60v37h19v8h-13v127h38v8h-38v142h21v9h-27z" id="plans13-5"/>
  <path fill-rule="evenodd" clip-rule="evenodd" fill="#D3D3D3" d="M476.656 87.5v127h119v-127h-4v-8h13v-36h-49l-20 20.262V79.5h28v8z" id="plans13-4"/>
  <path fill-rule="evenodd" clip-rule="evenodd" fill="#EEE" d="M406.492 38.847h-18.05v-7.62h24.228V17.87h-2.756v-3.714S376.11 1.73 337.006 1.73v29.31h19.675v7.45H336.75v175.697h132.337V87.395H453.75v-7.62h26.58V42.956h-24.014l-9.154-9.153h-32.78V58.85l.442 20.924h7.874l-.356 7.265-7.96.254h-7.89" id="plans13-3"/>
  <path fill-rule="evenodd" clip-rule="evenodd" fill="#D3D3D3" d="M189.656 44.5v36h26v7h-15v127h133v-176h-21v-7h20v-30s-41.543.294-71.522 12.772l-1.716.58.258 2.648h-3.02v14h25v7h-18v49h-16v-8h7v-46h-33l-9.66 10h-23.34l1 1z" id="plans13-2"/>
  <path fill-rule="evenodd" clip-rule="evenodd" fill="#EEE" d="M65.01 43.313h48.655l20.202 19.994-.06 16.466h-27.46v7.622h86.123v127.148h-4.34l-.347 7.603h-20.387l.175-7.248h-93.4V87.75h3.068v-7.62h-12.27z" id="plans13-1"/>
</svg>