<?xml version="1.0" encoding="utf-8"?>
<!-- Generator: Adobe Illustrator 15.0.2, SVG Export Plug-In  -->
<!DOCTYPE svg PUBLIC "-//W3C//DTD SVG 1.1//EN" "http://www.w3.org/Graphics/SVG/1.1/DTD/svg11.dtd" [
	<!ENTITY ns_flows "http://ns.adobe.com/Flows/1.0/">
]>
<svg version="1.1"
	 xmlns="http://www.w3.org/2000/svg" xmlns:xlink="http://www.w3.org/1999/xlink" xmlns:a="http://ns.adobe.com/AdobeSVGViewerExtensions/3.0/"
	 x="0px" y="0px" width="360px" height="278px" viewBox="-0.4541016 -0.515625 360 278"
	 enable-background="new -0.4541016 -0.515625 360 278" xml:space="preserve">
<defs>
</defs>
<path fill="#FE5B1C" d="M190.7353516,105.5532227c9.5605469,0,18.3359375,3.347168,25.2333984,8.9257813
	c-7.3632813-9.1020508-18.6162109-14.9257813-31.2333984-14.9257813c-22.1806641,0-40.1606445,17.9799805-40.1606445,40.159668
	c0,12.6181641,5.8242188,23.8710938,14.9257813,31.234375c-5.5786133-6.8974609-8.9257813-15.6728516-8.9257813-25.234375
	C150.574707,123.5332031,168.5546875,105.5532227,190.7353516,105.5532227"/>
<path fill="#FB7D00" d="M224.8935547,139.7128906c0-9.5615234-3.3466797-18.3369141-8.9257813-25.2338867
	c-6.8964844-5.5791016-15.671875-8.9262695-25.2324219-8.9262695c-22.1801758,0-40.1601563,17.9814453-40.1601563,40.1601563
	c0,9.5605469,3.3466797,18.3369141,8.9248047,25.234375c6.8969727,5.578125,15.6728516,8.9257813,25.2333984,8.9257813
	C206.9140625,179.8730469,224.8935547,161.8925781,224.8935547,139.7128906"/>
<path fill="#FE5B1C" d="M185.734375,104.5532227c9.5615234,0,18.3369141,3.3466797,25.2333984,8.9257813
	c-7.3623047-9.1020508-18.6152344-14.9257813-31.2333984-14.9257813c-22.1801758,0-40.1601563,17.9799805-40.1601563,40.159668
	c0,12.6181641,5.8242188,23.8710938,14.9262695,31.234375c-5.5791016-6.8974609-8.9262695-15.6728516-8.9262695-25.234375
	C145.5742188,122.5332031,163.5541992,104.5532227,185.734375,104.5532227"/>
<path fill="#FB7D00" d="M219.8935547,138.7128906c0-9.5615234-3.3476563-18.3369141-8.9257813-25.2338867
	c-6.8964844-5.5791016-15.671875-8.9262695-25.2333984-8.9262695c-22.1796875,0-40.159668,17.9814453-40.159668,40.1601563
	c0,9.5605469,3.3466797,18.3369141,8.9248047,25.234375c6.8969727,5.578125,15.6728516,8.9257813,25.2338867,8.9257813
	C201.9130859,178.8730469,219.8935547,160.8925781,219.8935547,138.7128906"/>
<circle fill="none" stroke="#100D0F" stroke-width="2" stroke-linecap="round" stroke-linejoin="round" stroke-miterlimit="10" cx="179.7336426" cy="138.7128906" r="40.1599121"/>
<path fill="none" stroke="#FFFFFF" stroke-width="2" stroke-linecap="round" stroke-linejoin="round" stroke-miterlimit="10" d="
	M147.0791016,138.7128906c0-18.0351563,14.6201172-32.6552734,32.6547852-32.6552734"/>
<path fill="none" stroke="#100D0F" stroke-width="2" stroke-linecap="round" stroke-linejoin="round" stroke-miterlimit="10" d="
	M274.6064453,131.0419922c-11.4316406-15.75-24.9375-31.6152344-40.2617188-46.9399414
	c-15.2871094-15.2861328-31.1132813-28.7661133-46.8261719-40.1811523l-15.578125-10.6450195
	C121.6025391,0.8847656,74.7124023-9.0332031,53.3500977,12.3291016
	C32.0004883,33.6787109,41.8955078,80.5239258,74.2382813,130.828125l10.6230469,15.5546875
	c11.4321289,15.75,24.9379883,31.6162109,40.2631836,46.9404297c15.2856445,15.2871094,31.1118164,28.765625,46.8237305,40.1806641
	l15.5800781,10.6455078c50.3378906,32.390625,97.2265625,42.3095703,118.5898438,20.9462891
	c13.1621094-13.1621094,14.4482422-36.0146484,5.9208984-63.3935547"/>
<path fill="none" stroke="#100D0F" stroke-width="2" stroke-linecap="round" stroke-linejoin="round" stroke-miterlimit="10" d="
	M304.1689453,181.1396484c-4.9951172-11.1201172-11.3359375-22.7119141-18.9101563-34.4960938"/>
<path fill="none" stroke="#100D0F" stroke-width="2" stroke-linecap="round" stroke-linejoin="round" stroke-miterlimit="10" d="
	M42.8369141,89.0766602C16.7412109,102.5004883,1,119.8085938,1,138.7128906
	c0,35.7050781,56.0878906,65.7353516,132.2602539,74.578125c14.8520508,1.5068359,29.7729492,2.3056641,29.7729492,2.3056641
	c5.5009766,0.2197266,11.065918,0.3457031,16.7006836,0.3457031c46.6518555,0,89.112793-7.7285156,120.940918-20.3769531
	l15.9541016-7.2158203c26.0966797-13.4248047,41.8388672-30.7333984,41.8388672-49.6367188
	c0-35.7050781-56.0898438-65.7373047-132.2617188-74.578125l-29.7734375-2.3061523
	c-5.5-0.2197266-11.0644531-0.347168-16.6987305-0.347168c-46.6518555,0-89.112793,7.7304688-120.9418945,20.3793945
	L42.8369141,89.0766602z"/>
<path fill="none" stroke="#100D0F" stroke-width="2" stroke-linecap="round" stroke-linejoin="round" stroke-miterlimit="10" d="
	M85.5566406,130.0830078c11.2832031-15.4345703,24.5541992-30.9677734,39.5673828-45.9804688
	c69.7988281-69.800293,150.8330078-101.934082,180.9941406-71.7729492
	c30.1601563,30.159668-1.9746094,111.1938477-71.7744141,180.9936523
	c-69.7998047,69.7988281-150.8330078,101.9335938-180.9941406,71.7734375
	c-13.1108398-13.1113281-14.449707-35.8359375-6.0400391-63.0722656"/>
<path fill="none" stroke="#100D0F" stroke-width="2" stroke-linecap="round" stroke-linejoin="round" stroke-miterlimit="10" d="
	M54.1616211,183.6601563c5.0966797-11.7539063,11.7260742-24.0673828,19.7539063-36.6015625"/>
<path fill="#76CCDF" d="M72.0224609,107.4970703c0,6.3369141-5.137207,11.4736328-11.4741211,11.4736328
	s-11.4741211-5.1367188-11.4741211-11.4736328s5.137207-11.4741211,11.4741211-11.4741211
	S72.0224609,101.1601563,72.0224609,107.4970703"/>
<path fill="#76CCDF" d="M54.3696289,107.4970703c0-3.4121094,2.7661133-6.1782227,6.1782227-6.1782227"/>
<path fill="#76CCDF" d="M285.2587891,204.46875c0,6.3369141-5.1367188,11.4746094-11.4746094,11.4746094
	c-6.3359375,0-11.4726563-5.1376953-11.4726563-11.4746094s5.1367188-11.4736328,11.4726563-11.4736328
	C280.1220703,192.9951172,285.2587891,198.1318359,285.2587891,204.46875"/>
<path fill="#76CCDF" d="M267.6064453,204.46875c0-3.4121094,2.765625-6.1777344,6.1777344-6.1777344"/>
<path fill="#76CCDF" d="M309.6787109,107.4970703c0,6.3369141-5.1367188,11.4736328-11.4746094,11.4736328
	c-6.3369141,0-11.4736328-5.1367188-11.4736328-11.4736328s5.1367188-11.4741211,11.4736328-11.4741211
	C304.5419922,96.0229492,309.6787109,101.1601563,309.6787109,107.4970703"/>
<path fill="#76CCDF" d="M292.0263672,107.4970703c0-3.4121094,2.765625-6.1782227,6.1777344-6.1782227"/>
<path fill="#76CCDF" d="M77.0224609,106.4970703c0,6.3369141-5.1367188,11.4736328-11.4736328,11.4736328
	s-11.4741211-5.1367188-11.4741211-11.4736328s5.137207-11.4741211,11.4741211-11.4741211
	S77.0224609,100.1601563,77.0224609,106.4970703"/>
<path fill="#76CCDF" d="M59.3701172,106.4970703c0-3.4121094,2.7661133-6.1782227,6.1782227-6.1782227"/>
<path fill="#76CCDF" d="M285.2587891,208.46875c0,6.3378906-5.1367188,11.4746094-11.4746094,11.4746094
	c-6.3359375,0-11.4726563-5.1367188-11.4726563-11.4746094c0-6.3369141,5.1367188-11.4736328,11.4726563-11.4736328
	C280.1220703,196.9951172,285.2587891,202.1318359,285.2587891,208.46875"/>
<path fill="#76CCDF" d="M267.6064453,208.46875c0-3.4111328,2.765625-6.1777344,6.1777344-6.1777344"/>
<path fill="#76CCDF" d="M313.6787109,111.4970703c0,6.3369141-5.1367188,11.4736328-11.4746094,11.4736328
	c-6.3359375,0-11.4736328-5.1367188-11.4736328-11.4736328s5.1376953-11.4736328,11.4736328-11.4736328
	C308.5419922,100.0234375,313.6787109,105.1601563,313.6787109,111.4970703"/>
<path fill="#76CCDF" d="M296.0263672,111.4970703c0-3.4121094,2.765625-6.1777344,6.1777344-6.1777344"/>
<circle fill="none" stroke="#100D0F" stroke-width="2" stroke-linecap="round" stroke-linejoin="round" stroke-miterlimit="10" cx="60.5483398" cy="107.4970703" r="11.4741211"/>
<path fill="none" stroke="#100D0F" stroke-width="2" stroke-linecap="round" stroke-linejoin="round" stroke-miterlimit="10" d="
	M54.3696289,107.4970703c0-3.4121094,2.7661133-6.1782227,6.1782227-6.1782227"/>
<circle fill="none" stroke="#100D0F" stroke-width="2" stroke-linecap="round" stroke-linejoin="round" stroke-miterlimit="10" cx="273.7851563" cy="204.46875" r="11.4736328"/>
<path fill="none" stroke="#100D0F" stroke-width="2" stroke-linecap="round" stroke-linejoin="round" stroke-miterlimit="10" d="
	M267.6064453,204.46875c0-3.4121094,2.765625-6.1777344,6.1777344-6.1777344"/>
<circle fill="none" stroke="#100D0F" stroke-width="2" stroke-linecap="round" stroke-linejoin="round" stroke-miterlimit="10" cx="298.2045898" cy="107.4970703" r="11.4741211"/>
<path fill="none" stroke="#100D0F" stroke-width="2" stroke-linecap="round" stroke-linejoin="round" stroke-miterlimit="10" d="
	M292.0263672,107.4970703c0-3.4121094,2.765625-6.1782227,6.1777344-6.1782227"/>
<path fill="#FFFFFF" d="M150.347168,146.3574219c0.3227539,1.1777344-0.3691406,2.3955078-1.5473633,2.71875
	c-1.1777344,0.3232422-2.3950195-0.3681641-2.71875-1.546875c-0.3232422-1.1777344,0.3691406-2.3945313,1.546875-2.71875
	C148.8061523,144.4873047,150.0229492,145.1796875,150.347168,146.3574219"/>
<path fill="#FFFFFF" d="M187.5869141,104.8139648c1.1884766,0.2783203,1.9287109,1.4672852,1.6503906,2.6572266
	c-0.2773438,1.1889648-1.4667969,1.9277344-2.65625,1.6508789c-1.1894531-0.277832-1.9287109-1.4667969-1.6513672-2.6572266
	C185.2080078,105.2758789,186.3964844,104.5371094,187.5869141,104.8139648"/>
</svg>
