<?xml version="1.0" encoding="utf-8"?>
<!-- Generator: Adobe Illustrator 15.0.2, SVG Export Plug-In  -->
<!DOCTYPE svg PUBLIC "-//W3C//DTD SVG 1.1//EN" "http://www.w3.org/Graphics/SVG/1.1/DTD/svg11.dtd" [
	<!ENTITY ns_flows "http://ns.adobe.com/Flows/1.0/">
]>
<svg version="1.1"
	 xmlns="http://www.w3.org/2000/svg" xmlns:xlink="http://www.w3.org/1999/xlink" xmlns:a="http://ns.adobe.com/AdobeSVGViewerExtensions/3.0/"
	 x="0px" y="0px" width="254px" height="272px" viewBox="-1.1313477 -1.2744141 254 272"
	 enable-background="new -1.1313477 -1.2744141 254 272" xml:space="preserve">
<defs>
</defs>
<path fill="none" stroke="#100D0F" stroke-width="2" stroke-linecap="round" stroke-linejoin="round" stroke-miterlimit="10" d="
	M83.7402344,160.0439453c-33.3862305,20.9003906-74.5610352-3.5019531-74.5610352-69.6230469
	C9.1782227,15.1938477,98.3710938-1.4492188,166.2924805,15.5297852
	c42.5908203,10.6469727,54.4667969,39.1391602,47.59375,58.559082
	C204.5737305,100.3959961,163.5874023,110.0620117,83.7402344,160.0439453z"/>
<path fill="none" stroke="#100D0F" stroke-width="2" stroke-linecap="round" stroke-linejoin="round" stroke-miterlimit="10" d="
	M57.3188477,268.4794922C48.3427734,167.0185547-1.2573242,169.2158203,1.0800781,85.8974609
	C3.315918,6.1665039,103.4291992-12.2255859,171.3051758,9.3618164
	c44.0595703,14.0126953,61.6630859,35.8149414,65.7109375,73.6279297
	c1.2285156,11.4736328-4.0478516,16.9487305-4.0478516,27.065918c0,14.0766602,19.6953125,32.1152344,18.6455078,42.8867188
	c-0.8798828,9.015625-14.2480469,6.8164063-17.7666016,13.8554688c-3.4775391,6.9550781,0.6162109,12.9160156-1.0996094,21.1132813
	c-1.9785156,9.4570313-5.5195313,9.9042969-7.0380859,18.0351563c-0.9453125,5.0683594,3.171875,13.5175781-0.2197266,23.3105469
	c-3.9580078,11.4375-33.1914063,4.9140625-49.1738281,14.296875c-8.9599609,5.2617188-15.7089844,15.2382813-18.1982422,23.5664063"
	/>
<path fill="#FB7D00" d="M121.715332,108.6367188l0.8857422-19.3598633l-14.5371094-0.6660156
	c-0.7290039-3.1450195-1.8779297-6.1279297-3.3828125-8.9033203l10.8730469-9.9208984l-13.0629883-14.3168945l-11.309082,10.3198242
	c-2.5380859-1.4716797-5.277832-2.6308594-8.1728516-3.4467773l0.7177734-15.6708984l-19.3598633-0.8862305L63.6103516,62.324707
	c-2.5742188,0.7260742-5.0239258,1.7451172-7.3339844,3.0019531L44.8769531,52.8325195l-14.315918,13.0620117l11.8149414,12.9501953
	c-1.2036133,2.0810547-2.1938477,4.2978516-2.9628906,6.6230469L21.762207,84.6606445l-0.8862305,19.3588867l17.6669922,0.809082
	c0.5561523,2.3798828,1.3422852,4.6708984,2.3500977,6.847168l-12.9697266,11.8339844l13.0629883,14.3154297l12.5336914-11.4350586
	c2.1708984,1.4482422,4.5170898,2.6572266,6.9912109,3.6152344l-0.7602539,16.6186523l19.359375,0.8867188l0.7207031-15.7338867
	c2.9370117-0.5517578,5.7612305-1.4433594,8.4101563-2.6660156l10.3598633,11.3530273l14.3149414-13.0629883l-9.9428711-10.8969727
	c1.7519531-2.6191406,3.171875-5.4760742,4.1879883-8.5341797L121.715332,108.6367188z M72.2470703,119.6176758
	c-12.6630859-0.5800781-22.4589844-11.3149414-21.8798828-23.9790039
	c0.5800781-12.6630859,11.315918-22.4589844,23.9799805-21.8798828
	c12.6630859,0.5800781,22.4589844,11.315918,21.8789063,23.9790039
	C95.6469727,110.4018555,84.9101563,120.1977539,72.2470703,119.6176758"/>
<path fill="#FB7D00" d="M54.5751953,61.1733398l-6.6982422-7.3408203l-0.2387695,0.2177734l6.6381836,7.2753906
	C54.3740234,61.2724609,54.4760742,61.2265625,54.5751953,61.1733398"/>
<path fill="#FB7D00" d="M53.3676758,96.6386719c0.5800781-12.6640625,11.315918-22.4599609,23.9790039-21.8798828
	c4.6782227,0.2138672,8.9619141,1.8168945,12.4780273,4.3881836c-3.9628906-5.4160156-10.2519531-9.0571289-17.4780273-9.3881836
	c-12.6640625-0.5800781-23.3999023,9.2158203-23.9790039,21.8798828
	c-0.3657227,7.9863281,3.3969727,15.2021484,9.4008789,19.5913086
	C54.7866211,107.1547852,53.1186523,102.0756836,53.3676758,96.6386719"/>
<path fill="#FB7D00" d="M94.1821289,66.7900391l11.0712891-10.1020508l-4.762207-5.2177734l-11.309082,10.3198242
	c-0.9780273-0.5678711-1.9951172-1.0732422-3.0307617-1.5458984l-0.1420898,3.0986328
	C88.9042969,64.1591797,91.644043,65.3178711,94.1821289,66.7900391"/>
<path fill="#FB7D00" d="M120.3833008,90.0375977l0.2182617-4.7617188l-11.0429688-0.5053711
	c0.6108398,1.5649414,1.1206055,3.1782227,1.5058594,4.840332L120.3833008,90.0375977z"/>
<path fill="#FE5B1C" d="M66.6103516,63.3251953l0.7568359-16.5400391l14.1411133,0.6479492l0.2177734-4.762207
	l-19.3588867-0.8857422l-0.7568359,16.5400391c-2.465332,0.6948242-4.8120117,1.6650391-7.0351563,2.8481445l4.7011719,5.152832
	C61.5864258,65.0703125,64.0361328,64.0512695,66.6103516,63.3251953"/>
<path fill="#FB7D00" d="M89.8251953,79.1469727c2.9819336,4.0751953,4.6499023,9.1542969,4.4008789,14.5908203
	c-0.5800781,12.6630859-11.315918,22.4589844-23.9790039,21.8793945c-4.6777344-0.2143555-8.9619141-1.8173828-12.4780273-4.387207
	c3.9628906,5.4160156,10.2519531,9.0571289,17.4780273,9.3881836c12.6640625,0.5786133,23.3999023-9.2163086,23.9790039-21.8803711
	C99.5922852,90.7519531,95.8291016,83.5361328,89.8251953,79.1469727"/>
<path fill="#FE5B1C" d="M42.4135742,86.4682617c0.769043-2.3251953,1.7592773-4.5419922,2.9628906-6.6230469l-11.815918-12.9501953
	l14.078125-12.84375l-4.762207-5.2192383l-14.315918,13.0629883l11.8149414,12.9492188
	c-1.2026367,2.0810547-2.1938477,4.2978516-2.9619141,6.6240234l-17.6508789-0.8081055l-0.887207,19.3588867l5.2182617,0.2392578
	l0.6689453-14.5981445L42.4135742,86.4682617z"/>
<path fill="#FB7D00" d="M90.9257813,130.2446289l5.6748047,6.2192383l0.2387695-0.2167969l-5.5976563-6.137207
	C91.1376953,130.1577148,91.0297852,130.1967773,90.9257813,130.2446289"/>
<path fill="#FB7D00" d="M58.3950195,128.5493164l-0.644043,14.074707l5.2177734,0.2402344l0.5429688-11.8588867
	C61.7329102,130.3168945,60.0239258,129.4936523,58.3950195,128.5493164"/>
<path fill="#FE5B1C" d="M43.894043,112.675293c-1.0092773-2.1757813-1.7939453-4.4667969-2.3510742-6.847168l-3.4951172-0.159668
	c0.2631836,0.6777344,0.5410156,1.3486328,0.8461914,2.0068359l-12.9711914,11.8339844l13.0629883,14.3173828l0.2392578-0.21875
	l-8.3022461-9.0976563L43.894043,112.675293z"/>
<path fill="#FB7D00" d="M100.9726563,112.5029297c1.7529297-2.6186523,3.171875-5.4760742,4.1889648-8.5327148l14.5527344,0.6660156
	l0.6689453-14.5981445l-9.3188477-0.4267578c-0.3857422-1.6621094-0.8950195-3.2753906-1.5058594-4.840332l-3.4941406-0.159668
	c-0.7299805-3.1450195-1.8779297-6.128418-3.3828125-8.9042969l10.8730469-9.9208984l-8.3022461-9.0981445L94.1826172,66.7900391
	c-2.5380859-1.472168-5.2792969-2.6308594-8.1733398-3.4477539l0.1420898-3.0981445
	c-1.6508789-0.7539063-3.3637695-1.3999023-5.1420898-1.9018555l0.4990234-10.9091797l-14.140625-0.6479492l-0.7573242,16.5400391
	c-2.5737305,0.7260742-5.0239258,1.7451172-7.3339844,3.0009766l-4.7006836-5.152832
	c-0.0991211,0.0527344-0.2011719,0.0986328-0.2993164,0.152832l-6.6376953-7.2749023l-14.078125,12.84375l11.815918,12.9501953
	c-1.2041016,2.0810547-2.1938477,4.2978516-2.9628906,6.6230469l-17.6508789-0.8081055l-0.6694336,14.5981445l12.4492188,0.5698242
	c0.3891602,1.6611328,0.8950195,3.2749023,1.5048828,4.8398438l3.4960938,0.1611328
	c0.5561523,2.3789063,1.3422852,4.6699219,2.3500977,6.8461914l-12.9702148,11.8349609l8.3012695,9.0976563l12.2949219-11.21875
	c2.171875,1.4487305,4.5180664,2.6582031,6.9921875,3.6162109l-0.1171875,2.5439453
	c1.6289063,0.9433594,3.3388672,1.7675781,5.1171875,2.4570313l-0.543457,11.855957l14.1411133,0.6484375l0.7211914-15.7348633
	c2.9370117-0.5517578,5.7617188-1.4414063,8.4101563-2.6660156l4.6845703,5.1337891
	c0.1044922-0.046875,0.2124023-0.0859375,0.3164063-0.1337891l5.5976563,6.137207l14.0771484-12.8461914L100.9726563,112.5029297z
	 M99.2265625,98.7382813c-0.5800781,12.6635742-11.315918,22.4589844-23.9790039,21.8798828
	c-7.2260742-0.3310547-13.5151367-3.972168-17.4790039-9.3891602c-6.0039063-4.3886719-9.7670898-11.6049805-9.4008789-19.5908203
	c0.5800781-12.6630859,11.315918-22.4589844,23.9790039-21.8798828c7.2270508,0.3310547,13.5146484,3.9726563,17.4790039,9.3886719
	C95.8286133,83.5361328,99.5922852,90.7519531,99.2265625,98.7382813"/>
<path fill="none" stroke="#100D0F" stroke-width="2" stroke-linecap="round" stroke-linejoin="round" stroke-miterlimit="10" d="
	M119.7148438,104.6362305l0.8862305-19.3598633l-14.5371094-0.6660156c-0.7290039-3.1450195-1.8779297-6.1279297-3.3828125-8.902832
	l10.8730469-9.9208984l-13.0629883-14.3173828l-11.309082,10.3203125c-2.5380859-1.472168-5.2792969-2.6313477-8.1728516-3.4472656
	l0.7177734-15.6708984l-19.3598633-0.8857422l-0.7573242,16.5385742c-2.5737305,0.7260742-5.0239258,1.7451172-7.3339844,3.0024414
	L42.8769531,48.8325195l-14.315918,13.0620117l11.8149414,12.949707c-1.2041016,2.0810547-2.1938477,4.2983398-2.9628906,6.6230469
	L19.762207,80.6606445l-0.8862305,19.3588867l17.6669922,0.809082c0.5561523,2.3798828,1.3422852,4.6708984,2.3500977,6.8466797
	l-12.9702148,11.8339844l13.0629883,14.3164063l12.5341797-11.4365234c2.1708984,1.4492188,4.5170898,2.6582031,6.9912109,3.6162109
	l-0.7602539,16.6186523l19.3588867,0.8867188l0.7211914-15.7338867c2.9370117-0.5527344,5.7612305-1.4433594,8.4101563-2.6660156
	l10.3598633,11.3530273l14.3149414-13.0634766l-9.9428711-10.8969727c1.7519531-2.6191406,3.171875-5.4760742,4.1879883-8.5341797
	L119.7148438,104.6362305z M70.2470703,115.6171875c-12.6630859-0.5795898-22.4589844-11.3149414-21.8798828-23.9790039
	c0.5795898-12.6625977,11.315918-22.4589844,23.9799805-21.8798828
	c12.6630859,0.5800781,22.4589844,11.315918,21.8789063,23.9790039
	C93.6469727,106.4013672,82.9101563,116.1972656,70.2470703,115.6171875z"/>
<path fill="#76CCDF" d="M184.8930664,54.7412109l9.6005859-3.4897461l-4.0332031-11.0981445l-9.6123047,3.4936523
	c-1.4951172-2.2797852-3.3613281-4.3696289-5.625-6.1455078c-2.2607422-1.7724609-4.7285156-3.0844727-7.2939453-3.9931641
	l1.109375-10.1669922l-11.7382813-1.28125l-1.1074219,10.1552734c-4.640625,0.5727539-9.1132813,2.4228516-12.8896484,5.4438477
	l-8.0517578-6.3149414l-7.2861328,9.2910156l8.0507813,6.3149414c-2.0302734,4.3818359-2.7626953,9.1601563-2.2167969,13.7978516
	l-9.6015625,3.4902344l4.0332031,11.0981445l9.6132813-3.4941406c1.4960938,2.2797852,3.3603516,4.3701172,5.625,6.1459961
	c2.2597656,1.7719727,4.7285156,3.0839844,7.2919922,3.9926758l-1.1083984,10.1674805l11.7392578,1.2807617l1.1074219-10.1547852
	c4.6396484-0.5732422,9.1132813-2.4243164,12.8896484-5.4443359l8.0517578,6.3149414l7.2871094-9.2910156l-8.0527344-6.3149414
	C184.706543,64.1572266,185.4379883,59.3793945,184.8930664,54.7412109 M158.7739258,70.2431641
	c-6.9033203-0.315918-12.2421875-6.1679688-11.9277344-13.0708008c0.3173828-6.9033203,6.1699219-12.2421875,13.0712891-11.9262695
	c6.9033203,0.315918,12.2431641,6.1679688,11.9267578,13.0703125
	C171.5288086,65.2202148,165.6762695,70.559082,158.7739258,70.2431641"/>
<path fill="#76CCDF" d="M180.8920898,58.7416992l9.6015625-3.4902344l-4.0332031-11.0981445l-9.6132813,3.4941406
	c-1.4951172-2.2797852-3.3603516-4.3701172-5.625-6.1459961c-2.2597656-1.7719727-4.7275391-3.0839844-7.2929688-3.9931641
	l1.109375-10.1669922l-11.7382813-1.2807617l-1.1074219,10.1547852c-4.640625,0.5732422-9.1132813,2.4233398-12.8896484,5.4443359
	l-8.0517578-6.3149414l-7.2871094,9.2910156l8.0517578,6.3149414c-2.03125,4.3818359-2.7626953,9.159668-2.2167969,13.7978516
	l-9.6020508,3.4902344l4.0341797,11.0976563l9.612793-3.4941406c1.4951172,2.2802734,3.3603516,4.3701172,5.625,6.1464844
	c2.2597656,1.7719727,4.7285156,3.0839844,7.2919922,3.9926758l-1.1083984,10.1669922l11.7382813,1.28125l1.1083984-10.1552734
	c4.6396484-0.5727539,9.1132813-2.4238281,12.8886719-5.4438477l8.0527344,6.3149414l7.2861328-9.2910156l-8.0517578-6.3149414
	C180.706543,68.1577148,181.4370117,63.3793945,180.8920898,58.7416992 M154.7739258,74.2436523
	c-6.9033203-0.315918-12.2421875-6.1679688-11.9277344-13.0712891c0.3173828-6.902832,6.1689453-12.2416992,13.0712891-11.9257813
	c6.9033203,0.315918,12.2431641,6.1679688,11.9267578,13.0698242
	C167.5288086,69.2207031,161.6762695,74.5595703,154.7739258,74.2436523"/>
<path fill="none" stroke="#100D0F" stroke-width="2" stroke-linecap="round" stroke-linejoin="round" stroke-miterlimit="10" d="
	M180.8920898,58.7416992l9.6015625-3.4902344l-4.0332031-11.0981445l-9.6132813,3.4941406
	c-1.4951172-2.2797852-3.3603516-4.3701172-5.625-6.1459961c-2.2597656-1.7719727-4.7275391-3.0839844-7.2929688-3.9931641
	l1.109375-10.1669922l-11.7382813-1.2807617l-1.1074219,10.1547852c-4.640625,0.5732422-9.1132813,2.4233398-12.8896484,5.4443359
	l-8.0517578-6.3149414l-7.2871094,9.2910156l8.0517578,6.3149414c-2.03125,4.3818359-2.7626953,9.159668-2.2167969,13.7978516
	l-9.6020508,3.4902344l4.0341797,11.0976563l9.612793-3.4941406c1.4951172,2.2802734,3.3603516,4.3701172,5.625,6.1464844
	c2.2597656,1.7719727,4.7285156,3.0839844,7.2919922,3.9926758l-1.1083984,10.1669922l11.7382813,1.28125l1.1083984-10.1552734
	c4.6396484-0.5727539,9.1132813-2.4238281,12.8886719-5.4438477l8.0527344,6.3149414l7.2861328-9.2910156l-8.0517578-6.3149414
	C180.706543,68.1577148,181.4370117,63.3793945,180.8920898,58.7416992z M154.7739258,74.2436523
	c-6.9033203-0.315918-12.2421875-6.1679688-11.9277344-13.0712891c0.3173828-6.902832,6.1689453-12.2416992,13.0712891-11.9257813
	c6.9033203,0.315918,12.2431641,6.1679688,11.9267578,13.0698242
	C167.5288086,69.2207031,161.6762695,74.5595703,154.7739258,74.2436523z"/>
<path fill="none" stroke="#100D0F" stroke-width="2" stroke-linecap="round" stroke-linejoin="round" stroke-miterlimit="10" d="
	M231.1674805,89.2094727c-13.4892578,0-26.6845703,14.3691406-26.6845703,14.3691406"/>
<path fill="none" stroke="#100D0F" stroke-width="2" stroke-linecap="round" stroke-linejoin="round" stroke-miterlimit="10" d="
	M59.2431641,104.0200195c-6.5322266-6.5322266-6.5322266-17.1220703,0-23.6538086
	c6.5317383-6.5322266,17.121582-6.5322266,23.6538086,0"/>
<path fill="none" stroke="#100D0F" stroke-width="2" stroke-linecap="round" stroke-linejoin="round" stroke-miterlimit="10" d="
	M150.6030273,66.7373047c-2.6621094-2.6616211-2.6621094-6.9770508,0-9.6386719
	c2.6621094-2.6611328,6.9775391-2.6611328,9.6376953,0"/>
<line fill="none" stroke="#FFFFFF" stroke-width="0.709" stroke-linecap="round" stroke-linejoin="round" stroke-miterlimit="10" x1="31.8051758" y1="62.3310547" x2="42.7133789" y2="52.1870117"/>
<line fill="none" stroke="#FFFFFF" stroke-width="0.709" stroke-linecap="round" stroke-linejoin="round" stroke-miterlimit="10" x1="64.2817383" y1="43.9667969" x2="79.9697266" y2="44.6269531"/>
<line fill="none" stroke="#FFFFFF" stroke-width="0.709" stroke-linecap="round" stroke-linejoin="round" stroke-miterlimit="10" x1="100.3500977" y1="54.1933594" x2="93.2973633" y2="60.9194336"/>
<line fill="none" stroke="#FFFFFF" stroke-width="0.709" stroke-linecap="round" stroke-linejoin="round" stroke-miterlimit="10" x1="21.9819336" y1="83.3706055" x2="33.3447266" y2="83.8110352"/>
<line fill="none" stroke="#FFFFFF" stroke-width="0.709" stroke-linecap="round" stroke-linejoin="round" stroke-miterlimit="10" x1="126.9614258" y1="44.6264648" x2="131.8012695" y2="38.2114258"/>
<line fill="none" stroke="#FFFFFF" stroke-width="0.709" stroke-linecap="round" stroke-linejoin="round" stroke-miterlimit="10" x1="126.9614258" y1="68.1269531" x2="122.7714844" y2="69.7338867"/>
<line fill="none" stroke="#FFFFFF" stroke-width="0.709" stroke-linecap="round" stroke-linejoin="round" stroke-miterlimit="10" x1="154.7416992" y1="28.5449219" x2="162.7612305" y2="29.3129883"/>
<line fill="none" stroke="#FFFFFF" stroke-width="0.709" stroke-linecap="round" stroke-linejoin="round" stroke-miterlimit="10" x1="180.0424805" y1="48.3574219" x2="185.3334961" y2="46.5356445"/>
</svg>
