<?xml version="1.0" encoding="utf-8"?>
<!-- Generator: Adobe Illustrator 15.0.2, SVG Export Plug-In  -->
<!DOCTYPE svg PUBLIC "-//W3C//DTD SVG 1.1//EN" "http://www.w3.org/Graphics/SVG/1.1/DTD/svg11.dtd" [
	<!ENTITY ns_flows "http://ns.adobe.com/Flows/1.0/">
]>
<svg version="1.1"
	 xmlns="http://www.w3.org/2000/svg" xmlns:xlink="http://www.w3.org/1999/xlink" xmlns:a="http://ns.adobe.com/AdobeSVGViewerExtensions/3.0/"
	 x="0px" y="0px" width="345px" height="385px" viewBox="-0.717 -0.223 345 385" enable-background="new -0.717 -0.223 345 385"
	 xml:space="preserve">
<defs>
</defs>
<circle fill="none" stroke="#BBBBBC" stroke-width="2" stroke-linecap="round" stroke-linejoin="round" stroke-dasharray="5.051,5.051" cx="146.377" cy="99.953" r="36.991"/>
<polygon fill="#FFFFFF" points="74.184,295.373 1,383.555 343.523,383.555 273.939,295.373 "/>
<line fill="none" stroke="#E5E5E4" stroke-linecap="round" stroke-linejoin="round" stroke-miterlimit="10" x1="79.171" y1="298.959" x2="10.877" y2="382.482"/>
<line fill="none" stroke="#E5E5E4" stroke-linecap="round" stroke-linejoin="round" stroke-miterlimit="10" x1="91.627" y1="298.863" x2="31.361" y2="382.502"/>
<line fill="none" stroke="#E5E5E4" stroke-linecap="round" stroke-linejoin="round" stroke-miterlimit="10" x1="104.115" y1="298.766" x2="51.933" y2="382.521"/>
<line fill="none" stroke="#E5E5E4" stroke-linecap="round" stroke-linejoin="round" stroke-miterlimit="10" x1="116.635" y1="298.668" x2="72.594" y2="382.541"/>
<line fill="none" stroke="#E5E5E4" stroke-linecap="round" stroke-linejoin="round" stroke-miterlimit="10" x1="129.188" y1="298.57" x2="93.344" y2="382.561"/>
<line fill="none" stroke="#E5E5E4" stroke-linecap="round" stroke-linejoin="round" stroke-miterlimit="10" x1="141.774" y1="298.473" x2="114.185" y2="382.578"/>
<line fill="none" stroke="#E5E5E4" stroke-linecap="round" stroke-linejoin="round" stroke-miterlimit="10" x1="154.393" y1="298.373" x2="135.116" y2="382.598"/>
<line fill="none" stroke="#E5E5E4" stroke-linecap="round" stroke-linejoin="round" stroke-miterlimit="10" x1="167.045" y1="298.275" x2="156.139" y2="382.617"/>
<line fill="none" stroke="#E5E5E4" stroke-linecap="round" stroke-linejoin="round" stroke-miterlimit="10" x1="179.73" y1="298.176" x2="177.253" y2="382.639"/>
<line fill="none" stroke="#E5E5E4" stroke-linecap="round" stroke-linejoin="round" stroke-miterlimit="10" x1="192.449" y1="298.076" x2="198.46" y2="382.658"/>
<line fill="none" stroke="#E5E5E4" stroke-linecap="round" stroke-linejoin="round" stroke-miterlimit="10" x1="205.201" y1="297.977" x2="219.761" y2="382.678"/>
<line fill="none" stroke="#E5E5E4" stroke-linecap="round" stroke-linejoin="round" stroke-miterlimit="10" x1="217.986" y1="297.877" x2="241.156" y2="382.697"/>
<line fill="none" stroke="#E5E5E4" stroke-linecap="round" stroke-linejoin="round" stroke-miterlimit="10" x1="230.806" y1="297.777" x2="262.644" y2="382.717"/>
<line fill="none" stroke="#E5E5E4" stroke-linecap="round" stroke-linejoin="round" stroke-miterlimit="10" x1="243.66" y1="297.678" x2="284.228" y2="382.736"/>
<line fill="none" stroke="#E5E5E4" stroke-linecap="round" stroke-linejoin="round" stroke-miterlimit="10" x1="256.546" y1="297.576" x2="305.908" y2="382.756"/>
<line fill="none" stroke="#E5E5E4" stroke-linecap="round" stroke-linejoin="round" stroke-miterlimit="10" x1="269.468" y1="297.477" x2="327.683" y2="382.777"/>
<line fill="none" stroke="#E5E5E4" stroke-linecap="round" stroke-linejoin="round" stroke-miterlimit="10" x1="274.328" y1="297.916" x2="74.431" y2="299.465"/>
<line fill="none" stroke="#E5E5E4" stroke-linecap="round" stroke-linejoin="round" stroke-miterlimit="10" x1="279.802" y1="305.537" x2="68.004" y2="307.012"/>
<line fill="none" stroke="#E5E5E4" stroke-linecap="round" stroke-linejoin="round" stroke-miterlimit="10" x1="285.98" y1="314.135" x2="60.773" y2="315.504"/>
<line fill="none" stroke="#E5E5E4" stroke-linecap="round" stroke-linejoin="round" stroke-miterlimit="10" x1="293.003" y1="323.91" x2="52.576" y2="325.131"/>
<line fill="none" stroke="#E5E5E4" stroke-linecap="round" stroke-linejoin="round" stroke-miterlimit="10" x1="301.062" y1="335.123" x2="43.206" y2="336.137"/>
<line fill="none" stroke="#E5E5E4" stroke-linecap="round" stroke-linejoin="round" stroke-miterlimit="10" x1="310.396" y1="348.115" x2="32.389" y2="348.84"/>
<line fill="none" stroke="#E5E5E4" stroke-linecap="round" stroke-linejoin="round" stroke-miterlimit="10" x1="321.343" y1="363.35" x2="19.765" y2="363.666"/>
<line fill="none" stroke="#E5E5E4" stroke-linecap="round" stroke-linejoin="round" stroke-miterlimit="10" x1="334.355" y1="381.459" x2="4.838" y2="381.197"/>
<polygon fill="none" stroke="#19191C" stroke-width="2" stroke-linecap="round" stroke-linejoin="round" stroke-miterlimit="10" points="
	74.184,295.373 1,383.555 343.523,383.555 273.939,295.373 "/>
<polygon fill="#FFFFFF" points="74.184,259.379 1,347.559 343.523,347.559 273.939,259.379 "/>
<line fill="none" stroke="#E5E5E4" stroke-linecap="round" stroke-linejoin="round" stroke-miterlimit="10" x1="79.171" y1="262.965" x2="10.877" y2="346.488"/>
<line fill="none" stroke="#E5E5E4" stroke-linecap="round" stroke-linejoin="round" stroke-miterlimit="10" x1="91.627" y1="262.869" x2="31.361" y2="346.508"/>
<line fill="none" stroke="#E5E5E4" stroke-linecap="round" stroke-linejoin="round" stroke-miterlimit="10" x1="104.115" y1="262.771" x2="51.933" y2="346.527"/>
<line fill="none" stroke="#E5E5E4" stroke-linecap="round" stroke-linejoin="round" stroke-miterlimit="10" x1="116.635" y1="262.674" x2="72.594" y2="346.547"/>
<line fill="none" stroke="#E5E5E4" stroke-linecap="round" stroke-linejoin="round" stroke-miterlimit="10" x1="129.188" y1="262.576" x2="93.344" y2="346.566"/>
<line fill="none" stroke="#E5E5E4" stroke-linecap="round" stroke-linejoin="round" stroke-miterlimit="10" x1="141.774" y1="262.477" x2="114.185" y2="346.584"/>
<line fill="none" stroke="#E5E5E4" stroke-linecap="round" stroke-linejoin="round" stroke-miterlimit="10" x1="154.393" y1="262.379" x2="135.116" y2="346.604"/>
<line fill="none" stroke="#E5E5E4" stroke-linecap="round" stroke-linejoin="round" stroke-miterlimit="10" x1="167.045" y1="262.281" x2="156.139" y2="346.623"/>
<line fill="none" stroke="#E5E5E4" stroke-linecap="round" stroke-linejoin="round" stroke-miterlimit="10" x1="179.73" y1="262.182" x2="177.253" y2="346.643"/>
<line fill="none" stroke="#E5E5E4" stroke-linecap="round" stroke-linejoin="round" stroke-miterlimit="10" x1="192.449" y1="262.082" x2="198.46" y2="346.664"/>
<line fill="none" stroke="#E5E5E4" stroke-linecap="round" stroke-linejoin="round" stroke-miterlimit="10" x1="205.201" y1="261.982" x2="219.761" y2="346.684"/>
<line fill="none" stroke="#E5E5E4" stroke-linecap="round" stroke-linejoin="round" stroke-miterlimit="10" x1="217.986" y1="261.883" x2="241.156" y2="346.703"/>
<line fill="none" stroke="#E5E5E4" stroke-linecap="round" stroke-linejoin="round" stroke-miterlimit="10" x1="230.806" y1="261.783" x2="262.644" y2="346.723"/>
<line fill="none" stroke="#E5E5E4" stroke-linecap="round" stroke-linejoin="round" stroke-miterlimit="10" x1="243.66" y1="261.684" x2="284.228" y2="346.742"/>
<line fill="none" stroke="#E5E5E4" stroke-linecap="round" stroke-linejoin="round" stroke-miterlimit="10" x1="256.546" y1="261.582" x2="305.908" y2="346.762"/>
<line fill="none" stroke="#E5E5E4" stroke-linecap="round" stroke-linejoin="round" stroke-miterlimit="10" x1="269.468" y1="261.482" x2="327.683" y2="346.783"/>
<line fill="none" stroke="#E5E5E4" stroke-linecap="round" stroke-linejoin="round" stroke-miterlimit="10" x1="274.328" y1="261.922" x2="74.431" y2="263.471"/>
<line fill="none" stroke="#E5E5E4" stroke-linecap="round" stroke-linejoin="round" stroke-miterlimit="10" x1="279.802" y1="269.543" x2="68.004" y2="271.018"/>
<line fill="none" stroke="#E5E5E4" stroke-linecap="round" stroke-linejoin="round" stroke-miterlimit="10" x1="285.98" y1="278.141" x2="60.773" y2="279.51"/>
<line fill="none" stroke="#E5E5E4" stroke-linecap="round" stroke-linejoin="round" stroke-miterlimit="10" x1="293.003" y1="287.916" x2="52.576" y2="289.137"/>
<line fill="none" stroke="#E5E5E4" stroke-linecap="round" stroke-linejoin="round" stroke-miterlimit="10" x1="301.062" y1="299.129" x2="43.206" y2="300.143"/>
<line fill="none" stroke="#E5E5E4" stroke-linecap="round" stroke-linejoin="round" stroke-miterlimit="10" x1="310.396" y1="312.121" x2="32.389" y2="312.846"/>
<line fill="none" stroke="#E5E5E4" stroke-linecap="round" stroke-linejoin="round" stroke-miterlimit="10" x1="321.343" y1="327.355" x2="19.765" y2="327.672"/>
<line fill="none" stroke="#E5E5E4" stroke-linecap="round" stroke-linejoin="round" stroke-miterlimit="10" x1="334.355" y1="345.465" x2="4.838" y2="345.203"/>
<polygon fill="none" stroke="#19191C" stroke-width="2" stroke-linecap="round" stroke-linejoin="round" stroke-miterlimit="10" points="
	74.184,259.379 1,347.559 343.523,347.559 273.939,259.379 "/>
<polygon fill="#FFFFFF" points="74.184,223.385 1,311.564 343.523,311.564 273.939,223.385 "/>
<line fill="none" stroke="#E5E5E4" stroke-linecap="round" stroke-linejoin="round" stroke-miterlimit="10" x1="78.491" y1="224.906" x2="10.015" y2="310.486"/>
<line fill="none" stroke="#E5E5E4" stroke-linecap="round" stroke-linejoin="round" stroke-miterlimit="10" x1="90.979" y1="224.807" x2="30.552" y2="310.508"/>
<line fill="none" stroke="#E5E5E4" stroke-linecap="round" stroke-linejoin="round" stroke-miterlimit="10" x1="103.5" y1="224.707" x2="51.18" y2="310.527"/>
<line fill="none" stroke="#E5E5E4" stroke-linecap="round" stroke-linejoin="round" stroke-miterlimit="10" x1="116.054" y1="224.607" x2="71.896" y2="310.547"/>
<line fill="none" stroke="#E5E5E4" stroke-linecap="round" stroke-linejoin="round" stroke-miterlimit="10" x1="128.641" y1="224.506" x2="92.701" y2="310.566"/>
<line fill="none" stroke="#E5E5E4" stroke-linecap="round" stroke-linejoin="round" stroke-miterlimit="10" x1="141.261" y1="224.406" x2="113.598" y2="310.586"/>
<line fill="none" stroke="#E5E5E4" stroke-linecap="round" stroke-linejoin="round" stroke-miterlimit="10" x1="153.913" y1="224.305" x2="134.585" y2="310.605"/>
<line fill="none" stroke="#E5E5E4" stroke-linecap="round" stroke-linejoin="round" stroke-miterlimit="10" x1="166.599" y1="224.203" x2="155.664" y2="310.625"/>
<line fill="none" stroke="#E5E5E4" stroke-linecap="round" stroke-linejoin="round" stroke-miterlimit="10" x1="179.318" y1="224.102" x2="176.835" y2="310.645"/>
<line fill="none" stroke="#E5E5E4" stroke-linecap="round" stroke-linejoin="round" stroke-miterlimit="10" x1="192.07" y1="224" x2="198.099" y2="310.666"/>
<line fill="none" stroke="#E5E5E4" stroke-linecap="round" stroke-linejoin="round" stroke-miterlimit="10" x1="204.857" y1="223.898" x2="219.457" y2="310.686"/>
<line fill="none" stroke="#E5E5E4" stroke-linecap="round" stroke-linejoin="round" stroke-miterlimit="10" x1="217.675" y1="223.797" x2="240.908" y2="310.707"/>
<line fill="none" stroke="#E5E5E4" stroke-linecap="round" stroke-linejoin="round" stroke-miterlimit="10" x1="230.529" y1="223.693" x2="262.455" y2="310.727"/>
<line fill="none" stroke="#E5E5E4" stroke-linecap="round" stroke-linejoin="round" stroke-miterlimit="10" x1="243.417" y1="223.592" x2="284.093" y2="310.748"/>
<line fill="none" stroke="#E5E5E4" stroke-linecap="round" stroke-linejoin="round" stroke-miterlimit="10" x1="256.339" y1="223.488" x2="305.832" y2="310.768"/>
<line fill="none" stroke="#E5E5E4" stroke-linecap="round" stroke-linejoin="round" stroke-miterlimit="10" x1="269.294" y1="223.385" x2="327.666" y2="310.789"/>
<line fill="none" stroke="#E5E5E4" stroke-linecap="round" stroke-linejoin="round" stroke-miterlimit="10" x1="274.167" y1="223.836" x2="73.736" y2="225.424"/>
<line fill="none" stroke="#E5E5E4" stroke-linecap="round" stroke-linejoin="round" stroke-miterlimit="10" x1="279.658" y1="231.645" x2="67.294" y2="233.156"/>
<line fill="none" stroke="#E5E5E4" stroke-linecap="round" stroke-linejoin="round" stroke-miterlimit="10" x1="285.851" y1="240.453" x2="60.044" y2="241.857"/>
<line fill="none" stroke="#E5E5E4" stroke-linecap="round" stroke-linejoin="round" stroke-miterlimit="10" x1="292.894" y1="250.471" x2="51.825" y2="251.723"/>
<line fill="none" stroke="#E5E5E4" stroke-linecap="round" stroke-linejoin="round" stroke-miterlimit="10" x1="300.972" y1="261.959" x2="42.429" y2="262.998"/>
<line fill="none" stroke="#E5E5E4" stroke-linecap="round" stroke-linejoin="round" stroke-miterlimit="10" x1="310.333" y1="275.273" x2="31.584" y2="276.016"/>
<line fill="none" stroke="#E5E5E4" stroke-linecap="round" stroke-linejoin="round" stroke-miterlimit="10" x1="321.308" y1="290.883" x2="18.926" y2="291.207"/>
<line fill="none" stroke="#E5E5E4" stroke-linecap="round" stroke-linejoin="round" stroke-miterlimit="10" x1="334.355" y1="309.438" x2="3.959" y2="309.17"/>
<polygon fill="none" stroke="#19191C" stroke-width="2" stroke-linecap="round" stroke-linejoin="round" stroke-miterlimit="10" points="
	74.184,223.385 1,311.564 343.523,311.564 273.939,223.385 "/>
<polygon fill="#FFFFFF" points="80.09,230.359 67.294,245.777 127.183,245.777 136.613,230.359 "/>
<polygon fill="none" stroke="#19191C" stroke-width="2" stroke-linecap="round" stroke-linejoin="round" stroke-miterlimit="10" points="
	80.09,230.359 67.294,245.777 127.183,245.777 136.613,230.359 "/>
<polygon fill="#FFFFFF" points="146.08,230.359 135.684,245.777 212.369,245.777 203.802,230.359 "/>
<polygon fill="none" stroke="#19191C" stroke-width="2" stroke-linecap="round" stroke-linejoin="round" stroke-miterlimit="10" points="
	146.08,230.359 135.684,245.777 212.369,245.777 203.802,230.359 "/>
<polygon fill="#FFFFFF" points="267.544,230.359 280.341,245.777 220.453,245.777 211.023,230.359 "/>
<polygon fill="none" stroke="#19191C" stroke-width="2" stroke-linecap="round" stroke-linejoin="round" stroke-miterlimit="10" points="
	267.544,230.359 280.341,245.777 220.453,245.777 211.023,230.359 "/>
<path fill="#FFFFFF" d="M147.867,9.178v195.156l23.595,55.988l23.995-56.787V9.178C195.457,9.178,171.662-9.223,147.867,9.178"/>
<path fill="#5ABED7" d="M174.685,43.914l1.199,151.939l7.855,12.375l10.428-11.729l1.199-152.586
	C195.367,43.914,185.025,31.172,174.685,43.914"/>
<path fill="#EE9021" d="M169.247,245.916l3.346,15.477l12.701-15.822C185.294,245.57,172.546,244.311,169.247,245.916"/>
<path fill="#5ABED7" d="M148.289,43.914l1.2,151.939l7.855,12.375l10.428-11.729l1.2-152.586
	C168.972,43.914,158.629,31.172,148.289,43.914"/>
<path fill="#5ABED7" d="M162.686,43.914l1.2,151.939l7.855,12.375l10.428-11.729l1.199-152.586
	C183.369,43.914,173.027,31.172,162.686,43.914"/>
<path fill="none" stroke="#19191C" stroke-width="2" stroke-linecap="round" stroke-linejoin="round" stroke-miterlimit="10" d="
	M147.867,9.178v195.156l23.595,55.988l23.995-56.787V9.178C195.457,9.178,171.662-9.223,147.867,9.178z"/>
<path fill="#EE9021" d="M165.648,243.516l5.745,14.277l6.703-14.621C178.095,243.172,168.947,241.91,165.648,243.516"/>
<path fill="none" stroke="#19191C" stroke-width="2" stroke-linecap="round" stroke-linejoin="round" stroke-miterlimit="10" d="
	M148.567,38.251c0,0,20.334,8.182,46.19,0"/>
<polyline fill="none" stroke="#19191C" stroke-width="2" stroke-linecap="round" stroke-linejoin="round" stroke-miterlimit="10" points="
	149.767,206.588 163.864,196.531 171.661,207.789 182.519,196.531 193.556,205.988 "/>
<line fill="none" stroke="#19191C" stroke-width="2" stroke-linecap="round" stroke-linejoin="round" stroke-miterlimit="10" x1="164.536" y1="242.189" x2="179.125" y2="242.189"/>
<line fill="none" stroke="#19191C" stroke-width="2" stroke-linecap="round" stroke-linejoin="round" stroke-miterlimit="10" x1="163.863" y1="196.531" x2="163.863" y2="41.888"/>
<line fill="none" stroke="#19191C" stroke-width="2" stroke-linecap="round" stroke-linejoin="round" stroke-miterlimit="10" x1="182.519" y1="196.531" x2="182.519" y2="41.888"/>
</svg>
